<?xml version="1.0" standalone="no"?>
<!DOCTYPE svg PUBLIC "-//W3C//DTD SVG 1.1//EN" "http://www.w3.org/Graphics/SVG/1.1/DTD/svg11.dtd" >
<svg xmlns="http://www.w3.org/2000/svg" xmlns:xlink="http://www.w3.org/1999/xlink" version="1.1">
<metadata>
Created by FontForge 20170924 at Sun May 20 03:16:38 2012
 By www-data
Copyright (c) 2012 by Sang Mun. All rights reserved.
</metadata>
<defs>
<font id="ZXX-Camo" horiz-adv-x="650" >
  <font-face 
    font-family="ZXX"
    font-weight="400"
    font-stretch="normal"
    units-per-em="1000"
    panose-1="0 0 0 0 0 0 0 0 0 0"
    ascent="770"
    descent="-230"
    x-height="525"
    cap-height="664"
    bbox="10 -250 640 837"
    underline-thickness="50"
    underline-position="-100"
    unicode-range="U+0020-FB02"
  />
<missing-glyph horiz-adv-x="500" 
d="M50 -230v950h400v-950h-400zM100 -180h300v850h-300v-850z" />
    <glyph glyph-name=".notdef" horiz-adv-x="500" 
d="M50 -230v950h400v-950h-400zM100 -180h300v850h-300v-850z" />
    <glyph glyph-name="onehalf" unicode="&#xbd;" 
d="M191 0h-99l190 343h-176c-11 0 -20 9 -20 21c0 10 9 19 20 19h107v252h-107c-11 0 -20 9 -20 20s9 20 20 20h128c11 0 20 -9 20 -20v-272h50l155 281h99l-196 -354c21 14 48 22 74 22c60 0 120 -39 120 -110c2 -7 0 -14 -5 -20l-165 -161h130v53c0 10 9 19 20 19
s20 -9 20 -19v-73c0 -12 -9 -21 -20 -21h-200l-5 1c-2 0 -4 1 -5 2c-2 1 -4 2 -5 3c-8 8 -7 21 0 29l195 190c-2 20 -11 36 -24 48c-14 12 -35 19 -56 19c-40 0 -80 -24 -80 -76c0 -11 -9 -20 -20 -20s-20 9 -20 20v11z" />
    <glyph glyph-name="onequarter" unicode="&#xbc;" 
d="M92 0l190 343h-176c-10 0 -19 9 -19 21c0 10 9 19 19 19h107v252h-107c-10 0 -19 9 -19 20s9 20 19 20h128c11 0 20 -9 20 -20v-272h50l155 281h99l-367 -664h-99zM545 0c-12 0 -21 9 -21 21v52h-180l-5 1v0c1 -1 3 -1 -1 0c-3 1 -6 2 -8 4c-7 7 -8 17 -4 25c2 2 3 4 5 5
l198 218c8 8 21 9 29 1c5 -5 8 -12 6 -19v-287c0 -12 -9 -21 -19 -21zM524 113v148l-135 -148h135z" />
    <glyph glyph-name="threequarters" unicode="&#xbe;" 
d="M92 0l206 373c-19 -18 -48 -30 -86 -30h-1h-4v0c-30 0 -59 8 -81 23c-26 17 -39 44 -39 75c0 11 9 20 19 20c12 0 21 -9 21 -20c0 -40 41 -58 80 -58c38 0 79 18 79 57c-2 24 -25 49 -74 49h-33c-11 0 -20 9 -20 20s9 20 20 20h33c51 0 74 28 74 52c-1 16 -8 28 -22 38
c-15 10 -35 16 -58 16c-38 0 -79 -18 -79 -57c0 -12 -9 -21 -21 -21c-10 0 -19 9 -19 21c0 64 60 97 119 97h5h1c75 0 115 -47 115 -93v-2v-2v-2c-2 -26 -16 -50 -41 -67c25 -16 39 -41 41 -66v-2v-2v-2c0 -5 0 -9 -1 -14l133 241h99l-367 -664h-99zM545 0
c-12 0 -21 9 -21 21v52h-180l-5 1v0c1 -1 3 -1 -1 0c-3 1 -6 2 -8 4c-7 7 -8 17 -4 25c2 2 3 4 5 5l198 218c8 8 21 9 29 1c5 -5 8 -12 6 -19v-287c0 -12 -9 -21 -19 -21zM524 113v148l-135 -148h135z" />
    <glyph glyph-name="minus" unicode="&#x2212;" 
d="M554 405v-81h-458v81h458z" />
    <glyph glyph-name="multiply" unicode="&#xd7;" 
d="M471 143l-146 146l-146 -146l-57 58l146 146l-146 145l57 58l146 -146l146 146l57 -58l-145 -145l145 -146z" />
    <glyph glyph-name="space" unicode=" " 
 />
    <glyph glyph-name="exclam" unicode="!" 
d="M210 178c-17 -11 -32 -17 -48 -17v0c-22 0 -43 6 -53 12c-33 12 -50 39 -40 69c7 34 40 51 65 39h18c5 18 10 52 41 77c30 20 64 17 91 8v309h81v-170l6 6c21 18 39 18 55 5c5 -5 11 -9 15 -17v25c0 16 4 41 27 59c24 20 46 16 55 8c15 -8 22 -26 28 -38l3 -4
c11 0 21 -9 27 -29c6 -21 -3 -42 -21 -51c-22 -12 -37 0 -50 17c4 -8 4 -14 4 -20c0 -22 -12 -46 -33 -63c-13 -9 -22 -12 -35 -12v0c-5 0 -15 3 -20 8c-12 8 -22 24 -25 38h-2c-10 -7 -24 -6 -34 5v-242h-81v53c-5 0 -10 0 -15 1h-16c-5 -24 -10 -59 -43 -76zM393 0h-137
v138h58c-1 18 2 36 20 49c9 4 35 16 67 -13c1 18 10 34 30 42c31 9 58 -13 84 -36c3 -3 14 -13 18 -14c12 -4 28 -12 36 -25c10 -10 8 -28 3 -38v0c-4 -7 -12 -10 -18 -13c-22 -13 -42 -1 -63 12c0 -42 -24 -50 -36 -52c-13 -6 -26 -2 -41 7c2 -7 -2 -14 -5 -20
c-4 -4 -10 -7 -16 -9v-28z" />
    <glyph glyph-name="quotedbl" unicode="&#x22;" 
d="M492 577h-129l36 201h129zM123 577l36 201h128l-36 -201h-128z" />
    <glyph glyph-name="numbersign" unicode="#" 
d="M414 242l21 179h-189l-21 -179h189zM215 161l-20 -161h-81l20 161h-63l10 81h63l21 179h-81l10 81h81l20 162h81l-20 -162h189l20 162h81l-20 -162h63l-10 -81h-63l-21 -179h81l-10 -81h-81l-20 -161h-81l20 161h-189z" />
    <glyph glyph-name="dollar" unicode="$" 
d="M284 366v206c-62 -11 -119 -47 -119 -107c2 -44 40 -90 119 -99zM365 76l1 1c62 10 118 46 118 105c-2 44 -40 90 -119 99v-205zM284 -85v79c-45 5 -87 21 -120 43c-52 36 -80 89 -80 150v40h81v-40v-5c3 -61 58 -95 119 -106v208c-123 11 -190 88 -199 167
c-1 3 -1 6 -1 9v5v4c0 86 68 174 200 186v75h81v-77c106 -13 200 -80 200 -193v-40h-81v40v5c-2 33 -16 59 -45 78c-20 14 -46 24 -74 28v-208c123 -11 191 -88 199 -168c1 -2 1 -5 1 -8v-4v-5c0 -86 -68 -174 -200 -186v-77h-81z" />
    <glyph glyph-name="percent" unicode="%" 
d="M362 523c0 -78 -64 -143 -142 -143s-142 65 -142 143s64 141 142 141s142 -63 142 -141zM220 449c40 0 74 33 74 74c0 40 -34 73 -74 73c-39 0 -73 -33 -73 -73c0 -41 34 -74 73 -74zM168 90h-90l405 484h90zM431 0c-78 0 -143 65 -143 142c0 79 65 142 143 142
s142 -63 142 -142c0 -77 -64 -142 -142 -142zM431 69c40 0 73 34 73 73c0 42 -33 74 -73 74c-38 0 -74 -32 -74 -74c0 -39 36 -73 74 -73z" />
    <glyph glyph-name="ampersand" unicode="&#x26;" 
d="M508 -18l-24 33l-19 28c-43 -30 -96 -45 -149 -45c-62 0 -120 21 -164 58c-50 42 -76 102 -76 174c0 89 46 159 117 193c-17 28 -26 65 -26 109c0 71 36 141 133 141h6c92 -3 127 -72 127 -141c0 -82 -32 -140 -89 -160l126 -189c4 14 6 30 6 47v131h81v-131v-6
c-1 -48 -14 -88 -35 -121l28 -41l23 -33l-32 -23l-1 -1h-1zM248 532v-3c-1 -28 -8 -85 52 -85c62 5 52 63 52 88c0 53 -35 60 -52 60v0c-17 0 -52 -7 -52 -60zM316 79c37 0 75 10 104 32l-164 247c-45 -11 -99 -45 -99 -128c0 -104 80 -151 159 -151z" />
    <glyph glyph-name="parenleft" unicode="(" 
d="M465 -90h-41c-126 2 -239 119 -240 263v301c-1 161 125 262 240 262h41v-81h-41c-79 0 -159 -74 -159 -196v-272c0 -122 80 -196 159 -196h41v-81z" />
    <glyph glyph-name="parenright" unicode=")" 
d="M184 -90v81h41c79 0 159 74 159 196v272c0 122 -80 196 -159 196h-41v81h41c115 0 241 -101 240 -262v-301c-1 -144 -114 -261 -240 -263h-41z" />
    <glyph glyph-name="asterisk" unicode="*" 
d="M366 362v-140h-81v140l-99 -99l-57 57l99 99h-141v81h141l-99 99l57 57l99 -99v140h81v-140l99 99l56 -57l-99 -99h141v-81h-141l99 -99l-56 -57z" />
    <glyph glyph-name="plus" unicode="+" 
d="M285 95v206h-189v81h189v206h81v-206h188v-81h-188v-206h-81z" />
    <glyph glyph-name="comma" unicode="," 
d="M185 -170h-45v90h45h6c64 1 84 18 90 80h-29v153h153v-153h-34c-7 -105 -40 -170 -186 -170z" />
    <glyph glyph-name="hyphen" unicode="-" 
d="M204 280v81h243v-81h-243z" />
    <glyph glyph-name="period" unicode="." 
d="M248 0v153h153v-153h-153z" />
    <glyph glyph-name="slash" unicode="/" 
d="M191 0h-99l367 664h99z" />
    <glyph glyph-name="zero" unicode="0" 
d="M333 125c-13 -16 -33 -21 -46 -11c-17 13 -22 35 -8 52c13 22 14 30 14 36l-4 4c-11 15 -35 43 -6 93c2 8 6 13 9 16v0c33 43 73 35 92 32c9 7 21 10 33 9c17 -5 28 -25 24 -46c-8 -21 -22 -34 -43 -39c-9 -1 -21 0 -28 2c-22 6 -22 6 -33 -8c3 -3 0 -7 0 -7l3 -1
c20 -29 34 -61 -7 -132zM375 81h5c2 0 4 0 7 1c-1 3 -2 7 -2 8c0 14 -3 22 -3 33c0 37 16 49 26 53c21 12 39 -8 58 -31c13 33 19 78 19 132v110v7c0 40 -4 75 -12 103c-14 3 -27 14 -33 26c-5 15 -4 26 1 34c-16 17 -38 26 -66 26h-100h-5c-20 -1 -37 -6 -51 -17
c20 -9 29 -28 23 -48c11 -10 27 -15 38 -21c31 -14 64 -31 74 -61c11 -20 5 -34 0 -50c-6 -16 -32 -46 -85 -42c-21 6 -43 10 -59 21c-11 3 -29 9 -45 14v-33l2 -2c27 -24 53 -50 49 -86c-6 -10 -11 -36 -64 -56c11 0 15 5 17 5c11 -80 43 -126 106 -126h100zM375 0h-100
c-126 2 -190 119 -191 263v16c-14 16 -32 33 -46 51c-21 40 -15 82 7 112c21 15 34 24 44 31c19 119 88 191 186 191h100h5c32 -1 62 -10 87 -26c8 20 21 37 41 43c20 3 42 -6 49 -31c4 -19 0 -38 -16 -44c-5 -10 -7 -27 -8 -36l-1 -5c22 -43 34 -98 34 -163v-139
c0 -16 -1 -32 -3 -47c18 -10 32 -30 40 -44c4 -7 7 -12 11 -15c12 -5 22 -14 25 -29c4 -24 -6 -45 -22 -50c-30 -12 -49 21 -62 41c-3 4 -6 9 -10 12c-4 -12 -7 -19 -10 -27c-10 -34 -19 -58 -42 -67c-5 -3 -10 -3 -16 -2c-27 -22 -61 -34 -102 -35z" />
    <glyph glyph-name="one" unicode="1" 
d="M330 -28l-5 1c-7 1 -13 6 -19 8c-8 7 -14 13 -20 19h-201v81h177c4 11 10 21 17 30c0 3 -4 3 -4 8c-9 8 -12 8 -18 8l-16 -8c-13 -8 -25 -16 -48 -16c-18 0 -43 3 -58 37c-14 21 -9 45 11 58c18 8 39 8 51 -8c27 16 78 46 138 -13l4 -4v141c-3 1 -7 1 -10 1
c-43 15 -67 48 -74 85c11 71 12 69 40 97c-23 6 -38 28 -47 46c-1 4 -2 9 -2 14l-112 -31v81l205 57h81v-47c21 5 41 6 58 -3c21 -6 28 -21 36 -36c7 -14 10 -55 -31 -89c-19 -12 -38 -23 -57 -27c-2 -1 -4 -2 -6 -4v-41c34 2 66 -1 86 -27c3 -11 18 -32 6 -59
c-5 -11 -4 -17 -11 -26v0c-13 -11 -35 -19 -57 -12c-10 4 -17 11 -24 17v-229h146v-81h-194c-2 -4 -4 -8 -7 -11c-10 -11 -22 -17 -35 -17z" />
    <glyph glyph-name="two" unicode="2" 
d="M526 -29h-5c-24 1 -45 10 -57 29h-380v35c-1 4 -1 7 0 10v13l1 1c-12 1 -23 9 -32 21c-7 18 -2 44 17 55c28 13 52 -2 76 -17l32 31c5 18 15 34 35 42c3 1 7 2 10 2l32 32c-13 8 -23 22 -32 34c-3 5 -6 11 -9 14c-10 3 -19 15 -20 29c0 19 13 31 32 31
c23 1 36 -20 50 -34l2 -1c17 30 36 62 67 71c19 6 36 2 51 -6l87 86c-3 40 -19 72 -46 96c-2 2 -5 4 -7 6c-9 -17 -35 -42 -83 -38c-22 6 -43 10 -59 21c-17 4 -49 18 -66 18c-3 -2 -5 -4 -8 -7c4 -10 21 -23 30 -32c28 -24 53 -50 50 -86c-6 -10 -11 -36 -39 -46
c-11 -5 -14 -10 -25 -10h-4c-17 2 -36 12 -46 31c-1 12 -7 25 -15 37v-7v-40h-81v40v6c1 36 8 67 21 94c-5 29 2 57 18 79c58 43 57 41 96 41c-12 20 -6 46 0 66c15 25 47 36 75 19c21 -9 31 -29 26 -50c11 -10 27 -15 38 -21c4 -2 8 -4 13 -6c100 -17 190 -91 194 -220
c1 -6 1 -12 -1 -18c2 -5 3 -10 5 -14c7 -9 9 -20 13 -26c7 -27 -3 -43 -14 -49c-8 -8 -28 -11 -47 4c-4 3 -10 10 -13 13c0 0 0 4 -3 3v-6c-6 -25 -11 -66 -46 -75c-14 -4 -26 -2 -38 2l-129 -126c1 -2 3 -4 4 -6c4 -7 6 -13 12 -17c11 -6 19 -15 22 -26c2 -7 2 -13 1 -18
l114 1c0 11 -1 21 -3 26c-16 7 -28 16 -28 33c0 20 17 33 40 33c5 0 17 -1 30 -8v61h81v-215c1 -3 2 -6 2 -9c0 -16 -15 -32 -38 -32h-3z" />
    <glyph glyph-name="three" unicode="3" 
d="M335 0h-2h-7v0c-61 0 -118 16 -161 46c-52 35 -80 88 -80 149v41h81v-41v0c0 -78 83 -114 160 -114c76 0 159 36 159 109c0 4 -1 7 -1 11c-9 -8 -17 -16 -25 -23c-45 -21 -88 -14 -120 9c-46 61 -44 61 -44 103c-21 -13 -50 -7 -70 -1c-27 15 -38 49 -21 80
c10 23 31 33 54 27c11 12 15 29 21 42c16 32 34 67 65 79c21 10 38 4 55 0c16 -7 49 -35 43 -92c-2 -9 -4 -19 -6 -28c31 20 47 49 49 77c-2 32 -16 58 -45 78s-71 31 -115 31c-19 0 -39 -2 -57 -7v0c4 -7 6 -13 12 -17c11 -6 19 -15 22 -26c4 -12 1 -23 -4 -30v0
c-5 -10 -12 -16 -24 -18c-22 -5 -39 5 -52 21c-6 -20 -15 -42 -39 -50c-6 -3 -11 -5 -17 -5v-23h-81v41v6v5c-6 5 -16 9 -22 13c-15 -1 -28 7 -38 21c-7 18 -2 44 17 55c24 11 45 1 66 -11c41 70 129 106 217 106h8h2c152 0 231 -93 231 -186v-4v-5c0 -3 0 -6 -1 -9
c-4 -32 -17 -64 -39 -90c3 0 6 -1 9 -1c11 -6 38 -11 49 -40c5 -12 10 -17 10 -29v-4c-2 -17 -14 -38 -32 -48c-2 -1 -5 -1 -7 -2c5 -14 8 -28 10 -42c1 -3 1 -6 1 -9v-4v-5c0 -92 -79 -186 -231 -186z" />
    <glyph glyph-name="four" unicode="4" 
d="M446 328c2 0 2 0 -4 -2c-13 -6 -28 0 -37 18c-8 21 -2 46 13 59c21 17 39 17 55 4c5 -4 11 -9 13 -14v127l-206 -225c6 -2 11 -5 15 -7c32 -14 64 -31 74 -61h117v56c-5 2 -10 4 -13 7c-12 9 -22 25 -25 38h-2zM167 -7c-17 0 -38 10 -49 31c-5 36 -48 76 -65 97
c-21 40 -14 82 7 112c56 41 58 41 92 41l3 3c-9 20 -5 44 2 63c14 25 46 36 73 19l14 16c-10 0 -20 1 -28 9c-22 15 -22 45 -22 73v21c-6 9 -6 21 0 33c9 12 28 18 43 9c21 -15 18 -39 18 -63v-16c3 0 6 3 6 3c16 8 37 18 56 11l192 209h58v-180c1 0 2 -1 3 -2
c15 -8 21 -25 28 -38l2 -3c12 0 22 -9 27 -30c7 -21 -2 -41 -20 -50c-17 -9 -29 -4 -40 6v-367h-81v146h-145c-14 -8 -33 -13 -57 -11c-13 4 -26 7 -39 11h-76c5 -4 9 -8 13 -11c28 -24 53 -50 49 -86c-6 -10 -10 -36 -38 -46c-11 -5 -15 -10 -26 -10z" />
    <glyph glyph-name="five" unicode="5" 
d="M343 482h5v0c21 -1 41 -5 59 -10c-12 20 -12 50 -12 77v28l-3 6h-227v-101h31c13 11 27 18 43 19c22 5 35 -4 49 -13c2 -1 4 -3 7 -6h48zM482 431c1 5 2 10 4 15c-6 -1 -13 -3 -19 -3zM480 201v1c3 13 4 26 4 39v2c-9 27 -17 53 -22 80v7c-23 41 -65 71 -128 71h-26
l-2 -6c-10 -20 -21 -39 -35 -51l-3 -6c6 5 12 8 18 11c22 14 70 27 114 -22c23 -22 40 -57 58 -88c6 -11 14 -25 22 -38zM356 83l3 1c26 5 51 15 72 31c-17 23 -35 54 -48 80c-2 4 -4 8 -6 13c-2 -1 -4 -2 -6 -2c-12 -2 -20 1 -31 3c-5 2 -6 -5 -6 -5l-6 -3
c3 -10 7 -21 10 -32c9 -31 18 -63 18 -86zM268 89v2c-5 16 -12 37 -18 51c-2 8 -4 16 -5 24c-30 -3 -55 6 -75 22c14 -53 53 -85 98 -99zM308 -12c-5 -5 -9 -5 -17 -5h-5c-16 2 -28 11 -36 26l-1 2c-33 9 -63 25 -89 47c-50 42 -76 102 -76 174v41l49 -1c0 11 2 20 6 36
c-22 -6 -46 5 -63 17c-21 20 -23 54 0 76c2 3 5 6 8 9v254h481v-81h-91c1 -11 0 -22 0 -34v-20c5 0 8 4 8 4c25 12 60 28 88 4c32 -28 12 -67 0 -95c-4 -8 -8 -13 -8 -20s-2 -15 -5 -21c5 -4 9 -10 11 -16c9 -22 0 -45 -17 -58c1 -4 3 -8 4 -12c4 -13 10 -32 13 -45
c9 -27 22 -57 22 -88c5 -58 -30 -85 -53 -93c-6 -3 -14 -5 -23 -7c-8 -8 -15 -16 -23 -23c-38 -36 -91 -59 -157 -59h-2c-2 0 -5 0 -3 0c-7 -6 -14 -9 -21 -12z" />
    <glyph glyph-name="six" unicode="6" 
d="M588 -7c-4 -1 -7 -2 -11 0c-18 2 -51 6 -58 47c-3 13 -5 28 -5 43c-9 -11 -19 -20 -30 -29c-38 -33 -88 -54 -151 -54h-13c-61 1 -117 22 -160 58c-47 39 -73 94 -76 160v23c-1 4 -1 7 -1 9c0 8 0 16 1 23v173l1 3c8 142 124 215 240 215c120 0 240 -79 240 -232v-40h-10
c-3 -12 -10 -22 -20 -26c19 -32 29 -71 29 -116v-10c1 -2 1 -5 1 -8c0 -12 -1 -24 -2 -36c9 -7 17 -18 21 -34c4 -19 2 -39 1 -58c-1 -13 -1 -40 4 -48c16 -3 31 -15 28 -33c-4 -14 -15 -26 -29 -30zM437 545c-29 25 -70 38 -112 38c-70 0 -140 -36 -157 -115l6 -3
c8 -6 13 -12 16 -19c40 24 88 36 143 36h5c34 0 64 -6 90 -18c4 6 9 11 15 15c11 9 21 14 30 15c-8 20 -20 37 -36 51zM165 232c0 -104 80 -151 160 -151c11 0 23 1 34 4c0 10 1 21 3 31c-1 6 0 16 1 23c-12 6 -18 19 -16 31c7 19 25 30 43 25c37 -3 45 -30 44 -53
c11 22 23 45 45 57c3 14 4 28 4 42c0 25 -4 49 -13 72c-5 -5 -10 -10 -15 -14c-12 -8 -21 -12 -34 -12v0c-5 0 -15 4 -21 8c-11 8 -21 25 -24 38h-3c3 0 3 0 -4 -2c-12 -6 -27 0 -36 18c-7 17 -4 38 6 51c-5 1 -10 1 -15 1c-33 0 -67 -8 -95 -25c21 7 44 10 64 -7
c32 -28 12 -67 0 -95c-4 -8 -8 -13 -8 -20c0 -12 -4 -24 -12 -32s-20 -12 -28 -12h-6c-9 1 -15 5 -22 12c-15 16 -15 36 -8 56c-14 -3 -29 -6 -43 -2c-1 -6 -2 -12 -2 -19v-17c1 -2 1 -5 1 -8z" />
    <glyph glyph-name="seven" unicode="7" 
d="M281 216l75 88c-11 0 -25 2 -41 10c-17 12 -37 29 -52 44c-60 43 -37 -10 -24 -29c15 -19 28 -40 36 -58c10 -24 10 -41 6 -55zM203 -1h-107l158 186c-12 -4 -23 -1 -33 9s-11 31 0 46c-3 10 -23 35 -35 48c-15 23 -29 47 -41 70c-20 44 -3 71 13 88c10 15 40 36 82 11
c21 -10 42 -30 62 -48c15 -13 35 -34 46 -36c0 10 -18 32 -29 46c-13 16 -26 33 -35 51c-18 39 2 66 9 72c16 12 34 12 45 -2c12 -13 12 -31 3 -46c7 -7 20 -24 27 -36c13 -17 30 -35 38 -57c5 -10 7 -20 8 -29l71 84v127h-360h-1v0h-40v81h40v0h1h440v-31c1 -3 1 -6 1 -9
v-177c1 -5 0 -10 -1 -15v-1c-1 -1 -1 -1 -1 -2s-1 -2 -1 -3v-1c-1 -1 -1 -2 -2 -3l-6 -9l-147 -173c28 10 65 12 106 -28c60 -59 25 -101 12 -117c0 -5 5 -9 13 -13c17 -17 22 -41 6 -59c-10 -10 -23 -17 -36 -17v0c-9 0 -16 7 -24 9c-70 59 -48 100 -27 130l-3 8
c-9 8 -13 8 -18 8c0 0 -9 -3 -17 -8c-13 -8 -25 -16 -47 -16c-12 0 -28 1 -42 13z" />
    <glyph glyph-name="eight" unicode="8" 
d="M334 0h-2h-7h-5h-3h-2h-7c-147 3 -224 95 -224 186v4v5c0 3 0 6 1 9c5 49 32 96 81 128c-49 32 -76 79 -81 128c-1 3 -1 6 -1 9v4v5c0 93 79 186 231 186h2h7h8h2c152 0 231 -93 231 -186v-4v-5c0 -3 0 -6 -1 -9c-5 -49 -32 -96 -81 -128c49 -32 76 -79 81 -128
c1 -3 1 -6 1 -9v-4v-5c0 -92 -79 -186 -231 -186zM284 432c0 0 3 0 -3 4c-11 12 -23 25 -34 39c-15 29 -10 58 4 80c19 15 29 22 37 25c-64 -9 -123 -45 -123 -106c3 -49 50 -101 150 -101h19c100 0 147 52 150 101c-1 20 -7 37 -18 52l-3 -12c-4 -10 -22 -32 -59 -29
c-14 4 -28 7 -40 15c-15 4 -47 19 -51 11c0 -7 14 -19 21 -26c20 -17 37 -35 34 -62c-4 -7 -7 -26 -26 -32c-8 -4 -10 -7 -18 -7v0c-11 0 -26 7 -33 21c-4 9 -4 15 -4 22zM196 144c-3 0 -3 0 3 4c16 28 35 58 64 67c30 10 59 -9 78 -22c3 -4 9 -7 14 -10c3 6 3 16 3 19
c6 26 9 55 35 68c6 3 12 3 19 7v2c-21 8 -47 13 -78 13h-19h-7c-95 -3 -140 -53 -143 -102c0 -7 1 -13 3 -19c9 -7 17 -18 25 -27h3zM422 193c0 0 0 3 -1 -4c-6 -26 -11 -62 -45 -71c-28 -9 -51 7 -71 23c-9 3 -19 12 -25 12c-10 -6 -23 -28 -30 -41c-3 -5 -6 -11 -9 -16
c25 -10 55 -15 84 -15c70 0 146 30 157 96c-10 -7 -27 -8 -43 6c-5 3 -11 10 -14 13l-3 3c3 0 3 -3 0 -6z" />
    <glyph glyph-name="nine" unicode="9" 
d="M282 279c-4 3 -4 3 2 -3c3 -3 5 -7 7 -10c12 -2 23 -3 35 -3c79 0 159 47 159 151v18c0 48 -16 86 -47 113c-29 24 -70 38 -112 38c-43 0 -85 -13 -116 -41c-30 -31 -44 -75 -44 -119c0 -33 8 -67 25 -94l6 9c4 11 9 18 13 22v0c49 59 111 48 138 43c14 9 32 15 49 13
c25 -7 41 -34 36 -64c-12 -29 -31 -46 -64 -53c-13 -1 -31 0 -42 3c-33 8 -33 8 -49 -12c4 -4 0 -8 0 -8zM307 0h-40v81h40h5c78 1 167 25 173 131l-4 4c-3 -10 -7 -17 -14 -26c-4 -3 -10 -3 -11 -3h-5c-7 1 -12 5 -16 12c-1 1 -2 3 -2 5c-34 -15 -70 -22 -107 -22h-5h-3h-2
h-6h-1c-5 -23 -16 -50 -37 -83c-19 -22 -50 -29 -69 -14c-26 16 -32 47 -12 70c20 31 22 41 22 49v0c-18 9 -34 20 -49 32l-3 3c-50 43 -76 103 -76 175v1v8v7v2c0 70 25 124 64 163c39 42 95 69 167 69h2h8c116 0 232 -75 240 -217v-6v-116c8 -7 15 -17 19 -24
c3 -5 5 -8 7 -10c9 -4 17 -10 18 -21c2 -17 -4 -31 -15 -34c-12 -5 -22 0 -29 8v-22c0 -66 -23 -123 -68 -162c-46 -39 -110 -60 -191 -60z" />
    <glyph glyph-name="colon" unicode=":" 
d="M241 465v168h168v-168h-168zM241 41v168h168v-168h-168z" />
    <glyph glyph-name="semicolon" unicode=";" 
d="M241 465v168h168v-168h-168zM182 -122h-45v90h45h6c62 1 82 17 89 73h-36v168h168v-168h-41c-9 -101 -43 -163 -186 -163z" />
    <glyph glyph-name="equal" unicode="=" 
d="M554 396h-458v81h458v-81zM96 234v81h458v-81h-458z" />
    <glyph glyph-name="question" unicode="?" 
d="M477 51h-4c-19 0 -35 17 -39 33c-4 22 4 34 16 42c4 9 8 17 12 25c11 35 31 72 66 77c20 0 40 -14 43 -39c0 -20 -7 -38 -23 -41c-8 -9 -12 -25 -15 -34c-12 -30 -28 -59 -56 -63zM317 254h3c18 1 49 10 49 55c-9 12 -25 31 -28 58c-5 -1 -10 -1 -16 -1v0
c-53 0 -60 -35 -60 -52c0 -53 35 -60 52 -60zM317 173h-6c-9 0 -17 1 -24 3c5 -7 10 -14 13 -20c3 -7 7 -12 10 -15l6 -3h1c39 0 69 -31 69 -69c0 -37 -30 -69 -69 -69c-37 0 -68 32 -68 69c0 10 2 20 6 29c-1 2 -2 3 -3 5c-4 4 -6 9 -10 12c-4 -12 -7 -19 -11 -27
c-10 -34 -19 -58 -41 -67c-13 -7 -30 0 -40 13c-3 -13 -10 -25 -19 -37c-7 -4 -13 -4 -16 -4c-14 0 -23 4 -30 16s-7 34 0 45c0 5 -3 17 -3 20c0 14 -4 22 -4 33c0 37 16 49 26 53c24 13 43 -11 62 -36c3 -4 3 -4 7 -9v5c13 32 27 74 56 82c-32 27 -45 69 -45 112
c0 96 70 133 141 133c17 0 79 8 79 67h-2c-20 0 -35 17 -39 33c-3 19 2 31 11 39c-13 11 -30 17 -49 17c-34 0 -63 -20 -74 -53c9 -2 18 -12 23 -30c6 -20 -3 -41 -21 -50c-22 -12 -37 0 -50 17c4 -8 4 -14 4 -21c0 -21 -12 -45 -33 -63c-13 -8 -22 -11 -35 -11
c-5 0 -15 3 -20 8c-12 8 -22 24 -25 38h-2c-13 -9 -31 -5 -41 16c-8 21 -2 46 13 58c21 17 39 17 55 5c5 -5 11 -9 15 -17v25c0 16 4 41 27 58c7 6 13 10 20 12c20 48 64 89 144 89h7c33 -1 60 -9 81 -22c11 15 25 27 44 29c20 0 40 -13 43 -38c0 -21 -7 -38 -23 -42
c-3 -4 -6 -9 -8 -14c11 -26 16 -55 16 -80c0 -4 0 -9 -1 -13c12 0 22 -2 29 -3c13 9 31 14 49 12c25 -7 41 -34 36 -64c-12 -28 -32 -46 -64 -53c-14 -1 -32 0 -43 3c-40 10 -55 -8 -45 -23c30 -39 52 -82 -10 -180c-18 -22 -50 -29 -68 -15c-14 -5 -32 -8 -51 -8z" />
    <glyph glyph-name="at" unicode="@" 
d="M357 -45c-188 0 -294 179 -294 380c0 165 97 325 274 325h3c150 -2 246 -142 246 -262c0 -62 -21 -133 -62 -188v-97h-81v29c-26 -13 -55 -20 -88 -20c-93 0 -170 76 -170 169s77 169 170 169c64 0 120 -37 149 -90c1 10 2 19 2 28c0 92 -79 181 -168 181
c-116 0 -195 -107 -195 -244c0 -160 75 -299 214 -299h41v-81h-41zM443 291c0 49 -41 88 -88 88c-46 0 -88 -39 -88 -88c0 -47 42 -88 88 -88c47 0 88 40 88 88z" />
    <glyph glyph-name="A" unicode="A" 
d="M573 580c5 -22 -4 -48 -26 -57h-17c-23 0 -44 13 -79 40c-8 4 -22 12 -26 17c-13 4 -26 9 -31 21c-13 23 -4 49 18 61c26 14 48 -3 87 -30c13 -8 31 -17 39 -22c14 -4 26 -12 35 -30zM211 415l14 42c-23 8 -61 24 -67 14c0 -10 21 -26 32 -36c7 -7 14 -13 21 -20z
M318 305l-4 2c-12 6 -20 19 -23 36c-4 29 6 52 27 58c23 8 39 -6 49 -22l-23 64c-11 -5 -25 -9 -42 -8l-78 -224c7 -5 13 -11 19 -17c3 26 20 42 43 51c20 3 40 -9 48 -33c2 -7 0 -14 -3 -22h102l-15 43h-1c-68 -19 -92 48 -99 72zM263 32c-20 0 -40 13 -56 34
c-6 14 -11 29 -14 43h-5l-20 -59l-17 -50h-82l16 45c0 3 1 5 2 6l2 7l80 235c-15 2 -33 11 -43 30c-5 11 -5 20 -5 31c0 5 -6 5 -6 5c-15 20 -37 41 -54 61c-21 41 -14 82 7 113c59 42 58 40 97 40c-12 20 -7 46 0 66c14 25 46 36 74 20c22 -9 32 -30 26 -51
c3 -2 6 -5 10 -7l11 34v0l10 29h57l10 -29v0l74 -219c13 12 32 22 60 27h3v0c17 0 32 -19 35 -42c3 -25 -10 -48 -28 -54c-17 -4 -24 -9 -27 -9v-9c0 -8 0 -19 -3 -30l74 -218h1l27 -81h-81l-17 50l-20 59l-134 -1c0 -4 0 -9 -1 -13c-4 -34 -20 -54 -48 -63h-15z" />
    <glyph glyph-name="B" unicode="B" 
d="M332 373h7c98 3 143 56 143 105c0 24 -11 50 -34 69c-8 -2 -15 -3 -20 -4c-36 0 -61 18 -90 37l-5 3h-1h-29c6 -10 14 -21 20 -29c24 -36 48 -72 32 -105c-3 -12 -17 -25 -44 -37h-17l-23 3l-18 13v0c-8 18 0 33 26 42v3c0 11 -18 41 -29 57c-16 18 -29 40 -32 53h-55
v-171c12 0 23 -3 32 -6c17 -3 30 -18 28 -33h109zM280 292h-24c3 -1 6 -3 9 -6c6 -4 12 -9 15 -17v23zM238 207c3 0 3 0 -4 -2c-12 -6 -27 0 -36 18c-8 21 -2 46 12 59c6 5 11 8 17 10h-64v-211h137c-1 2 -1 4 -1 7c3 10 10 19 23 19c3 3 13 7 18 10c33 16 51 23 66 19
c10 -4 19 -12 29 -29c32 21 47 51 47 79c0 33 -19 67 -60 87c-2 -15 -10 -27 -23 -34c-21 -11 -37 0 -49 18c3 -9 3 -15 3 -21c0 -22 -11 -46 -33 -63c-13 -8 -22 -12 -34 -12v0c-6 0 -15 4 -21 8c-12 8 -21 25 -24 38h-3zM82 0v285c-5 1 -10 2 -13 4c-23 7 -34 24 -27 42
c4 20 23 31 40 27v306h177c26 15 53 10 75 0h7h4c54 -2 99 -16 133 -38l39 -8c15 3 33 0 41 -12c11 -15 8 -34 -8 -43c-3 -1 -6 -1 -9 -2c15 -26 22 -54 22 -83c0 -55 -28 -110 -82 -146c54 -36 82 -91 82 -146c0 -31 -9 -61 -26 -89c8 -9 12 -24 17 -39c0 -5 0 -10 2 -12
c3 -5 5 -12 3 -19c-3 -10 -13 -19 -26 -19h-2c-20 5 -23 19 -28 38v4c-3 0 -6 -2 -7 -2c-7 -4 -14 -7 -20 -11c-34 -21 -78 -35 -131 -37h-4h-259z" />
    <glyph glyph-name="C" unicode="C" 
d="M322 0h-5c-60 1 -116 22 -159 58c-5 4 -10 9 -15 13c-18 -11 -35 -9 -43 -7c-27 2 -43 18 -49 43c0 13 0 29 3 43c-1 7 0 17 2 23c-13 6 -19 19 -17 31c7 19 26 30 43 26v212v6c8 142 124 216 240 216c32 0 63 -5 93 -16c6 4 14 7 22 8c20 0 40 -13 43 -39v-5
c46 -36 78 -90 82 -162c5 -6 7 -13 7 -21c4 -29 -16 -54 -46 -54c-36 -4 -46 -10 -52 -14v-10c-4 -24 -10 -78 -91 -88c-11 -5 -21 -5 -26 -5v0c-77 0 -108 54 -123 79c-15 4 -31 14 -41 28c-10 25 0 54 26 69c30 10 56 5 82 -15c10 -9 20 -24 25 -34c14 -29 14 -35 40 -29
c5 0 6 5 6 9c10 44 26 83 110 102c-6 29 -18 53 -38 72c-12 -29 -28 -56 -55 -60h-4v0c-19 0 -35 17 -39 33c-4 22 4 34 16 42c4 9 8 18 11 23c-16 4 -32 6 -48 6c-79 0 -159 -47 -159 -151v-200v-4c14 11 32 17 56 15c13 1 46 -7 57 -47c5 -19 2 -38 1 -58
c-1 -13 -1 -40 5 -48c6 -1 12 -4 17 -8c7 -1 15 -1 23 -1c80 0 160 47 160 151h81v0c0 -153 -120 -232 -241 -232zM206 124v1v10c1 14 3 32 0 42c-7 -4 -14 -19 -19 -31c6 -8 12 -16 19 -22z" />
    <glyph glyph-name="D" unicode="D" 
d="M450 459c3 0 7 0 9 9l1 2c-7 18 -15 35 -25 49c0 -18 1 -36 4 -46c2 -14 5 -14 11 -14zM163 211v-6c-1 -3 -1 -7 -2 -10v-114h171c34 0 63 14 88 42h-3c-13 4 -26 12 -39 20c-6 5 -19 13 -26 16c-9 -16 -22 -19 -35 -16c-19 8 -29 29 -22 53c6 24 20 36 29 40
c12 8 28 8 42 4c-4 12 -4 25 3 36c9 21 28 28 45 17c9 -4 16 -20 16 -33c2 -3 6 -8 10 -12c9 -8 22 -16 28 -28c9 35 14 73 14 112c0 23 -2 45 -5 67c-10 -5 -19 -6 -27 -6h-6c3 0 3 0 -3 1c-17 3 -48 11 -59 59c-6 22 -6 52 -6 77c0 12 0 30 -2 44c-8 4 -17 7 -26 8
c-7 -12 -12 -24 -19 -38c-6 -14 -13 -29 -22 -39c-17 -30 -40 -26 -49 -23c-18 6 -27 23 -22 39c4 17 15 23 27 26c4 7 9 16 12 26c1 3 3 7 5 10h-119v-156c10 2 20 0 30 -6c18 -10 27 -28 23 -50l9 -5v0c18 -9 46 -28 50 -59c5 -23 -4 -46 -27 -68c-23 -24 -50 -37 -78 -28
h-5zM81 0v156c-13 13 -17 33 -9 50v5h-4c-10 9 -33 23 -33 50c0 32 23 50 37 59l9 6v338h260c2 0 4 0 7 -1c7 0 14 -1 21 -2c4 -1 8 -2 13 -3c4 -1 7 -2 11 -4c32 -11 62 -30 87 -59v1c15 46 44 50 56 46c18 0 31 -16 31 -33c-4 -19 -16 -28 -31 -33c-3 -9 -5 -35 -8 -51
c0 -2 -1 -4 -1 -6c23 -54 36 -118 36 -187c0 -84 -19 -162 -53 -220c-39 -67 -96 -106 -162 -111c-2 -1 -5 -1 -7 -1h-260z" />
    <glyph glyph-name="E" unicode="E" 
d="M283 421c3 6 3 16 3 19c3 13 5 26 10 38c-26 3 -48 17 -58 42c-7 19 -7 39 -12 60v3h-62v-146c8 8 17 13 27 16c30 11 59 -9 78 -22c3 -4 9 -7 14 -10zM241 373c-3 2 -6 4 -8 6c-9 4 -19 13 -25 13c-5 -4 -11 -11 -16 -19h49zM251 81v1c-1 17 8 35 26 46
c0 13 -14 53 -23 75c-7 30 -14 60 -19 89h-71v-211h87zM83 0v324c-5 6 -10 13 -14 19c-3 4 -7 11 -9 13c-11 4 -20 17 -20 29c0 20 12 33 32 33c4 0 8 -1 11 -2v248h118c6 10 18 16 34 16c7 0 26 -1 42 -16h288v-33c3 -6 6 -12 7 -19c0 -21 -7 -38 -24 -41
c-8 -9 -11 -26 -15 -35c-12 -29 -28 -58 -56 -63h-3v0c-20 0 -35 18 -40 34c-4 21 5 34 16 42c4 9 8 17 12 25l3 9h-161c3 -13 3 -34 6 -40c12 -2 23 -8 31 -16c0 6 2 12 6 18c9 15 32 18 45 9s16 -23 13 -36c3 -7 7 -19 9 -26c7 -10 10 -19 14 -26c6 -26 -4 -42 -14 -48
c-9 -9 -29 -13 -47 3c-5 3 -11 10 -14 13c0 0 0 3 -3 3v-6c-1 -3 -1 -6 -2 -9c18 -4 37 -13 56 -34c5 -4 9 -10 13 -15h2v-2c16 -21 29 -47 43 -71c13 -22 31 -57 44 -66c5 14 -9 49 -18 70c-9 27 -17 53 -22 80c-4 57 36 80 49 84c26 9 49 0 57 -22c9 -22 0 -45 -17 -58
c4 -13 13 -40 17 -57c9 -27 22 -57 22 -88c5 -58 -30 -85 -53 -93c-21 -9 -62 -18 -106 26c-17 23 -35 54 -48 80c-5 10 -12 23 -19 36h-45c4 -18 13 -39 19 -62c9 -31 18 -63 18 -89c2 -27 -2 -46 -10 -60h215v-81h-482z" />
    <glyph glyph-name="F" unicode="F" 
d="M165 0h-81v664h481v-81h-400v-173h140c5 13 12 19 27 34c-22 5 -38 28 -47 46c-8 28 8 58 39 66c22 9 43 2 54 -17c14 1 30 9 41 13c33 11 68 22 96 9c21 -7 28 -21 36 -36c7 -15 10 -55 -31 -89c-17 -11 -35 -22 -51 -26h23v-47c20 -3 39 -10 52 -26c2 -11 18 -33 5 -60
c-4 -11 -4 -17 -11 -25v0c-12 -12 -35 -20 -56 -13c-11 5 -18 11 -26 18c-3 4 -8 0 -8 0c-25 3 -55 2 -82 5c-36 12 -59 37 -69 67h-132v-51c2 -1 5 -2 7 -3c28 -19 23 -52 23 -83v-20c5 0 8 4 8 4c25 12 60 27 88 4c32 -28 12 -67 0 -95c-4 -8 -8 -13 -8 -20
c0 -13 -4 -24 -12 -33c-8 -8 -20 -11 -28 -11v0c-12 0 -20 3 -28 11c-15 17 -15 36 -8 56c-13 -2 -28 -5 -42 -2v-86zM453 50c-4 -9 -17 -17 -30 -17v0c-4 0 -6 3 -13 3c-17 5 -23 20 -17 32v3h-3c-7 5 -23 13 -23 27c0 18 16 28 26 33c14 8 26 9 40 8c-7 11 -7 24 3 37
c7 12 27 18 43 9c12 -4 20 -14 16 -27c4 0 6 0 6 -2c14 -6 34 -16 36 -33c4 -12 -2 -25 -19 -37c-17 -13 -36 -20 -55 -15h-4c0 -8 -4 -12 -6 -21z" />
    <glyph glyph-name="G" unicode="G" 
d="M324 0h-5c-60 1 -115 22 -158 58c-48 39 -73 94 -77 160v5v219v6c3 52 21 95 47 128c-20 12 -37 28 -40 50c0 20 14 40 39 44c21 0 38 -8 41 -24c7 -6 20 -10 29 -13c38 21 81 31 124 31c58 0 116 -18 161 -54c0 5 2 10 5 16c9 15 32 18 45 9c14 -9 16 -23 14 -36
c2 -7 6 -19 9 -26c7 -10 9 -19 13 -26c6 -26 -4 -42 -13 -48v0c5 -21 8 -43 8 -67h-81c0 13 -1 24 -3 35c-7 -14 -16 -26 -34 -30c-29 -9 -52 7 -71 23c-9 4 -19 13 -26 13c-9 -7 -23 -29 -29 -42c-14 -22 -25 -42 -45 -46c-4 -2 -7 -2 -10 -2v0c-25 0 -42 22 -55 41
c-3 4 -6 11 -9 13c-11 4 -20 17 -20 29c0 20 13 33 33 33c22 0 35 -20 48 -35h3c17 28 36 61 67 70c30 11 59 -9 79 -22c2 -4 9 -7 13 -10c3 6 3 16 3 19c2 9 4 17 6 26c-29 24 -68 36 -111 36c-19 0 -37 -3 -55 -8v0v-3v-5c-3 -18 -19 -31 -34 -35c-13 -3 -23 0 -31 5
c-24 -25 -39 -59 -39 -105v-182c12 6 29 10 48 -6c8 -11 16 -21 25 -32c-5 18 -11 39 -11 62c0 32 11 57 34 72c11 6 32 12 55 -9h26c-6 42 14 64 23 66c13 11 31 4 39 -14c7 -14 3 -33 -8 -43c1 -3 2 -6 2 -9h168v-114v-6c-8 -143 -125 -217 -242 -217zM256 111h-4
c-8 1 -16 5 -25 15c-11 7 -20 21 -29 36c-6 3 -11 14 -37 21c6 -3 14 -4 12 -3c21 -68 87 -99 151 -99c81 0 161 47 161 151v24h-63c1 -4 1 -8 2 -12c7 -43 -17 -64 -25 -72c-9 -7 -34 -18 -63 15c-12 10 -21 33 -29 51c-5 10 -17 31 -23 38c0 -10 6 -32 9 -43
c9 -36 22 -82 -9 -111c-5 -4 -14 -11 -28 -11z" />
    <glyph glyph-name="H" unicode="H" 
d="M164 443l2 2c2 1 5 3 7 4l5 1c4 7 7 13 11 18c-2 2 -4 3 -7 4c-7 6 -13 12 -18 18v-47zM484 410v65c-10 -3 -20 -2 -28 1c5 -13 8 -30 6 -51l-3 -15h25zM425 283c10 0 27 22 37 33c4 4 8 9 12 13h-44c-7 -21 -12 -42 -5 -46zM315 290l-5 -3c-20 -9 -46 -4 -65 2
c-15 8 -25 23 -28 40h-53v-89c4 4 9 6 15 8c32 12 58 -24 71 -45l3 -6c6 7 15 11 23 14c4 3 8 8 12 16c8 9 18 20 29 28c-2 9 -2 19 -2 35zM164 0h-81v44l-1 -1c-8 -3 -14 -3 -17 -3v0c-14 0 -23 3 -29 16c-7 12 -7 33 0 45c0 4 -4 17 -4 20c0 13 -3 21 -3 33
c0 37 16 49 26 53c10 6 19 4 28 -1v361c-11 2 -22 10 -29 27c-10 16 -7 35 8 45c7 3 14 5 21 4v21h81v-16c12 -4 25 -11 39 -25c45 -45 19 -78 9 -90c0 -4 4 -6 10 -10c6 -6 10 -13 11 -20c24 10 50 12 77 12c0 0 8 5 8 10l1 3c-7 10 -14 19 -13 24c-3 3 -5 5 -7 6
c-27 4 -99 29 -80 86c8 28 40 42 80 36c26 -4 45 -18 52 -36l3 -1c29 -9 95 -35 100 -99c10 -5 16 -8 25 -5c2 1 3 3 5 7v118h81v-51c3 -4 6 -7 9 -11c4 -3 7 -10 10 -12c8 2 18 -7 21 -23c1 -16 -4 -35 -14 -38c-10 -6 -19 -2 -26 5v-169c13 -6 31 -14 39 -36
c5 -12 10 -17 10 -29v-4c-2 -17 -14 -38 -32 -48c-6 -2 -12 -3 -17 -4v-244h-81v182c-2 -1 -3 -3 -5 -4c-7 -3 -15 -6 -22 -8c6 -20 2 -43 -4 -67c0 -5 -3 -18 -3 -23c3 -12 3 -30 -4 -43c-3 -14 -20 -22 -31 -22v0c-8 0 -15 5 -20 8c-22 14 -22 36 -22 62
c-35 -22 -55 -5 -62 5c-12 8 -15 21 -15 39c-6 -6 -13 -6 -15 -6c-4 -7 -10 -12 -17 -14c-30 -13 -49 21 -62 40c-3 5 -6 9 -10 13c-4 -13 -7 -20 -10 -28c-5 -18 -11 -33 -18 -45v-89z" />
    <glyph glyph-name="I" unicode="I" 
d="M252 367c5 0 11 5 17 12c-4 14 -7 28 -9 43c-8 -23 -16 -50 -8 -55zM414 81l1 5c2 16 11 30 18 41c12 20 21 32 8 59c-11 26 -35 44 -63 63c-5 3 -9 7 -14 11v-179h50zM83 0v76c-11 -2 -23 5 -31 20c-8 21 -2 46 12 59c22 17 40 17 55 4c6 -4 12 -9 16 -17v25
c0 17 3 42 27 59c24 21 45 16 54 8c16 -8 22 -25 28 -38l3 -3c12 0 22 -9 27 -30c6 -21 -3 -41 -21 -50c-21 -12 -37 0 -49 17c3 -8 3 -15 3 -21c0 -9 -2 -19 -6 -28h82v173c-36 -10 -71 -2 -97 18c-46 61 -44 60 -44 102c-21 -12 -50 -7 -70 0c-27 15 -38 49 -21 80
c10 22 31 33 54 27c11 11 15 28 21 42c11 21 22 44 38 60h-81v81h482v-81h-201v-129c6 0 12 1 18 0c4 -2 9 -4 15 -9c-1 9 0 17 1 24c3 3 3 11 3 13c-5 9 -5 20 0 32c8 13 25 16 39 8c11 -5 17 -20 17 -31c11 6 25 11 38 3c14 -6 17 -20 20 -34c11 9 25 12 39 3
c19 -11 16 -36 16 -56c-3 -6 -3 -11 -3 -14c3 -6 6 -14 3 -22c-5 -12 -13 -20 -28 -20h-4l-4 3c-13 5 -19 17 -22 30c-11 -8 -22 -10 -39 -5c-14 8 -16 22 -16 37c-8 -5 -15 -9 -23 -10c4 -7 7 -12 7 -22v-4c-2 -16 -14 -37 -32 -47c-6 -2 -11 -3 -16 -3
c12 -10 24 -19 37 -28c32 -26 67 -49 88 -92c27 -53 4 -90 -12 -113c-5 -6 -12 -13 -12 -16h24c11 2 27 3 43 0h4v-1c11 -3 22 -9 29 -20c8 -16 0 -37 -20 -46h-9v-14h-482z" />
    <glyph glyph-name="J" unicode="J" 
d="M483 583h-37c19 -30 20 -64 20 -83v-14c3 0 8 -2 17 -6v103zM105 315c-2 0 -4 -3 -7 -3v0c-9 0 -18 8 -21 17c-4 11 0 23 12 27v2c-3 7 -7 16 -3 28c3 10 10 24 31 28c13 5 25 5 34 0c15 -9 19 -23 22 -32v-5c11 3 25 -4 27 -19c2 -11 -7 -22 -21 -25
c-22 -4 -37 5 -44 16v-4c-2 -12 -9 -24 -30 -30zM323 0h-5c-60 1 -116 22 -159 58c-19 16 -34 34 -46 54c-9 -8 -20 -13 -34 -13v0c-20 0 -33 14 -33 33c0 18 10 31 28 35c2 3 9 9 14 14c-3 16 -5 33 -5 51v41h81v-38c28 -2 48 -26 65 -41c2 -8 7 -10 12 -18
c5 8 11 18 14 25c14 27 35 57 64 63c27 11 48 -3 64 -16c0 20 5 44 25 54c23 10 46 -3 70 -18c0 0 0 -2 3 -2v20c0 5 1 9 2 13v28c-99 21 -111 85 -111 148v9h-10c-14 6 -19 6 -24 0c0 0 -5 -14 -10 -20c-3 -26 -28 -99 -85 -79c-29 7 -42 39 -37 79c5 26 18 46 37 52l1 3
c4 12 10 30 21 48h-36v81h335v-432c0 -153 -120 -232 -241 -232zM323 81c73 0 146 39 158 126c-10 3 -19 8 -29 14c0 -24 -5 -54 -34 -65c-27 -10 -51 14 -64 28c-8 2 -15 13 -17 17c-8 -7 -18 -25 -24 -34c-17 -27 -34 -58 -65 -61c-8 -1 -14 0 -21 2c28 -18 62 -27 96 -27
z" />
    <glyph glyph-name="K" unicode="K" 
d="M82 0v477c-5 3 -10 6 -14 9c-21 20 -23 54 1 77c4 5 8 9 13 12v89h81v-46c20 22 41 42 68 44c22 5 35 -4 49 -13s36 -42 18 -93c-10 -20 -21 -38 -35 -51c-11 -20 -42 -60 -34 -69c10 -2 30 14 43 21l4 3l167 191l3 3l9 10h15h7h87l-72 -82h-1l-102 -117
c6 -7 12 -17 13 -31c2 -12 6 -17 4 -28v0c-5 -16 -21 -34 -43 -39c-12 -2 -20 1 -31 3c-3 1 -25 -11 -47 -23l-12 -15l105 -120c14 31 27 72 56 81c32 11 58 -25 71 -46c4 -8 7 -12 11 -16c12 -4 22 -13 25 -28c4 -25 -6 -45 -22 -50c-30 -13 -49 21 -62 41
c-3 4 -6 9 -10 12c-4 -12 -7 -20 -10 -28c-3 -9 -5 -17 -8 -24l63 -72v0l72 -82h-109l-30 34v0l-72 83c-4 -10 -9 -20 -16 -30c-7 -3 -14 -3 -16 -3v0c-15 0 -24 3 -30 16c-7 12 -7 33 0 45c0 4 -4 17 -4 20c0 13 -3 21 -3 30l-85 97h-36v-292h-81z" />
    <glyph glyph-name="L" unicode="L" 
d="M81 0v162c-12 11 -15 30 -12 44c4 8 8 14 12 18v140c-8 3 -16 7 -22 12v0c-6 6 -7 15 -17 24c-18 31 -4 71 28 85l4 6l-5 3c-3 20 -17 59 9 87l3 3v80h81v-53c5 -1 9 -1 13 -2c32 -2 56 -15 74 -37c10 35 31 59 68 70c31 16 72 -1 86 -37c11 -29 6 -57 -19 -77l5 -14
c13 -27 28 -76 4 -113c-17 -30 -47 -45 -93 -50c-50 -1 -93 10 -116 48l-5 3c-5 -6 -11 -10 -17 -14v-112c20 11 41 16 61 8c17 -10 28 -32 18 -56c-10 -17 -25 -29 -40 -24c-12 -4 -24 -16 -31 -22c-3 -2 -5 -4 -8 -6v-95h143c1 2 3 3 4 5c20 30 21 41 21 48c0 0 -3 5 -7 7
c-15 19 -52 59 -8 127c4 11 9 18 13 23v0c49 58 110 47 138 43c14 9 32 14 49 13c25 -8 41 -35 36 -64c-12 -29 -32 -46 -64 -53c-13 -1 -31 0 -42 2c-33 8 -33 8 -49 -11c4 -4 0 -9 0 -9l4 -2c24 -32 42 -66 17 -129h146v-81h-482z" />
    <glyph glyph-name="M" unicode="M" 
d="M165 322l2 4c3 7 8 13 13 19l-15 49v-72zM484 205v189l-54 -178h1c19 5 36 -1 53 -11zM165 0h-81v187c-16 14 -22 34 -15 55c2 12 8 21 15 28v262c-9 3 -17 10 -24 20c-7 18 -1 44 17 55c2 1 5 2 7 2v55h81l17 -58c4 23 13 47 39 56c39 14 63 -23 82 -48
c5 -7 7 -14 13 -17c11 -7 19 -16 22 -26c3 -12 0 -24 -4 -30v0c-5 -11 -13 -16 -24 -18c-22 -5 -39 4 -53 21c-6 -20 -14 -43 -38 -51l-2 -1l36 -120c14 -1 27 -4 39 -9c27 -5 47 -36 37 -64c-5 -26 -21 -41 -40 -45l27 -91c3 9 8 17 18 24c2 1 4 2 6 2l51 167
c-2 -1 -3 -3 -4 -5c-7 -4 -13 -4 -16 -4v0c-15 0 -24 4 -30 17c-7 11 -7 33 0 45c0 4 -3 17 -3 19c0 14 -4 22 -4 34c0 37 16 48 26 53c23 12 42 -12 62 -36c3 -5 3 -5 4 -6l58 191h81v-168l1 -1c13 -4 23 -13 25 -29c4 -24 -6 -45 -21 -49l-5 -2v-269c1 -1 3 -3 4 -5
c10 -10 8 -28 3 -38l-3 -4c-1 -1 -3 -2 -4 -3v-96h-81v70c-8 -15 -21 -19 -29 -20c-13 -6 -26 -2 -41 7c2 -7 -2 -14 -5 -20c-9 -9 -23 -13 -36 -11l-8 -26h-81l-57 190c-5 -5 -10 -9 -17 -12c-17 -11 -32 -17 -45 -17v-161z" />
    <glyph glyph-name="N" unicode="N" 
d="M367 502c-4 -11 -20 -20 -36 -20v0c-3 0 -7 3 -16 3c-19 6 -27 24 -19 40v2h-4c-8 6 -27 16 -27 34c0 21 19 34 31 39c16 10 32 12 48 10c-9 15 -9 30 3 45c9 16 32 22 52 12c15 -5 23 -17 20 -33l7 -3c16 -6 39 -19 43 -40c4 -15 -4 -30 -23 -46
c-20 -15 -44 -24 -67 -18h-4c0 -9 -4 -15 -8 -25zM242 312c-1 23 -2 48 3 71l-80 129v-160c40 12 64 -13 77 -40zM165 0h-81v664h81l131 -210l12 6c16 10 63 23 104 -17c18 -19 30 -45 43 -70c5 -13 18 -35 29 -47v338h81v-664h-81l-34 54c-9 -1 -19 -2 -29 -4
c-11 0 -29 0 -35 -3c-6 -16 -16 -28 -32 -28c-21 0 -34 15 -34 40c0 9 4 45 44 60c13 6 28 6 42 7l-59 94c-11 -45 -43 -58 -56 -62c-34 -17 -65 -8 -90 18c-9 17 -20 36 -27 55c-3 4 -6 9 -9 15v-246zM476 165l2 2l6 3v50c-16 -2 -34 1 -51 15z" />
    <glyph glyph-name="O" unicode="O" 
d="M212 130c26 -33 62 -49 111 -49h8c-3 18 3 37 15 48c22 17 40 17 55 4c6 -4 12 -9 15 -17v25c0 17 4 42 27 59c10 8 19 13 27 14c8 33 12 73 12 118c0 80 -12 142 -37 184c-4 -13 -12 -24 -24 -31l-4 -1l-5 -1c-17 -4 -34 6 -43 18c-11 20 -7 35 1 46c1 9 1 19 2 27v2
c-15 5 -31 7 -49 7h-6c-46 -1 -80 -17 -105 -48c-4 -4 -7 -9 -10 -14c17 4 31 -1 45 -4c16 -7 49 -35 43 -92c-5 -23 -9 -46 -21 -62c-6 -23 -28 -74 -16 -80c10 0 28 22 37 33c27 30 54 58 93 53c11 -6 38 -11 49 -40c5 -12 11 -17 11 -29v-4c-2 -17 -15 -38 -33 -48
c-12 -4 -21 -4 -33 -5c-6 0 -6 -6 -6 -6c-20 -16 -43 -41 -64 -59c-44 -21 -88 -14 -120 9l-8 11c8 -28 19 -50 33 -68zM422 8h-4c-4 1 -9 3 -13 6c-29 -11 -58 -14 -82 -14h-3c-85 1 -222 41 -237 286l-9 3c-27 15 -39 49 -22 80c7 16 19 25 33 28c21 231 155 267 238 267
c20 0 44 -2 68 -9c4 6 10 11 17 15c19 6 43 1 54 -22c5 -12 6 -23 4 -32c54 -45 97 -129 97 -284c0 -69 -9 -124 -23 -168c7 -4 13 -13 16 -27c6 -21 -3 -42 -21 -51c-13 -7 -24 -5 -33 1c-5 -6 -9 -12 -14 -18c-4 -18 -15 -36 -32 -49c-13 -8 -22 -12 -34 -12z" />
    <glyph glyph-name="P" unicode="P" 
d="M237 275c10 -2 30 14 43 21c30 21 62 39 96 25c7 -7 27 -17 33 -40c47 27 70 78 74 130c-2 7 -2 15 0 23c-1 4 -1 8 -1 11c-19 -4 -40 -7 -59 9c-28 19 -28 59 -28 95v22c-18 8 -38 12 -62 12h-169v-134c22 25 45 50 75 52c22 5 35 -4 49 -13c13 -9 36 -42 18 -93
c-10 -20 -21 -39 -35 -51c-11 -20 -42 -60 -34 -69zM83 0v172c-1 11 -2 23 -4 27c-18 4 -38 16 -38 33c0 16 15 33 38 33h3h1v55c-2 2 -5 3 -7 5c-21 20 -23 54 0 76c2 3 5 6 7 8v255h259h5c89 -5 151 -52 185 -115c13 1 26 -2 38 -12c32 -28 12 -67 0 -95
c-2 -5 -5 -8 -6 -12v-7c0 -116 -74 -233 -217 -241h-5h-54c-9 -5 -19 -10 -28 -14c-31 -7 -60 0 -81 14h-15v-47c0 -3 1 -6 2 -8c16 -6 27 -16 27 -32c0 -18 -11 -30 -29 -33v-62h-81z" />
    <glyph glyph-name="Q" unicode="Q" 
d="M516 -18l-24 33l-63 88l-136 -98c-6 -4 -13 -6 -20 -7v0h-2h-5h-93c-50 0 -89 40 -89 89v317c-8 3 -15 11 -18 20c-6 16 0 32 17 39v1c-4 10 -10 23 -4 39c1 4 3 8 5 12v58c0 50 39 89 89 89h303c49 0 89 -39 89 -89v-352c0 -13 -6 -26 -17 -33l-53 -38l63 -88l23 -33
l-32 -23l-1 -1h-1zM484 573l-1 4c-2 3 -4 4 -7 4h-89v-29v-20c4 0 8 4 8 4c24 12 59 27 87 4l2 -2v35zM256 309l-2 5c-8 19 -4 42 2 60c15 26 47 36 75 20c22 -9 32 -29 26 -50v0c11 -10 27 -15 38 -21c31 -14 64 -31 74 -61c6 -10 7 -19 6 -27l9 7v207c-1 -1 -1 -3 -2 -4
c-3 -8 -8 -13 -8 -20c0 -13 -3 -24 -12 -33c-8 -8 -19 -11 -27 -11h-6c-9 1 -15 4 -22 11c-16 17 -16 36 -8 56c-20 -3 -44 -8 -63 8c-28 20 -28 60 -28 96v28l-1 1h-134l-4 -1c-3 -1 -4 -4 -4 -7v-30l3 -1c20 -13 26 -33 30 -45v-6c0 4 0 6 3 1c20 5 95 22 35 -28
c3 -14 -9 -30 -29 -34c-18 -3 -32 -1 -42 5v-163c54 39 54 37 91 37zM322 125l60 43l-2 3c-20 6 -40 10 -55 20c-22 5 -69 26 -75 15c0 -10 21 -26 32 -36c15 -14 31 -28 40 -45zM165 87l1 -4c1 -2 4 -4 7 -4h40v10c0 6 -6 6 -6 6c-12 15 -28 31 -42 47v-55z" />
    <glyph glyph-name="R" unicode="R" 
d="M302 496c10 0 19 19 28 33c12 20 25 39 42 49c-12 3 -26 5 -40 5h-170v-63c12 13 26 24 41 25c21 0 39 -11 58 -27c14 -9 30 -22 41 -22zM332 263c9 0 18 1 26 2c15 17 31 18 39 15l7 -1c18 9 32 22 44 38c-7 6 -10 6 -16 6c0 0 -8 -3 -16 -8c-13 -8 -25 -16 -47 -16
c-18 0 -44 3 -59 37c-13 21 -9 46 11 58c18 8 39 8 51 -8c22 13 61 36 108 10c1 9 2 18 2 27c0 22 -4 44 -11 65l-5 -2c-20 -9 -36 7 -50 20c-11 12 -19 19 -26 14c-6 -2 -15 -18 -22 -29c-15 -23 -34 -53 -61 -57c-25 -3 -49 16 -69 31c-13 9 -26 19 -32 19
c-8 0 -19 -16 -28 -28c-5 -7 -10 -14 -16 -20v-173h2c18 25 43 43 79 33c19 -5 32 -17 40 -33h49zM311 97c4 0 7 0 10 9c5 17 9 40 9 62c1 5 1 9 2 14h-35v-14c0 -22 0 -45 3 -57c3 -14 6 -14 11 -14zM81 0v449l-3 4c-4 6 -14 15 -16 19c-14 0 -23 14 -23 30
c0 18 9 32 23 32c7 0 13 -2 19 -6v136h260h5c50 -3 91 -19 124 -43c21 10 36 -11 50 -26c0 -3 3 -6 6 -9c5 0 13 -7 16 -12c7 -13 4 -28 -3 -39c16 -35 24 -73 24 -112c0 -35 -7 -70 -20 -103c6 -30 -12 -52 -21 -63c0 -5 5 -9 13 -13c17 -17 22 -41 5 -59
c-9 -10 -22 -17 -35 -17l-5 1c-7 2 -13 6 -19 8c-14 12 -25 23 -32 34c-5 -3 -10 -5 -15 -7l118 -204h-94l-74 128c-2 -16 -5 -31 -10 -44c-14 -46 -44 -52 -63 -52h-5c-18 2 -51 9 -63 59c-6 22 -6 52 -6 77v14h-47c-6 -14 -12 -29 -21 -39c-2 -4 -5 -7 -7 -10v-133h-81z
" />
    <glyph glyph-name="S" unicode="S" 
d="M472 345c-4 0 -4 2 0 20c0 7 1 12 4 17c-2 7 -3 11 -3 16v12l4 20l-15 36v5c1 14 6 26 12 37c-4 9 -10 18 -17 26c-22 -13 -43 -24 -63 -15c-9 3 -18 13 -27 33v12l1 15c-15 3 -30 4 -46 4s-32 -2 -48 -5c3 -5 4 -10 5 -16c5 -24 -4 -46 -27 -69c-11 -11 -22 -19 -34 -25
c12 -4 21 -11 29 -20c8 25 23 43 52 50c24 11 56 -1 67 -26c9 -21 4 -41 -16 -54l5 -11l2 -4c5 -8 9 -20 10 -32c12 -1 23 -3 33 -5c23 8 46 -4 68 -19zM415 148c5 1 6 6 6 6c15 17 35 39 61 40c-3 25 -16 50 -42 68c-3 -18 -11 -35 -32 -43c-11 -4 -22 -2 -32 2
c15 -13 22 -35 31 -55c4 -8 5 -11 8 -18zM162 195v-5c4 -75 85 -109 160 -109c13 0 26 1 39 3c-11 15 -19 33 -27 51c-3 7 -7 18 -11 25c-11 8 -18 23 -17 41c6 19 25 36 47 32l9 -3c-7 6 -13 12 -18 17c-7 2 -14 13 -17 17c-7 -7 -17 -25 -23 -34c-18 -27 -35 -58 -65 -61
c-34 -4 -54 24 -71 40l-6 6v-20zM518 27l-5 -2c-8 -2 -16 -1 -25 2c-6 2 -10 5 -14 9c-37 -22 -84 -36 -143 -36h-2h-7h-5c-59 1 -113 17 -156 46s-70 70 -77 118c-5 -1 -9 -2 -14 -2v0c-20 0 -34 14 -34 33c0 18 10 31 28 35c3 3 9 9 16 17c17 23 41 51 71 51
s50 -25 68 -41c3 -8 7 -10 13 -18c4 8 10 18 13 25c5 10 11 20 18 29c-18 1 -35 6 -48 14c-11 4 -22 8 -32 13c-7 -5 -15 -9 -24 -15c-17 -10 -44 -8 -60 5v0c-3 3 -4 10 -13 16c-14 22 -3 50 22 61v0c-3 5 -6 10 -8 15c-21 9 -31 36 -21 59v4h-5c-10 9 -32 24 -32 51
c0 32 22 50 37 59c15 12 30 16 45 15c2 3 4 5 6 7c-6 20 -4 40 8 60c9 23 36 32 59 19c11 -6 18 -15 22 -26c27 9 59 14 94 14h2h7c58 0 117 -16 162 -47c4 2 7 3 10 4c30 11 41 -10 51 -22c18 -23 15 -45 6 -64c8 -20 12 -42 12 -66v-41h-40l-4 -24c12 -4 22 -14 24 -26
c0 -10 0 -16 -3 -23v-8c0 -17 2 -42 -10 -61c18 -25 29 -53 32 -82c1 -3 1 -6 1 -9v-4v-5c0 -31 -9 -61 -26 -89c-1 -5 -1 -10 1 -14c4 -12 6 -24 1 -34c-4 -11 -13 -19 -21 -22z" />
    <glyph glyph-name="T" unicode="T" 
d="M433 470l-1 2c-2 5 -3 12 0 19c3 10 10 24 30 28c8 3 16 4 23 4v60h-120v-78c10 -8 24 -13 33 -17c12 -6 24 -12 35 -18zM259 473l-2 4c-4 9 -5 19 -5 29c-18 21 -22 49 -22 77h-27c-1 -3 -3 -7 -4 -9c-2 -14 -12 -46 -34 -56v-72c3 -1 6 -3 9 -5c47 34 49 32 85 32z
M284 335v35c-15 4 -28 6 -31 1c0 -10 20 -26 31 -36zM254 145c7 1 19 6 30 10v15c-10 -8 -25 -20 -30 -25zM284 0v93c-6 -2 -13 -3 -20 -4c-33 -5 -59 2 -76 24c-9 10 -20 34 9 64c10 11 22 22 36 31l-2 1c-14 -7 -30 -13 -44 -15c-42 -12 -67 5 -70 13c-14 13 -8 30 8 40
c13 10 32 9 44 -2c10 5 28 13 35 17c-15 23 -37 45 -48 58c-12 24 -15 48 -11 70c-4 0 -7 1 -10 2h-3c0 -6 -3 -9 -4 -14c-2 -7 -11 -12 -20 -12c-2 0 -4 2 -9 2c-11 3 -15 14 -11 22v2h-2c-4 2 -15 8 -15 18c0 9 7 15 13 19v235h80c15 17 38 30 73 20c15 -5 26 -12 35 -20
h294v-236h-81v21c-2 2 -4 4 -5 6v-5c-1 -7 -4 -14 -10 -20l1 -3c11 -20 6 -35 0 -51c-5 -15 -31 -46 -84 -41c-7 2 -15 3 -22 5v-68c17 7 37 6 48 -9c27 16 78 46 138 -13c60 -58 25 -101 11 -117c0 -4 6 -8 14 -12c17 -17 21 -41 5 -59c-10 -11 -22 -17 -35 -17v0
c-9 0 -16 6 -24 9c-70 59 -49 100 -27 130c0 3 -4 3 -4 8c-9 8 -12 8 -18 8l-16 -8c-13 -8 -25 -16 -48 -16c-13 0 -30 2 -44 15v-11c15 0 29 -3 42 -13c4 -6 12 -13 14 -27c1 -10 -1 -18 -11 -30c-5 -13 -18 -24 -31 -34c-2 -5 -9 -10 -14 -15v-61h-81z" />
    <glyph glyph-name="U" unicode="U" 
d="M566 0h-81v54c-44 -36 -102 -54 -160 -54h-5c-49 1 -96 15 -134 40c-17 1 -35 1 -51 2c-43 15 -67 48 -74 85c9 55 11 66 25 82c0 2 0 5 -1 8v5v9c-14 10 -24 26 -31 39c-7 26 5 54 31 64v212l-4 2c-22 12 -20 40 -17 60c3 2 3 10 3 13c-6 9 -6 20 0 32c7 11 20 15 31 11
h68v-34c10 -7 12 -19 15 -31c11 9 24 12 39 3c19 -11 16 -36 16 -56c-3 -5 -3 -11 -3 -14c3 -6 6 -14 3 -23c-5 -11 -14 -19 -28 -19h-4l-4 2c-14 6 -19 17 -23 31c-3 -3 -7 -5 -11 -6v-193c8 3 16 6 22 8c33 12 68 23 96 9c21 -6 28 -21 36 -36c7 -14 10 -55 -31 -89
c-19 -12 -38 -23 -57 -27c-12 -8 -36 -18 -51 -28c4 -6 7 -13 12 -19c8 0 17 1 23 1c37 3 74 3 96 -26c2 -7 9 -19 10 -36h3c80 0 160 47 160 151v269c-25 6 -26 4 -41 -14c3 -4 0 -8 0 -8l3 -3c31 -39 52 -83 -9 -180c-19 -22 -51 -30 -70 -14c-25 16 -31 47 -11 70
c19 31 21 41 21 49c0 0 -3 4 -7 7c-15 19 -52 58 -8 127c3 10 9 18 12 22l5 5c35 39 75 44 105 42v60h81v-52c23 -8 38 -34 33 -63c-8 -18 -18 -32 -33 -41v-508z" />
    <glyph glyph-name="V" unicode="V" 
d="M439 387l47 104v59c-4 0 -8 1 -11 2c-42 -17 -7 -84 -36 -165zM333 154l27 60c-16 15 -37 24 -61 34c-10 4 -20 9 -31 14l40 -88c2 -2 3 -4 5 -6c8 -3 15 -7 20 -14zM515 68h-3c-25 -4 -96 -30 -130 3l-17 -39c-1 -5 -4 -10 -7 -15l-1 -2c-6 -7 -13 -11 -21 -14v0h-3
c-2 -1 -5 -1 -7 -1h-1v0h-2c1 0 2 0 -2 0c1 0 3 0 -1 0c-11 2 -20 7 -27 15l-1 3c-3 4 -5 8 -6 13l-46 101c-2 -7 -4 -12 -6 -17c-10 -33 -19 -57 -42 -66c-12 -8 -29 0 -39 13c-4 -13 -10 -25 -19 -38c-7 -3 -14 -3 -16 -3v0c-15 0 -24 3 -30 16c-7 12 -7 33 0 45
c0 4 -4 17 -4 20c0 13 -3 21 -3 33c0 37 16 49 26 53c23 13 42 -12 62 -36c3 -4 3 -4 6 -9v5c9 21 18 45 30 62l-111 249c-6 7 -10 16 -10 25v180h81v-66c17 -22 24 -58 34 -100c11 -45 21 -97 46 -133c22 -31 56 -43 91 -57c18 -9 36 -17 54 -28l36 80c-2 -4 -4 -7 -6 -11
c-19 -22 -50 -29 -69 -14c-25 16 -32 47 -12 70c22 49 -38 114 6 183c55 68 109 68 140 65v11h39c7 2 14 3 21 2c2 -1 4 -1 6 -2h15v-10c13 -13 19 -32 15 -52c-4 -10 -8 -18 -14 -25v-93c0 -9 -4 -18 -10 -25l-107 -238c19 -35 8 -67 0 -87c-4 -7 -9 -14 -8 -17
c6 2 15 4 22 5c18 7 54 19 74 -3c11 -14 8 -33 -8 -47c-7 -3 -12 -4 -15 -4z" />
    <glyph glyph-name="W" unicode="W" 
d="M437 5c-7 -3 -14 -5 -16 -5h-5h-5v0c-6 1 -11 3 -16 5c-14 8 -21 23 -20 38l-50 187l-51 -187c1 -15 -6 -30 -20 -38c-6 -3 -14 -5 -16 -5h-5h-5v0c-5 1 -11 3 -16 5c-13 9 -20 24 -19 38l-25 101c-7 -5 -13 -11 -17 -15c-25 -20 -54 -37 -80 -26l-3 1v0
c-17 10 -22 33 -18 49c9 20 21 27 36 28c8 6 15 11 22 16c12 10 26 21 40 28l-59 239c-6 9 -7 19 -5 28v14c-13 -8 -30 -3 -40 17c-8 21 -2 46 13 58c10 8 19 13 27 14v29h-1v40h81v-5c20 12 37 8 45 1c15 -8 21 -25 28 -37l2 -4c12 0 22 -9 27 -29c7 -21 -2 -42 -20 -51
c-22 -12 -37 0 -50 17c4 -8 4 -14 4 -20c0 -22 -12 -46 -33 -63h-1l69 -277l22 83c-12 9 -21 21 -28 32c-3 5 -7 11 -9 14c-11 4 -20 16 -20 29c0 20 12 32 32 32c21 0 33 -16 45 -31l7 26v37h59c3 1 5 2 8 3c30 11 59 -9 78 -21c3 -5 9 -8 14 -10c3 5 3 16 3 19
c6 26 9 55 35 67l3 2v1v6v139h-1v40h81v-31c1 -3 1 -6 1 -9v-120c1 -5 1 -11 0 -14c1 -1 1 -2 1 -5c3 -7 6 -19 8 -24c7 -10 10 -20 14 -26c6 -26 -4 -43 -14 -49c-7 -7 -20 -10 -34 -4l-84 -338c1 -15 -6 -30 -19 -39zM414 195l32 127c-20 1 -38 13 -53 25
c-9 4 -19 13 -23 13z" />
    <glyph glyph-name="X" unicode="X" 
d="M169 0h-95l205 332l-19 31c-4 -1 -7 -2 -11 -3c-14 -1 -32 0 -43 3c-40 10 -55 -8 -45 -23c30 -39 52 -83 -10 -180c-18 -22 -50 -29 -69 -14c-25 16 -31 47 -12 70c20 31 22 41 22 49l-7 7c-15 19 -52 58 -8 127c3 11 9 18 12 22l5 5c34 37 72 43 101 42l-12 20
c-15 5 -31 14 -46 23c-6 5 -17 10 -23 14c-16 -1 -29 7 -39 21c-7 18 -2 44 17 55c6 3 12 4 18 5l-36 58h95l31 -50c5 18 15 35 35 43c40 14 64 -23 83 -49c4 -7 6 -13 13 -17c10 -6 18 -15 21 -26c4 -11 1 -23 -3 -29v0c-6 -11 -13 -17 -25 -18c-21 -6 -38 4 -52 20
c-3 -9 -6 -18 -10 -26l17 -28c54 39 54 37 92 37c-12 20 -6 46 0 66c14 25 47 36 75 20l2 -1l36 58h92l-76 -124c4 -1 7 -3 10 -4c31 -15 64 -32 73 -62c11 -19 6 -34 0 -50c-5 -15 -31 -46 -84 -41c-22 5 -43 9 -60 20c-5 1 -12 4 -19 6l-19 -31c26 -23 48 -48 45 -82
c-6 -8 -10 -28 -27 -40l157 -256h-92l-158 256zM538 131c-11 -3 -23 6 -26 20c-4 23 5 37 17 44h-5c-12 2 -23 9 -30 30c0 3 -2 5 -2 7c0 9 7 18 16 21c12 4 23 0 28 -12h2c7 3 16 7 27 3c10 -3 24 -10 28 -31c5 -13 5 -24 0 -34c-15 -34 -41 -47 -55 -48zM306 21
c-2 -7 -11 -12 -20 -12l-3 1l-6 1c-10 3 -14 13 -10 21v2h-2c-5 3 -15 8 -15 18c0 12 10 19 17 22c9 5 18 7 27 5c-6 8 -6 16 1 25c5 9 18 12 29 7c8 -3 14 -10 11 -18c3 0 5 0 5 -2c9 -4 21 -10 23 -22c3 -9 -2 -17 -13 -25c-10 -9 -24 -13 -37 -10h-2c0 -5 -3 -8 -5 -13z
" />
    <glyph glyph-name="Y" unicode="Y" 
d="M284 0v95l-4 1h-4c0 -13 -5 -22 -9 -36c-5 -19 -23 -32 -42 -32v0c-4 0 -9 4 -18 4c-22 9 -32 37 -22 60v4h-5c-10 9 -32 24 -32 51c0 32 22 50 37 59c18 14 36 18 55 14c-10 23 -10 46 4 68c2 5 4 9 7 12l-145 105c-14 6 -22 19 -22 36v77c-15 3 -22 21 -20 42
c3 14 10 25 20 29v75h81v-24c38 -16 40 -52 40 -69v-8c2 0 8 -3 21 -6c13 -4 23 -21 21 -39c-3 -18 -14 -32 -26 -32h-3c-28 5 -44 16 -53 30v-55l135 -98c22 93 85 105 147 105c0 0 8 5 8 10c6 13 -14 29 -20 33c-26 4 -99 29 -79 86c7 29 39 42 79 37c24 -5 42 -16 50 -32
v62h81v-111c19 -22 31 -52 20 -94c-15 -46 -45 -68 -75 -77l-146 -106v-45c10 -10 18 -22 21 -38c4 -22 -3 -42 -21 -62v-131h-81z" />
    <glyph glyph-name="Z" unicode="Z" 
d="M409 351c25 -5 62 -18 77 -15c-6 12 -40 28 -62 37c-6 3 -11 5 -17 8l-17 -24c7 -2 13 -4 19 -6zM84 0v36c-1 9 1 19 7 27l109 159c-34 -20 -53 -3 -60 7c-12 8 -16 20 -16 38c-5 -5 -12 -5 -19 -5c-20 5 -36 26 -32 52c0 18 16 31 32 35c3 4 7 8 10 16
c20 23 48 53 82 36c8 -5 32 -22 23 -64l3 1c14 20 40 37 81 35l23 33c-1 4 -3 9 -4 13c-11 -9 -21 -11 -38 -6c-14 8 -17 23 -17 37c-14 -9 -25 -14 -41 -6c-23 11 -20 39 -17 59c3 3 3 11 3 14c-6 9 -6 19 0 31c8 14 25 16 38 8c12 -5 17 -20 17 -30c11 5 26 10 39 2
c12 -5 15 -15 18 -27c1 3 2 5 3 7c11 25 34 34 56 24c8 -3 14 -9 19 -16l46 67h-284v-146h-81v227h437h8h36v-36c1 -9 -1 -19 -7 -27l-100 -146c2 -1 5 -3 7 -4c25 -13 56 -24 78 -46c43 -38 38 -82 28 -103c-9 -22 -32 -57 -94 -57c-28 3 -63 12 -90 22
c-13 4 -31 10 -49 14l-23 -34c16 -10 38 -18 59 -30c28 -15 56 -32 75 -50c20 -17 30 -34 35 -49v109h81v-227h-481zM398 81c-1 6 0 11 1 17c-9 10 -47 29 -69 38c-19 12 -38 23 -57 36c-4 -9 -12 -14 -21 -17l-51 -74h197z" />
    <glyph glyph-name="bracketleft" unicode="[" 
d="M157 -90v826h335v-81h-254v-664h254v-81h-335z" />
    <glyph glyph-name="backslash" unicode="\" 
d="M191 664l367 -664h-99l-367 664h99z" />
    <glyph glyph-name="bracketright" unicode="]" 
d="M158 -90v81h254v664h-254v81h335v-826h-335z" />
    <glyph glyph-name="underscore" unicode="_" 
d="M84 0v81h481v-81h-481z" />
    <glyph glyph-name="a" unicode="a" 
d="M571 1c-3 -1 -9 -3 -18 -1h-69v10c-9 3 -17 8 -24 15c-35 -16 -80 -25 -135 -25h-5h-5c-59 0 -106 10 -143 29c-9 -12 -20 -20 -34 -23h-4v0c-20 0 -35 17 -40 34c-3 21 5 34 17 42v1c-14 22 -23 48 -26 78c-8 1 -16 2 -24 5c-26 14 -36 44 -26 68c10 14 26 24 41 29
c12 19 33 56 79 71c36 24 86 37 148 39c-9 13 -10 29 -6 42c8 15 19 25 31 30h-85c3 -14 -5 -29 -23 -44c-20 -15 -44 -24 -67 -18h-4c0 -10 -4 -15 -8 -25c-4 -12 -20 -21 -36 -21v0c-3 0 -7 4 -16 4c-19 5 -27 24 -19 40v2h-4c-8 6 -27 16 -27 34c0 21 19 34 31 39
c16 10 32 12 48 10c-9 15 -9 30 3 45c8 13 26 20 44 15h195h5c33 -1 63 -7 89 -20c30 12 61 18 91 8c28 -13 45 -41 29 -71c-8 -13 -19 -22 -32 -28c15 -33 23 -73 23 -120v0v-1v-16c50 -55 17 -95 5 -110c0 -4 5 -8 13 -12c17 -17 22 -41 6 -59l-8 -8v-2c1 -2 1 -15 2 -20
c10 -9 15 -30 12 -44c-3 -13 -11 -19 -24 -22zM481 337v3c-3 18 -8 34 -15 48c-2 -1 -4 -3 -6 -4c-13 -8 -26 -16 -40 -22c24 -6 44 -15 61 -25zM375 223l-3 3c-5 6 -10 12 -14 21c-9 15 -10 31 -3 44c-9 1 -20 1 -30 1h-5l-155 -106c0 92 61 106 138 106
c9 -16 12 -33 14 -44v-10c5 -4 15 -9 51 -14zM320 81h5h8c3 5 7 9 12 12c1 4 4 10 5 17c1 5 3 11 5 16c-111 17 -172 118 -187 88l-1 -2c-1 -8 -2 -16 -2 -26v-11c7 4 15 8 24 9c20 0 40 -14 43 -39c0 -21 -7 -38 -23 -42l-2 -3c24 -13 60 -19 108 -19h5zM464 132l1 2
c7 14 10 31 10 52c0 17 -2 31 -6 43l-5 -2c-13 -8 -25 -16 -47 -16c-5 0 -11 0 -17 1c11 -9 16 -25 14 -40c18 -4 35 -21 50 -40z" />
    <glyph glyph-name="b" unicode="b" 
d="M348 373c0 10 -18 32 -29 46c-6 8 -13 16 -19 25c-10 -2 -20 -4 -30 -7c11 -9 21 -19 32 -28c15 -13 35 -34 46 -36zM255 185l-5 -1c-10 -2 -20 1 -29 10c-10 10 -11 31 0 46c-3 10 -23 35 -35 48c-7 10 -13 21 -19 31c-1 -8 -2 -16 -2 -25v-62c0 -104 80 -151 159 -151
c48 0 96 17 127 53c2 4 5 7 7 11l-3 8c-9 8 -13 8 -18 8c0 0 -9 -3 -17 -8c-13 -8 -25 -16 -47 -16c-18 0 -44 3 -59 37c-13 21 -9 46 11 58c18 8 40 8 51 -8c22 13 62 36 108 11v59c0 67 -39 119 -97 140c7 -10 15 -21 19 -33c18 -41 1 -69 -12 -80c-12 -11 -37 -28 -79 -7
c-17 12 -37 29 -52 44c-60 43 -37 -10 -24 -29c15 -19 28 -40 36 -58c18 -43 4 -67 -9 -78c-2 -5 -5 -6 -11 -8zM165 0h-81v720h81v-248c33 27 73 44 116 51c3 10 9 16 12 19c16 12 34 12 45 -2c4 -4 7 -9 8 -15c113 -9 219 -88 219 -229v0v-73v-6c-2 -29 -8 -55 -18 -79
c-2 -20 -14 -35 -21 -43c0 -5 5 -9 13 -13c17 -17 22 -41 6 -59c-10 -10 -23 -17 -36 -17l-5 1c-7 2 -13 6 -19 8c-9 8 -17 16 -23 23c-41 -25 -89 -38 -138 -38h-5c-58 1 -112 20 -154 54v-54z" />
    <glyph glyph-name="c" unicode="c" 
d="M342 0c-81 0 -145 21 -191 60c-42 37 -65 90 -68 151l-12 14c-11 19 -6 42 12 55v16v2c2 149 121 228 240 228c48 0 96 -13 137 -38c11 15 32 13 56 12c4 0 10 -2 11 0c7 0 13 -1 19 -6c8 -5 13 -18 9 -30l-2 -2c-9 -16 -25 -16 -44 -14c-1 2 -3 2 -2 1
c35 -38 57 -90 57 -155h-81c0 25 -5 48 -15 68c-5 -1 -10 -3 -16 -4s-13 0 -19 -2c-1 -9 0 -19 3 -29c0 -25 2 -34 -4 -43c-5 -14 -19 -18 -32 -12c-9 6 -15 15 -10 27c-2 4 -3 15 -4 21c-4 36 -4 56 5 69c8 8 20 13 42 18c-29 24 -67 38 -110 38c-55 0 -111 -23 -139 -72
c20 -3 37 -11 48 -26c8 25 24 43 52 50c25 12 56 -1 67 -26c9 -21 4 -41 -15 -54l4 -11c11 -19 22 -53 4 -80c-14 -22 -37 -32 -73 -35c-38 -1 -71 7 -89 33l-4 3c-4 -4 -9 -7 -14 -11c3 -96 73 -127 144 -133c5 3 11 5 18 5c8 7 15 11 22 16c28 25 64 47 97 34
c17 -10 27 -32 18 -56l-1 -1h102v-81h-222z" />
    <glyph glyph-name="d" unicode="d" 
d="M486 0v55c-43 -35 -99 -55 -159 -55h-5c-33 1 -66 7 -96 19c-6 -3 -11 -4 -16 -4h-5c-9 1 -15 5 -22 12s-11 15 -12 23c-11 8 -20 17 -29 27c-9 1 -19 3 -27 10c-26 19 -26 57 -26 92v6c-1 9 -3 17 -3 26c-4 8 -4 17 -1 27v58v2c2 140 107 218 218 227
c19 29 50 55 102 40c54 -17 70 -57 75 -89c2 -1 4 -3 6 -4v248h81v-425c4 -3 7 -7 9 -11c7 -15 3 -28 -6 -37c-1 -5 -2 -11 -3 -17v-230h-81zM258 269c-2 2 -2 2 5 3c28 16 59 32 89 25c31 -6 46 -38 56 -58c1 -6 5 -11 8 -16c5 4 10 13 11 16c19 19 35 43 59 40v15
c0 5 0 11 -1 16c-73 19 -86 69 -87 120c-10 5 -22 9 -33 11c-2 -4 -4 -9 -7 -12c-3 -23 -25 -89 -76 -71c-26 7 -38 36 -34 70c-47 -21 -82 -65 -82 -134v-62c0 -25 5 -46 13 -65c22 11 51 21 76 0c26 -21 17 -50 7 -75c20 -7 43 -11 65 -11c70 0 141 37 156 118v0l-1 4
c3 0 1 -4 -3 -5c0 0 1 3 0 0c-18 -19 -42 -51 -77 -41c-30 6 -41 30 -50 55c-7 7 -10 20 -16 23c-11 0 -35 -14 -46 -21c-23 -12 -44 -24 -62 -17c-5 -1 -7 1 -10 3v0c-22 12 -26 40 -27 63c0 5 0 12 -1 16c-7 8 -9 23 -3 35c10 17 27 22 44 12c20 -12 21 -35 25 -55z" />
    <glyph glyph-name="e" unicode="e" 
d="M266 285l-5 1c-7 2 -13 6 -19 8c-45 38 -53 69 -46 94c-19 -24 -30 -55 -30 -94v-24h317l3 6v18v5c-1 15 -3 28 -7 41c-5 -2 -12 -3 -19 -4c-8 -4 -16 -4 -20 -4h-7c-53 4 -74 42 -85 59c-11 3 -23 10 -31 21c-4 11 -3 23 2 33c-6 0 -11 -1 -17 -1
c10 -34 -10 -59 -19 -70v0c0 -5 5 -9 13 -13c17 -17 22 -41 5 -59c-9 -10 -22 -17 -35 -17zM345 0h-6c-45 1 -84 8 -118 21l-6 -1c-8 -4 -16 -4 -20 -4v0c-57 0 -81 41 -92 59c-11 3 -23 11 -31 21c-7 19 0 41 20 52l4 1c-7 23 -11 47 -11 73v4v4v0v1v65v2
c1 46 13 86 33 119c-17 2 -35 9 -47 36c-13 21 -9 46 11 58c18 8 39 8 51 -8c23 13 62 37 109 10c27 9 56 13 84 13c58 0 116 -18 160 -55c17 10 41 18 74 22c21 0 41 -14 41 -32c4 -23 -12 -41 -34 -41c-16 -2 -25 -4 -31 -6c19 -32 30 -69 31 -113c10 -9 15 -22 21 -33
l2 -3c12 0 22 -9 27 -30c7 -21 -2 -41 -20 -50c-16 -9 -28 -5 -38 4l-8 1v-9c0 -22 -12 -46 -34 -63c-12 -8 -21 -12 -34 -12v0c-5 0 -15 4 -20 8c-12 8 -22 25 -25 38h-2c-13 -9 -31 -4 -41 16c-3 7 -4 15 -4 21h-222c6 -32 21 -55 41 -71c8 28 36 51 105 59
c22 0 41 -14 41 -32c4 -23 -11 -41 -34 -41c-27 -3 -34 -8 -39 -10v-8c20 -4 42 -5 62 -5h222v-81h-222z" />
    <glyph glyph-name="f" unicode="f" 
d="M473 113c-4 -10 -17 -18 -30 -18v0c-3 0 -6 3 -13 3c-17 5 -23 20 -17 33v2h-3c-6 5 -23 13 -23 27c0 18 17 28 26 33c14 8 27 10 40 8c-7 11 -7 24 3 37c7 12 27 18 43 10c13 -5 20 -15 16 -27c4 0 6 0 6 -3c14 -6 34 -15 36 -33c4 -12 -2 -25 -19 -37
c-17 -13 -36 -20 -55 -15h-4c0 -8 -3 -12 -6 -20zM55 0v81h137v122c-9 8 -18 18 -26 28c-8 9 -18 24 -30 32c-19 -11 -41 -6 -55 12c-23 23 -21 57 -1 77c18 12 42 23 64 17l-1 5c-8 27 -9 33 5 71h-93v81l135 2c1 150 86 228 205 228c120 0 205 -78 205 -230h-81v1
c-7 -14 -17 -24 -31 -29l-3 -1v0c-19 -3 -37 11 -45 26c-7 21 -2 34 9 44c1 10 4 19 7 27c3 20 8 41 18 58c-19 15 -45 23 -79 23c-80 0 -124 -47 -124 -149h140v-79c3 -5 6 -10 8 -15c2 -11 -2 -16 -4 -28c-2 -30 -26 -40 -34 -48c-34 -14 -66 4 -96 25c-4 2 -8 4 -12 7
v-50c1 -2 2 -3 3 -5c14 -13 25 -31 35 -51c18 -51 -5 -84 -18 -93c-7 -4 -13 -8 -20 -11v-97h264v-81h-482z" />
    <glyph glyph-name="g" unicode="g" 
d="M268 149l5 -2c30 -14 33 -15 60 -66c7 1 13 1 19 2l1 3c3 11 17 25 44 36h17l21 -2c9 8 17 18 24 28c0 12 0 25 -3 30c-16 7 -28 16 -28 33c0 20 17 33 40 33c3 0 9 0 15 -2v52c0 35 -10 66 -29 90c6 -30 -2 -68 -37 -124c-19 -22 -51 -30 -70 -14c-25 16 -31 47 -11 70
c20 31 21 41 21 49c0 0 -3 4 -7 7c-3 3 -6 7 -9 11c-14 6 -27 14 -40 22c-7 5 -17 10 -24 14c-11 -1 -21 3 -29 11l-1 -1c0 -3 -1 -6 -1 -8c-2 -2 -4 -7 -4 -7c4 -4 9 -11 33 -23c21 -8 29 -30 18 -50c-6 -17 -29 -24 -49 -16c-30 15 -50 30 -62 45c-11 -21 -18 -46 -18 -76
v-63v-6v-3c10 -1 20 -1 29 2c3 22 20 36 44 34c32 3 57 -19 59 -48c-3 -21 -9 -47 -28 -61zM482 -29v2c1 6 1 12 1 19v3v2v57c-12 -10 -26 -19 -40 -26c5 -9 11 -17 15 -24c9 -11 18 -22 24 -33zM414 -71c0 12 -17 36 -29 51l-15 24c-16 -3 -31 -4 -44 -4
c-3 -5 -6 -10 -10 -15c19 -6 36 -18 54 -30c12 -7 36 -23 44 -26zM305 -230h-40v81h40h5c28 0 57 4 83 12c-30 8 -56 31 -73 42l-4 -3c-20 -9 -41 -6 -81 5l-31 6c-2 -2 -4 -4 -7 -6c-17 -14 -41 -15 -57 -8c-9 6 -11 11 -18 20c-22 21 -15 47 -17 58c13 35 47 47 83 57l3 1
c-17 10 -33 22 -46 36c-16 0 -34 4 -51 7c-50 18 -62 58 -60 73c3 17 4 33 23 46c7 8 16 13 27 17c-1 5 -1 11 -1 17v63c0 54 15 100 41 135c-6 -4 -13 -8 -19 -10c-23 -9 -43 -6 -61 10c-15 17 -14 40 -1 55c11 7 25 10 37 9c16 14 52 43 106 24c4 -1 11 -4 17 -10
c3 -2 6 -3 9 -5c35 16 73 24 111 24c12 0 23 -1 34 -2c49 56 108 45 136 40c14 9 32 15 49 13c25 -7 41 -34 36 -64c-4 -9 -8 -17 -14 -24v-391c10 -6 17 -15 17 -25s-6 -21 -17 -27v-49v-2v-3c0 -66 -23 -123 -68 -162c-46 -39 -110 -60 -191 -60z" />
    <glyph glyph-name="h" unicode="h" 
d="M552 540h-4l-4 3c-14 5 -19 17 -23 30c-10 -8 -21 -10 -38 -5c-14 8 -17 22 -17 37c-14 -9 -25 -15 -41 -6c-22 11 -20 39 -17 59c3 3 3 11 3 13c-6 9 -6 20 0 32c8 13 25 16 38 8c12 -5 17 -20 17 -31c11 6 26 11 39 3c14 -6 16 -20 20 -34c11 9 24 12 39 3
c19 -11 16 -36 16 -56c-3 -6 -3 -11 -3 -14c3 -6 6 -14 3 -22c-6 -12 -14 -20 -28 -20zM163 0h-81v35c-9 0 -14 4 -20 12c-4 7 -4 23 0 30c0 4 -1 13 -1 15c0 9 -3 15 -3 23c0 25 12 34 19 37c2 1 3 2 5 2v224c-7 1 -14 4 -19 8c-25 16 -31 47 -11 70c19 31 21 42 21 49
c0 0 -3 4 -7 7c-15 19 -52 59 -8 127c3 11 9 18 12 23l5 5c2 3 5 5 7 7v46h81v-12c19 1 35 -1 46 -3c14 9 32 14 49 12c25 -7 41 -34 36 -64c-12 -28 -32 -45 -64 -53c-14 -1 -32 0 -43 3c-12 3 -19 4 -24 4v-59c9 -20 13 -42 5 -73c31 25 69 40 109 47c-8 19 -2 41 3 59
c15 25 47 36 75 19c21 -9 31 -29 26 -50c11 -10 27 -15 38 -21c31 -14 64 -31 74 -61c1 -3 2 -5 3 -8c41 -39 68 -95 68 -166v-143c7 -5 13 -12 15 -23c3 -20 -3 -38 -15 -47v-81h-81v125c-3 -8 -6 -14 -8 -21c-10 -34 -19 -58 -42 -67c-12 -7 -30 0 -39 13
c-4 -13 -10 -25 -19 -37c-8 -4 -14 -4 -17 -4v0c-14 0 -23 4 -29 16c-7 12 -7 34 0 45c0 5 -4 17 -4 20c0 14 -3 22 -3 33c0 37 16 49 26 53c23 13 42 -11 62 -36c2 -4 2 -4 6 -9v5c14 32 27 74 56 82c4 1 7 2 11 2v74c0 34 -10 64 -28 89c-12 -5 -28 -8 -47 -7
c-22 6 -43 10 -59 21c-22 5 -69 26 -75 15c0 -10 21 -26 31 -36c28 -24 53 -50 50 -86c-6 -10 -11 -36 -39 -46c-11 -5 -14 -10 -25 -10v0c-17 0 -39 10 -50 31c-4 36 -47 76 -64 97c-9 -19 -14 -42 -14 -68v-113c24 7 41 -17 50 -32c2 -5 4 -9 7 -10c9 -4 16 -10 18 -21
c2 -17 -5 -32 -15 -34c-22 -9 -35 14 -44 28c-2 3 -4 6 -7 9c-3 -9 -4 -14 -7 -20c-1 -2 -1 -4 -2 -7v-94z" />
    <glyph glyph-name="i" unicode="i" 
d="M426 391c-21 0 -34 16 -34 40c0 10 4 45 44 60c16 8 35 7 51 8c12 4 37 4 43 7c4 18 16 38 33 38s33 -15 33 -38v-3v0c0 -31 -14 -58 -43 -68c-19 -8 -39 -8 -60 -13c-12 0 -29 0 -35 -3c-6 -16 -16 -28 -32 -28zM86 -1v81h121c1 7 5 14 10 20c20 30 21 41 21 48
c0 0 -3 5 -7 8c-15 19 -52 58 -8 127c4 10 9 18 13 22l5 5c14 16 30 27 45 33v45c-4 0 -7 0 -11 1h-10c-4 -15 -8 -36 -30 -47c-12 -6 -22 -10 -33 -10h-6c-3 0 -7 1 -10 1c1 -3 2 -6 3 -8v-5c11 3 25 -4 27 -19c3 -10 -6 -22 -21 -25c-22 -4 -37 5 -44 16v-4
c-2 -12 -9 -23 -30 -30c-2 0 -4 -2 -7 -2c-9 0 -18 7 -20 16c-5 11 0 23 11 28v1c-2 8 -7 17 -2 28c2 10 9 24 30 28l6 2c-4 7 -5 15 -1 23c4 21 27 32 45 24h11c3 9 6 24 18 38h-85v61c-3 1 -6 3 -9 5l-10 13c-10 18 -2 40 16 49l2 3l-2 3c-3 11 -10 32 5 48
c16 21 40 19 55 17c18 -2 32 -9 42 -22c6 20 17 34 36 39v59h130v-130h-87c8 -16 15 -44 3 -64h59v-176c3 0 5 -1 7 -1c14 9 32 15 49 13c25 -7 41 -34 36 -64c-12 -29 -32 -46 -64 -53c-8 -1 -19 0 -28 1v-165h57c-3 12 -2 26 0 37c3 3 3 11 3 13c-6 9 -6 20 0 32
c8 13 25 16 38 8c12 -5 17 -20 17 -31c11 6 26 11 39 3c14 -6 16 -20 20 -34c11 9 24 12 39 3c18 -11 16 -36 16 -56c-3 -6 -3 -11 -3 -14c3 -6 5 -14 3 -22c-6 -12 -14 -20 -28 -20h-482z" />
    <glyph glyph-name="j" unicode="j" 
d="M108 -230v81h86c30 0 62 3 90 13c-6 2 -13 5 -19 10c-28 20 -28 59 -28 95v28c-8 12 -8 28 0 44c12 16 36 24 56 12c28 -20 23 -52 23 -84v-19c5 0 8 3 8 3c14 7 30 15 47 16c1 7 1 15 1 23v3v2v256c-6 -6 -13 -11 -23 -13c-28 -9 -51 7 -71 23c-9 3 -19 12 -25 12
c-10 -6 -23 -28 -30 -41c-13 -22 -25 -42 -45 -46c-3 -3 -6 -3 -9 -3v0c-26 0 -43 23 -55 42c-3 4 -7 11 -9 13c-11 4 -20 17 -20 29c0 20 12 33 32 33c23 0 35 -20 49 -36h3c17 29 36 62 67 71c30 10 59 -9 78 -22c3 -4 9 -7 14 -10c3 6 3 16 3 19c6 26 9 55 35 68
c2 1 4 2 6 2v51h-200v81h93l-1 1c-4 9 -4 15 -4 22c0 5 -3 5 -3 5c-11 13 -25 28 -37 43c-15 29 -10 58 4 80c40 30 40 29 66 29c-8 14 -4 33 0 46c10 18 32 27 51 15c15 -6 22 -21 18 -36c5 -5 12 -8 18 -11h100v-130h-130v27c-3 1 -7 3 -10 5c-15 4 -47 19 -51 11
c0 -7 14 -19 21 -26c20 -17 37 -35 34 -62c-2 -4 -4 -12 -9 -19h121v-132c2 -6 5 -13 6 -18c7 -10 10 -20 14 -26c6 -26 -4 -42 -14 -48c-2 -2 -4 -3 -6 -4v-123c9 5 18 7 27 5c-5 8 -5 15 2 25c5 7 18 12 29 7c8 -3 13 -10 10 -18c3 0 5 0 5 -2c9 -4 21 -10 23 -22
c3 -9 -2 -17 -12 -25c-11 -9 -25 -14 -37 -10h-3c0 -5 -3 -8 -4 -13c-2 -8 -11 -12 -20 -12l-3 1l-6 1c-5 1 -9 4 -11 8v-123v-2v-3c0 -53 -15 -99 -44 -135c-3 -5 -6 -9 -6 -15c0 -12 -3 -24 -11 -32s-20 -12 -28 -12h-6c-5 1 -10 3 -14 5c-40 -21 -91 -33 -150 -33h-86z
" />
    <glyph glyph-name="k" unicode="k" 
d="M403 487l26 25c0 8 -1 15 -2 20c-9 -5 -18 -30 -22 -41zM260 176c5 8 11 18 14 25l3 5l-19 21l-22 -22c4 -4 8 -8 12 -11c3 -8 7 -10 12 -18zM164 0h-81v102c-11 6 -18 16 -18 30s6 25 18 31v458c-10 6 -18 14 -18 25s7 22 18 28v46h81v-67c4 -5 7 -11 10 -18
c8 -18 8 -38 13 -59c0 -12 0 -29 2 -35c17 -6 28 -16 28 -32c0 -21 -15 -34 -39 -34c-3 0 -8 0 -14 2v-229l169 169c-5 0 -9 1 -12 2c-27 1 -43 18 -49 43c0 12 0 29 3 43c-1 6 0 16 2 22c-13 7 -19 19 -17 32c7 19 26 30 43 25c38 -3 45 -30 44 -53c17 33 39 72 93 67
c13 1 46 -8 57 -47c2 -9 3 -18 3 -25h59l-61 -61c1 -8 2 -16 5 -20c15 -3 30 -16 27 -33c-4 -14 -15 -26 -29 -30l-5 -1l-6 1c-14 1 -37 4 -50 26l-125 -124l19 -21c2 0 3 1 5 1c27 11 47 -3 64 -16c0 20 4 44 24 54c23 10 47 -3 70 -18c0 0 0 -2 4 -2v20c0 23 17 36 30 41
c17 3 38 -11 41 -28c0 -10 0 -16 -3 -23v-8c0 -23 3 -60 -28 -77c-23 -10 -47 0 -70 14c0 -24 -4 -54 -34 -65c-2 -1 -4 -1 -6 -2l138 -154h-108l-28 31c-4 -13 -15 -25 -29 -29c-4 -1 -7 -2 -11 0c-18 2 -51 6 -58 47c-4 19 -6 41 -5 61c1 11 2 25 1 35l-4 5
c-8 -8 -15 -29 -19 -39c-8 -16 -14 -30 -21 -46c-25 -33 -53 -29 -63 -26c-27 2 -43 18 -49 43c0 13 0 29 3 43c-1 6 0 16 1 23h-1l-14 -14v-134z" />
    <glyph glyph-name="l" unicode="l" 
d="M505 468c-9 0 -15 3 -22 9c-11 13 -11 28 -6 43c-15 -2 -33 -6 -48 7c-21 15 -21 45 -21 72v22c-7 9 -7 21 0 33c9 12 28 18 42 9c22 -15 18 -39 18 -64v-15c4 0 6 3 6 3c19 10 46 21 67 3c25 -21 10 -51 0 -72c-3 -7 -6 -10 -6 -16c0 -10 -3 -19 -8 -25
c-7 -6 -16 -9 -22 -9zM252 536l1 -4c2 -3 6 -6 13 -9c9 -9 14 -20 15 -31v147h-28c42 -52 12 -88 -1 -103zM81 0v81l71 -1c-2 17 4 34 15 43c22 17 40 17 55 5c6 -5 12 -9 16 -17v25c0 16 3 41 27 58c5 5 11 8 16 11v86c-11 7 -20 14 -28 19l-5 -3c-19 -9 -40 -6 -81 5
l-44 9c-15 -2 -32 0 -40 13c-12 14 -8 33 8 42c13 3 21 7 29 7h17c7 -4 15 -4 27 -7c17 16 37 18 48 21c27 0 48 -10 69 -23v82c-1 8 -2 16 0 23v8c-1 -8 -4 -16 -10 -23c-10 -10 -23 -17 -35 -17v0c-9 0 -16 7 -24 9c-71 59 -49 100 -27 130l-4 8c-9 8 -13 8 -18 8
c0 0 -8 -3 -16 -8c-14 -8 -25 -16 -48 -16c-18 0 -43 3 -58 37c-14 21 -9 46 10 58c10 4 20 6 30 5v42h281v-194l8 -1l17 -13c8 -19 0 -33 -21 -42h-4v-7c3 -13 19 -39 29 -53c16 -18 28 -40 33 -57c15 -41 -14 -55 -29 -69c-11 -9 -22 -14 -33 -16v-111c7 -4 12 -13 15 -26
c5 -18 -1 -36 -15 -46v-4h201v-81h-482z" />
    <glyph glyph-name="m" unicode="m" 
d="M365 257c17 -5 56 44 120 74c0 11 -1 21 -1 31c-13 2 -24 11 -30 22c-10 -4 -22 -7 -36 -3c-18 4 -31 17 -41 33c-11 -21 -12 -56 -12 -112v-45zM165 307h1c16 11 33 15 49 10c-9 24 -9 46 5 69c9 23 36 32 55 21c-8 22 -23 31 -50 35c-55 -7 -60 -39 -60 -135zM251 194
v-5c-1 -6 -2 -10 -3 -15c2 -8 3 -16 3 -24c7 14 15 29 26 41c-7 0 -14 1 -21 3h-5zM402 89l4 2c4 3 8 5 13 7c16 7 35 6 51 7c4 2 10 3 15 3v62c-13 -15 -34 -27 -68 -31c-5 -2 -10 -3 -14 -3c0 -9 -1 -17 -1 -25c0 -6 -1 -14 0 -22zM178 116v3l1 19c0 -5 -1 -10 0 -6
c-6 3 -10 8 -14 13v-26c4 0 9 -1 13 -3zM172 -3c-6 -6 -15 -9 -21 -9h-5c-7 1 -12 4 -17 9l-2 2h-43v42c-3 1 -6 3 -9 6c-22 15 -22 45 -22 72v22c-6 9 -6 21 0 33c7 9 19 15 31 13v106v5v4c0 36 1 69 5 97h-2v0c-10 0 -16 3 -22 12c-4 7 -4 23 0 31c0 3 -2 12 -2 14
c0 9 -2 15 -2 23c0 26 11 34 19 37c16 9 28 -8 42 -25c3 -3 3 -3 3 -5h1v2c10 23 19 52 39 57c18 6 33 -8 43 -21c6 0 11 -1 17 -1c8 1 18 1 28 1c12 0 23 -5 30 -13c17 -6 31 -15 42 -26l9 9c-5 8 -8 18 -7 30c5 19 24 36 47 33c20 -4 31 -17 39 -33c4 -1 8 -1 12 -1
c8 1 18 1 28 1c11 0 22 -4 29 -12c8 4 17 6 26 5c10 11 22 19 37 21c20 0 39 -14 43 -39c0 -20 -7 -38 -23 -41c-3 -3 -5 -7 -7 -11v-19c0 -2 -1 -5 -1 -7c2 -8 4 -17 5 -26c0 -3 1 -5 1 -9c1 -12 2 -24 2 -38c23 -5 41 -22 41 -42c5 -28 -12 -51 -40 -54v-109
c8 -7 13 -17 13 -31v-2v-5c-1 -16 -5 -30 -13 -41v-65h-81v32c-3 -1 -6 -1 -9 -2c-11 0 -28 0 -35 -3c-6 -16 -16 -28 -32 -28c-5 0 -10 1 -14 3h-1c-8 0 -19 2 -29 6v-8h-81v61c-23 -29 -49 -25 -60 -22c-13 0 -24 5 -31 12l-6 -12c-3 -7 -7 -10 -7 -16
c0 -10 -2 -19 -8 -25z" />
    <glyph glyph-name="n" unicode="n" 
d="M482 294v6c-3 100 -82 144 -159 144c-5 0 -10 0 -15 -1c-1 -7 -3 -15 -6 -24c-9 -20 -20 -38 -35 -51c-10 -20 -42 -60 -34 -69c10 -2 31 14 43 21c31 21 62 39 97 25c8 -8 31 -18 34 -48c1 -5 2 -8 2 -12c4 7 10 12 17 16c18 9 37 2 56 -8v1zM401 247v5
c-1 -1 -1 -2 -2 -3zM259 176c5 7 11 17 14 24l-16 -8l-9 -2c2 -5 7 -8 11 -14zM188 154l-9 9c-2 -1 -5 -3 -7 -6l4 -1zM456 124c0 -3 0 -3 1 4c4 16 10 30 25 42v44l-12 6c0 -23 -5 -54 -34 -64c-7 -3 -15 -3 -21 -1c5 -6 10 -13 13 -18c9 -19 9 -19 25 -19l3 3s-3 0 0 3z
M275 -2c-85 11 -108 43 -108 81c0 1 -4 7 -3 5h-1v-84h-81v24c-9 -1 -19 0 -30 4c-20 11 -27 32 -20 51c9 11 20 18 32 22c2 3 4 6 6 10c-4 6 -6 13 -6 21c0 14 6 25 18 31v131c0 16 1 32 4 46c-5 3 -10 6 -14 9c-21 20 -22 54 1 77c13 18 36 23 55 12c2 1 4 3 5 4
c4 5 9 10 13 14c4 5 8 10 12 14c22 26 46 53 78 55c14 3 25 0 35 -5c17 3 35 5 52 5c38 0 76 -8 110 -23c2 3 5 6 7 9c5 1 8 8 10 11c-1 10 5 20 15 27c14 7 30 1 38 -13c7 -11 5 -25 -1 -35c13 -1 28 -3 35 -17c9 -12 5 -25 0 -40c14 3 27 -1 35 -16c11 -19 -4 -39 -14 -56
c-2 -2 -4 -4 -5 -6c3 -11 6 -22 7 -33c6 -5 10 -11 11 -18c0 -10 0 -16 -3 -24v-7c0 -14 1 -33 -5 -50v-45c11 -4 20 -13 20 -24c2 -15 -6 -29 -20 -34v-131h-81v63c-5 -2 -11 -3 -18 -4c-8 -2 -14 -2 -18 -2v0c-48 0 -68 34 -77 49c-10 3 -20 9 -26 18c-6 16 0 34 16 44
c9 3 18 4 27 2c-6 5 -10 9 -14 13c-7 3 -15 14 -17 18c-8 -8 -17 -25 -24 -35c-17 -27 -34 -57 -65 -60c-10 -1 -19 0 -27 4c3 -8 4 -15 5 -20v-8c4 -3 12 -7 39 -11c22 0 37 -18 34 -41c0 -18 -20 -32 -42 -32z" />
    <glyph glyph-name="o" unicode="o" 
d="M484 271v23c0 44 -16 81 -44 108c-15 -4 -19 -15 -12 -25c20 -27 37 -56 26 -102c9 0 19 -1 30 -4zM201 347v-5c-2 -8 -6 -14 -9 -22c-2 -12 -13 -20 -27 -23v-3v-36c14 14 30 26 48 27c18 4 29 -3 41 -11c11 -8 29 -35 15 -76c-8 -16 -17 -31 -30 -42
c-5 -10 -16 -26 -23 -39c4 -4 9 -8 14 -11c6 4 13 8 17 11c26 16 52 32 80 21c7 -7 26 -16 28 -41c1 -5 3 -9 3 -13c45 8 82 32 104 66c2 5 4 10 7 14c2 4 4 8 5 13c-1 1 -2 2 -2 5c-9 8 -12 8 -18 8l-16 -8c-13 -8 -25 -16 -48 -16c-16 0 -38 2 -53 27c-5 6 -8 12 -10 19
c-7 18 -1 38 14 48c16 26 18 35 18 42l-7 7c-16 19 -52 58 -8 127l3 8c-7 1 -15 1 -23 1s-16 0 -24 -1c6 -7 11 -14 12 -24c6 -19 -3 -36 -26 -52c-22 -19 -52 -28 -78 -21h-7zM527 35c-9 0 -16 6 -24 9c-5 5 -10 9 -15 13c-45 -38 -105 -57 -164 -57c-30 0 -60 5 -88 15
c-1 -1 -3 -2 -5 -3c-38 -8 -69 6 -88 29c-12 30 -17 43 -18 54c-7 10 -13 21 -19 32c-10 3 -20 8 -28 13c-17 17 -19 45 1 63c2 3 4 5 6 6c-1 7 -1 15 -1 22v65v2c0 20 3 40 7 58c-9 6 -18 16 -18 28c0 25 22 40 35 45c8 5 16 9 25 11c8 10 16 18 25 27c1 8 5 17 12 26
c9 17 38 25 58 15c30 12 63 18 96 18c37 0 74 -8 108 -23c26 5 49 1 63 -2c13 9 31 15 48 13c26 -7 42 -34 36 -64c-8 -21 -21 -36 -40 -45c16 -31 26 -68 26 -109v0v-65c0 -13 -1 -25 -2 -36c11 -35 -10 -60 -20 -72c0 -4 6 -8 14 -12c17 -17 22 -41 5 -59
c-10 -11 -22 -17 -35 -17z" />
    <glyph glyph-name="p" unicode="p" 
d="M265 264h-5l-6 3c-19 8 -27 26 -33 44c-15 -11 -30 -15 -56 -7v-10v-63c0 -10 1 -19 2 -28c12 1 23 -3 30 -13c27 16 78 46 138 -13l12 -13v6c7 19 25 30 43 25c37 -3 45 -30 44 -53c11 23 25 48 49 60c1 9 2 19 2 29v63v6c0 11 -2 21 -4 31c-5 -12 -14 -23 -26 -32
c-12 -8 -21 -12 -34 -12v0c-5 0 -15 4 -21 8c-11 8 -21 25 -24 38h-3c3 0 3 0 -4 -2c-12 -6 -27 0 -36 18c-8 21 -2 46 12 59c22 18 40 17 55 4c6 -4 12 -9 16 -17v25v2c-27 15 -58 23 -90 23c-25 0 -48 -5 -69 -13c8 0 17 -3 25 -8c27 -15 24 -51 24 -80
c-5 -7 -5 -15 -5 -19c5 -9 8 -21 5 -32c-8 -18 -20 -29 -41 -29zM363 139v0v0zM279 111l-2 3l-2 5c-9 8 -12 8 -18 8l-16 -8l-15 -9c12 -8 26 -15 40 -19c4 7 8 14 13 20zM506 -213c-11 0 -19 2 -27 9c-16 12 -16 28 -8 43c-20 -3 -44 -6 -63 6c-27 15 -27 45 -27 73v22
c-9 9 -9 20 0 33c11 12 36 18 54 9c28 -15 24 -40 24 -64v-15c4 0 8 2 8 2c24 10 58 22 85 4c33 -22 13 -51 0 -73c-3 -6 -8 -10 -8 -15c0 -10 -3 -19 -10 -25c-9 -7 -20 -9 -28 -9zM165 -230h-81v26h-2v0c-15 0 -24 3 -30 16c-7 12 -7 33 0 45c0 4 -4 17 -4 20
c0 13 -3 21 -3 33c0 37 16 49 26 53c4 3 9 4 13 4v380h-1c-33 18 -28 58 -25 86c4 4 4 16 4 20c-7 12 -7 29 0 45c5 9 13 14 22 17v11h81v-52c2 1 3 1 5 1c44 34 100 51 156 51c47 0 93 -12 133 -36c18 8 32 3 39 -3c15 -8 21 -25 27 -38l3 -3c12 0 22 -9 27 -30
c4 -13 2 -25 -4 -35c10 -26 15 -55 15 -87v-63c0 -12 -1 -24 -2 -36c8 -7 16 -17 20 -33c4 -19 2 -39 1 -58c-1 -13 -1 -40 4 -48c16 -3 31 -15 28 -33c-4 -14 -15 -26 -29 -30l-5 -1l-6 1c-18 2 -51 6 -58 47c-3 13 -5 27 -5 42c-36 -42 -87 -68 -140 -78
c-2 -5 -5 -10 -9 -15c-10 -11 -22 -17 -35 -17l-5 1c-7 1 -13 6 -19 8c-9 8 -17 15 -23 22c-43 7 -84 24 -118 51v-75c8 12 17 22 30 25c33 12 59 -24 71 -45c4 -8 7 -12 11 -16c13 -4 23 -13 25 -29c4 -24 -6 -45 -21 -49c-31 -13 -50 21 -62 40c-4 5 -7 9 -10 13
c-5 -13 -8 -20 -11 -28c-9 -28 -16 -50 -33 -61v-59z" />
    <glyph glyph-name="q" unicode="q" 
d="M167 231v-6c2 -52 24 -90 57 -113c-1 4 -3 7 -4 10c-8 36 -17 71 -22 106c-4 62 31 88 58 101c22 14 70 27 114 -22c23 -22 40 -57 58 -88c12 -20 27 -49 39 -62c2 3 4 6 6 10c-3 17 -12 40 -19 56c-9 27 -17 53 -22 80c-3 39 15 62 30 74c-22 34 -58 57 -101 65
c2 -3 3 -6 4 -10c4 -12 1 -23 -4 -30l-3 -5c-4 -7 -11 -11 -21 -13c-22 -5 -39 5 -52 21c-6 -20 -15 -42 -39 -50c-20 -11 -43 -5 -66 6c-8 -19 -13 -41 -13 -67v-63zM296 250c0 5 0 5 -3 -1c-3 -1 -6 -7 -6 -21c0 -22 13 -49 21 -79c7 -23 13 -47 16 -68h2c26 0 50 5 71 14
v6c-16 22 -32 50 -44 74c-13 27 -40 75 -57 80v-5zM486 -230v169c-4 11 -3 22 0 33v6c-20 -3 -42 -7 -61 8c-9 7 -16 15 -20 26c-25 -8 -52 -12 -79 -12h-10c-10 -18 -26 -27 -38 -32c-5 -5 -9 -5 -17 -5h-5c-16 2 -28 11 -36 26c-4 10 -4 22 1 33c-76 33 -135 103 -135 209
v63c0 39 8 73 21 102c-7 3 -13 9 -19 17c-7 18 -2 44 17 55c19 9 36 4 53 -4c20 18 42 31 66 42c6 7 13 14 24 18c13 4 25 3 35 -1c14 2 29 3 43 3c58 0 116 -18 160 -54v54h81v-452c2 -1 3 -3 5 -4c32 -28 13 -67 0 -95c-2 -4 -4 -7 -5 -9v-196h-81z" />
    <glyph glyph-name="r" unicode="r" 
d="M317 12c-7 -4 -13 -4 -16 -4v0c-14 0 -23 4 -30 16s-7 34 0 45c0 5 -3 17 -3 20c0 14 -4 22 -4 33c0 37 16 49 26 54c24 12 43 -12 62 -36c3 -5 3 -5 7 -9v4c13 32 27 74 56 82c32 12 58 -24 71 -46c3 -7 7 -12 10 -15c13 -5 23 -14 26 -29c3 -24 -7 -45 -22 -50
c-31 -12 -49 21 -62 41c-4 4 -6 9 -10 13c-4 -13 -7 -20 -11 -28c-10 -34 -19 -58 -41 -67c-13 -7 -30 0 -40 14c-3 -14 -10 -26 -19 -38zM96 0v526h81v-54c44 36 102 54 159 54c35 0 67 -7 96 -20h5c-9 14 -9 30 3 45c9 15 32 21 52 12c15 -6 23 -18 20 -34l7 -2
c16 -7 40 -19 43 -40c5 -15 -3 -31 -23 -46c-7 -5 -14 -9 -21 -13c20 -35 32 -79 32 -133h-81c0 35 -6 66 -20 90c-7 -5 -16 -8 -25 -8v0c-3 0 -7 4 -16 4c-19 5 -27 24 -19 39v3h-4c-5 4 -17 10 -23 20c-5 1 -11 2 -17 2c5 -10 5 -22 0 -35c-10 -18 -25 -29 -40 -24
c-12 -4 -24 -16 -31 -22c-25 -20 -54 -37 -80 -26l-3 1l-4 3l-3 2c-4 -15 -7 -31 -7 -50v-294h-81z" />
    <glyph glyph-name="s" unicode="s" 
d="M289 302h47c1 7 2 14 3 20c-1 7 0 16 1 23c-12 6 -18 19 -16 31c7 19 25 30 43 25c37 -3 45 -30 44 -53c8 17 18 35 32 48c-19 29 -74 49 -117 49c-11 0 -23 -1 -34 -3l-2 -1v-8c-4 -18 -8 -59 -68 -66c-8 -3 -17 -3 -20 -3v-9v-1v0v-2c1 -4 3 -9 6 -13c2 0 4 1 6 2
c19 4 39 -9 47 -33l1 -3c8 -2 17 -3 27 -3zM491 282v5v20c1 13 2 32 0 42c-9 -5 -18 -29 -22 -41c-2 -5 -5 -9 -7 -14c10 -3 20 -7 29 -12zM190 129h-3c33 -47 125 -48 138 -48c3 0 8 0 16 -1c-6 14 -4 30 -2 43c2 3 2 11 2 14c-5 9 -5 19 0 30c8 14 26 17 39 9
c12 -6 17 -19 17 -30c11 5 25 11 39 3c13 -7 16 -20 20 -35v0c12 13 20 30 20 54v0c0 17 -16 53 -69 53h-118h-4c-10 0 -21 1 -31 3c1 -11 1 -23 -1 -33c-3 -33 -20 -54 -48 -62h-15zM483 5c-3 0 -6 0 -8 3c-8 3 -13 9 -17 15c-51 -21 -109 -23 -133 -23
c-48 0 -231 16 -231 168h38c-6 14 -9 29 -13 44c-4 4 -8 17 -8 21c-15 4 -28 16 -28 37c-4 21 13 41 36 46c3 0 5 0 8 -1c-4 12 -6 25 -6 39v0v1v19v1v0c0 9 1 18 3 27c-6 7 -11 15 -14 20c-12 4 -23 11 -31 22c-8 19 0 40 19 51c23 8 43 5 62 -11c3 -3 6 -6 9 -10
c42 36 106 52 157 52c74 0 176 -34 199 -115c14 -6 29 -18 36 -43c4 -19 2 -39 1 -58c-1 -13 -1 -40 4 -48c16 -3 31 -15 28 -32c-4 -15 -15 -27 -29 -31c-4 -1 -7 -2 -11 0c2 -10 3 -20 3 -31v-7c-2 -50 -21 -84 -48 -107c-1 -3 -1 -5 -1 -6c3 -7 5 -15 3 -23
c-6 -11 -14 -20 -28 -20z" />
    <glyph glyph-name="t" unicode="t" 
d="M585 205c2 -17 -4 -31 -15 -34c-2 -1 -4 -1 -6 -2c-4 -104 -29 -169 -169 -169h-3h-3c-70 0 -111 16 -135 46c-2 -4 -4 -8 -7 -12c-19 -22 -50 -29 -69 -14c-26 16 -32 47 -12 70c20 31 22 41 22 49c0 0 -4 4 -8 7c-15 19 -52 58 -8 127c4 11 9 18 13 22l5 5
c10 11 20 19 30 25v120h-18c-5 -1 -11 -1 -18 0l-13 -1c-1 -12 -4 -20 -9 -33c-4 -19 -22 -32 -41 -32v0c-5 0 -9 4 -18 4c-23 9 -32 37 -23 60v4h-4c-10 9 -32 24 -32 51c0 32 22 50 36 59c18 14 36 18 55 14c-10 23 -10 46 5 68c9 23 36 32 59 19c10 -6 17 -14 21 -24v86
h81v-194h45c-3 5 -5 11 -6 18c-4 28 6 52 27 57c41 15 59 -38 62 -57c0 -11 29 -21 29 -7c0 48 12 93 88 107h3c17 0 32 -19 35 -43s-10 -47 -27 -53c-18 -4 -25 -9 -28 -9v-10c0 -23 -3 -76 -62 -95c-28 -8 -49 -1 -64 11h-102v-104c9 -1 16 -2 22 -3c14 9 32 15 49 13
c7 -2 14 -6 19 -11c3 15 13 38 42 50c16 7 35 6 52 7c12 4 36 4 43 7c3 18 16 38 33 38c16 0 32 -14 32 -38v-3v0c0 -30 -13 -57 -43 -68c-19 -8 -38 -8 -59 -13c-12 0 -29 0 -35 -2c-7 -16 -16 -28 -33 -28c-5 0 -10 1 -14 3c0 -2 -1 -4 -1 -6c-12 -29 -31 -46 -64 -53
c-13 -1 -31 0 -42 3h-1v-15c0 -116 6 -141 88 -141h3h3c57 0 78 12 85 59c-8 -2 -18 2 -24 11c-3 -10 -7 -17 -14 -26c-4 -3 -10 -3 -11 -3v0c-9 0 -16 3 -21 12c-5 7 -5 24 0 31c0 3 -2 12 -2 14c0 9 -3 15 -3 24c0 25 12 33 19 36c16 9 29 -8 43 -25c2 -2 2 -2 4 -6v4
c4 9 8 20 13 29v22h16c3 2 6 4 10 5c10 4 19 1 27 -5h28v-35l2 -2c9 -4 17 -10 18 -21z" />
    <glyph glyph-name="u" unicode="u" 
d="M292 325c-9 0 -16 3 -22 9c-12 13 -12 28 -6 43c-16 -2 -34 -6 -48 7c-22 15 -22 45 -22 73v21c-6 9 -6 21 0 33c9 12 28 18 43 9c21 -15 18 -39 18 -63v-16c3 0 6 3 6 3c19 10 46 22 67 4c25 -22 10 -52 0 -73c-3 -7 -7 -10 -7 -16c0 -10 -2 -19 -8 -25s-15 -9 -21 -9z
M324 80c80 0 142 47 157 118c-4 1 -6 1 -9 1c0 0 -8 -3 -17 -8c-13 -8 -25 -16 -47 -16c-11 0 -24 1 -37 9c0 -2 -1 -5 -2 -7c-5 -16 -31 -46 -85 -42c-21 6 -43 10 -59 21c-13 3 -33 11 -50 15c25 -62 87 -91 149 -91zM193 3c-11 -5 -15 -10 -26 -10v0c-17 0 -38 10 -49 31
c-5 36 -48 76 -65 97c-21 40 -14 82 7 112c9 7 17 13 24 17v275h81v-174c16 17 42 22 66 8c22 -9 32 -29 26 -50c11 -10 27 -15 38 -21c19 -8 38 -18 52 -30c3 5 8 9 13 12c18 8 40 8 51 -8c16 10 42 25 73 22v50l-3 -3c-13 -9 -22 -12 -35 -12v0c-5 0 -15 3 -20 8
c-12 8 -22 24 -25 38h-2c-13 -9 -31 -5 -41 16c-8 21 -2 46 13 58c21 18 39 18 55 5c5 -5 11 -9 15 -17v25c0 16 4 41 27 59c5 5 11 8 16 10v4h13c4 1 9 1 12 0h56v-51c6 -5 12 -13 16 -26c5 -19 -1 -38 -16 -48v-168c33 -45 13 -77 0 -94v-12c2 -2 5 -4 9 -6
c17 -17 22 -41 6 -59c-5 -5 -10 -8 -15 -11v-51h-81v54c-44 -36 -102 -54 -160 -54c-37 0 -74 8 -107 22c-5 -7 -12 -14 -24 -18z" />
    <glyph glyph-name="v" unicode="v" 
d="M445 138c-8 6 -10 6 -12 6l-77 -129c-7 -8 -15 -13 -25 -15c-2 0 -4 0 -1 0c-2 0 -4 0 -2 0h-3h-1v0h-3c1 0 3 0 -2 0c2 0 3 0 -1 0c-10 2 -19 7 -26 15l-42 71l-3 1h-5c0 -13 -4 -22 -9 -36c-4 -19 -22 -32 -41 -32v0c-5 0 -9 4 -18 4c-23 9 -33 37 -23 60v4h-4
c-10 9 -33 24 -33 51c0 32 23 50 37 59c8 6 17 11 25 13l-84 142c-8 9 -10 21 -8 33v4l-2 1c-15 -1 -29 7 -39 21c-7 18 -2 44 17 55c8 4 16 5 24 5v55h81v-63c3 23 12 49 38 59c40 14 64 -23 83 -49c5 -7 6 -13 13 -17c11 -6 19 -15 21 -26c4 -11 1 -23 -3 -29v0
c-6 -11 -13 -17 -25 -18c-21 -6 -38 4 -52 20c-6 -20 -14 -42 -38 -50c-5 -2 -10 -4 -15 -5l33 -55c13 12 33 15 50 5c18 -10 27 -28 22 -50l9 -5c14 -7 33 -20 44 -39c10 3 20 3 29 -2l59 99c-5 3 -9 7 -13 12c-3 -13 -10 -25 -19 -38c-7 -3 -13 -3 -16 -3v0
c-14 0 -23 3 -30 16c-7 12 -7 33 0 45c0 5 -3 17 -3 20c0 13 -4 21 -4 33c0 37 16 49 26 53c24 13 43 -11 62 -36c3 -4 3 -4 7 -9v5c11 26 22 60 42 75v52h81v-85c1 -2 3 -4 4 -6c3 -7 7 -12 10 -16c13 -4 23 -13 26 -28c3 -25 -7 -45 -22 -50c-12 -5 -23 -2 -31 4l-85 -141
c8 -5 17 -11 25 -19c49 -47 20 -81 9 -95c0 -4 5 -6 11 -10c14 -14 18 -33 4 -48c-8 -9 -18 -14 -27 -14v0c-8 0 -14 5 -20 8c-57 47 -40 81 -23 105c0 3 -2 3 -2 7z" />
    <glyph glyph-name="w" unicode="w" 
d="M396 436c-2 -8 -11 -12 -20 -12l-3 1l-6 1c-11 2 -14 13 -11 21v2h-1c-5 3 -16 8 -16 18c0 12 11 19 17 22c9 5 18 7 27 5c-5 8 -4 15 2 25c6 8 18 12 29 7c8 -3 13 -10 11 -18c2 0 4 0 4 -2c9 -4 22 -10 24 -22c2 -9 -2 -17 -13 -25c-11 -9 -24 -13 -37 -10h-3
c0 -5 -2 -8 -4 -13zM517 42c-18 -6 -35 -17 -51 -24c-7 -2 -13 -2 -19 -2c-3 -4 -7 -8 -12 -11c-2 -1 -4 -1 -5 -2c-5 -2 -10 -3 -15 -3h-1v0h-5c-4 1 -7 2 -11 3l-4 2c-5 3 -9 6 -12 10c-1 2 -2 3 -3 5l-56 93l-52 -87c-4 -9 -10 -16 -18 -21c-6 -3 -14 -5 -16 -5h-5h-5v0
c-5 1 -11 3 -16 5c-7 5 -13 12 -16 20l-22 36c-2 -3 -5 -6 -8 -8c-13 -8 -22 -12 -35 -12v0c-5 0 -15 4 -20 9c-12 8 -22 24 -25 37h-2c-13 -9 -31 -4 -41 17c-8 20 -2 45 13 58c21 17 39 17 54 6l-21 34c-6 9 -7 19 -5 28v296h81v-38c2 -11 1 -22 1 -34v-16c3 0 6 3 6 3
c19 10 46 22 67 4c25 -22 9 -52 0 -73c-3 -7 -7 -10 -7 -16c0 -9 -2 -18 -8 -25c-6 -6 -15 -9 -21 -9v0c-9 0 -16 3 -22 9c-12 13 -12 28 -6 43c-3 0 -7 -1 -10 -1v-131c19 10 36 6 43 -1c15 -8 22 -25 28 -38l3 -3c11 0 21 -9 26 -28l19 32v10c-11 17 -24 43 0 85v119h81
v-69c8 0 15 -1 20 -2c9 7 21 10 33 9c17 -5 28 -25 24 -46c-8 -21 -22 -34 -43 -39c-9 -1 -21 0 -28 2l-6 2v-73l8 -14l6 -3c8 6 15 16 21 22c15 18 31 37 53 39c15 2 23 -4 31 -9v289h81v-296c2 -9 1 -19 -5 -28l-48 -80c11 4 22 5 34 0c6 -5 22 -12 24 -33
c1 -8 3 -12 2 -19v0c-3 -11 -14 -23 -29 -26c-8 -2 -14 0 -21 2c-4 1 -4 -4 -4 -4z" />
    <glyph glyph-name="x" unicode="x" 
d="M194 0h-100l76 107c-5 2 -11 4 -14 7c-12 8 -22 25 -25 38h-2c-13 -9 -31 -4 -41 16c-8 21 -2 46 13 59c21 17 39 17 55 4c5 -4 11 -9 15 -17v25c0 17 3 42 27 59c14 12 28 16 38 15l-93 132l-1 -2s1 -9 1 -15c5 -14 14 -62 -23 -69c-18 -5 -36 9 -45 31
c-6 16 -5 31 3 41l-1 3c-3 18 -9 57 17 79l-9 13h35l3 1c16 4 30 3 41 -1h21l35 -49c4 0 11 1 20 5c15 2 35 -9 44 -27c7 -21 5 -41 -8 -48l-3 -2l-2 -1l47 -66c7 36 12 39 34 61c-23 5 -38 28 -47 46c-8 28 7 58 39 66c21 9 43 2 54 -17c14 1 29 9 41 13c6 2 13 4 19 6
l9 13h100l-14 -20c8 -7 12 -17 17 -26c8 -15 10 -55 -30 -89c-19 -12 -38 -24 -57 -27c-12 -8 -36 -18 -51 -28l-11 -16c9 -5 33 -2 46 -2c37 2 74 2 96 -26c3 -11 18 -33 6 -60c-5 -11 -4 -17 -11 -25v0c-13 -12 -35 -20 -57 -13c-11 5 -17 11 -25 18c-4 4 -8 0 -8 0
c-19 2 -41 2 -63 3l76 -106c-3 7 -7 16 -2 27c2 10 10 23 30 28c14 4 25 4 34 0c15 -9 19 -24 22 -33v-4c11 3 25 -5 27 -19c3 -11 -6 -22 -21 -25c-22 -5 -37 4 -44 16v-4c-2 -10 -6 -19 -18 -26l49 -69h-100l-45 64c-9 -10 -20 -15 -32 -11c-11 -4 -23 -16 -30 -22
c-25 -20 -54 -37 -80 -26l-3 1v0c-17 10 -22 33 -18 49c8 20 21 27 35 28c8 6 15 11 23 16c17 14 36 28 56 34l-38 53z" />
    <glyph glyph-name="y" unicode="y" 
d="M276 205c31 21 62 39 97 25c3 -3 7 -6 12 -10l77 129v1c-15 -9 -25 -14 -42 -6c-14 7 -18 21 -18 35c-12 -16 -30 -25 -58 -28c-13 0 -25 0 -36 4c2 -14 1 -31 -6 -51c-9 -20 -20 -38 -35 -51c-2 -4 -5 -8 -8 -13c8 -9 11 -22 13 -34l2 -2zM196 -225h-40v81h40h6
c51 1 70 13 78 55c-26 -6 -43 24 -55 42c-4 5 -6 9 -10 13c-4 -13 -7 -20 -11 -28c-10 -33 -19 -58 -41 -67c-13 -7 -30 0 -40 14c-3 -14 -10 -25 -19 -38c-7 -4 -13 -4 -16 -4v0c-14 0 -23 4 -29 17c-8 11 -8 33 0 45c0 4 -4 17 -4 19c0 14 -4 22 -4 34c0 37 17 48 26 53
c24 12 43 -12 63 -36c2 -5 2 -5 6 -9v4c13 33 27 74 56 82c32 12 58 -24 71 -46c3 -7 7 -11 11 -15v6v33l-28 47c-44 -9 -82 8 -106 36c-26 67 -24 66 -14 104c-23 -6 -47 5 -64 17c-21 20 -22 54 1 77c8 11 20 17 33 18l-14 23c-8 9 -10 21 -8 33v141h81v-140l8 -14
c2 3 5 5 7 7l-3 3c-11 20 -1 46 19 55l3 4l-4 2c-1 12 -10 38 6 56c19 22 47 21 63 19c20 -2 36 -10 47 -25c7 23 20 38 44 45c20 10 46 -1 55 -24c8 -18 4 -36 -12 -49l3 -10c1 -3 3 -6 4 -9l1 2c8 14 25 16 39 8c11 -5 17 -19 17 -30c7 3 14 6 22 7v93h81v-134
c12 -12 10 -33 10 -51c-3 -5 -3 -11 -3 -13c3 -7 6 -15 3 -23c-5 -12 -13 -20 -28 -20h-4l-4 3c-6 2 -10 6 -14 11l-85 -144l2 -1c2 3 4 6 4 7c18 20 35 43 63 41c8 0 13 -3 21 -4c6 9 10 16 21 23c15 9 37 0 43 -15c7 -14 3 -28 -5 -37c-2 -8 -5 -20 -6 -27
c1 -12 -2 -22 -2 -29c-7 -27 -24 -36 -36 -36c-11 -3 -30 4 -39 27c-2 5 -4 14 -5 18c0 0 2 3 -1 4c-1 -3 -3 -5 -3 -5c-6 -6 -13 -15 -21 -21c1 -17 -4 -34 -15 -50c-9 -10 -23 -23 -32 -28c-28 -18 -26 -18 -26 -43c0 -8 6 -6 6 -6l4 1c50 -6 95 -23 121 -134
c2 -30 -16 -57 -40 -60c-29 -6 -55 11 -57 42c-8 36 -14 45 -19 49c0 0 -6 1 -10 0c-12 1 -32 3 -50 13c-14 -68 -52 -109 -162 -109z" />
    <glyph glyph-name="z" unicode="z" 
d="M85 0v57l25 27l38 42c3 5 6 9 11 12l170 189c3 6 7 12 12 16l9 6l86 96h-27c-7 -2 -13 -4 -19 -4h-17c-4 2 -8 3 -13 4h-16c-17 -13 -36 -16 -46 -18c-23 0 -42 8 -61 18h-50c2 -2 3 -5 5 -7c25 -37 49 -73 33 -105c-4 -12 -17 -25 -44 -37h-18l-23 3l-17 12
c-8 19 0 34 21 43h4c4 9 -17 43 -29 60c-9 10 -16 20 -22 31h-12v29c-5 14 -4 25 0 33v19h14c6 5 11 9 16 13c47 38 94 9 125 -13h327v-57l-41 -44v0l-17 -19c5 -7 8 -15 12 -22l2 -3c12 0 22 -9 27 -30c7 -21 -2 -41 -20 -50c-22 -12 -37 0 -50 17c4 -8 4 -15 4 -21
c0 -22 -12 -46 -33 -63c-13 -8 -22 -12 -35 -12l-5 1c-5 1 -11 4 -15 7c-9 7 -16 17 -21 27l-132 -147c1 -1 1 -3 2 -4c7 -13 24 -18 32 -21c-1 0 -1 -1 3 6c0 38 23 70 108 81c22 0 42 -14 42 -32c3 -23 -12 -41 -34 -41c-27 -4 -35 -8 -39 -11v-7h105c-1 5 -1 11 1 18
c3 10 10 23 31 28c13 4 25 4 34 0c14 -9 19 -23 22 -32v-5c10 3 25 -4 27 -19c1 -8 -3 -15 -10 -20v-51h-482z" />
    <glyph glyph-name="braceright" unicode="}" horiz-adv-x="605" 
 />
    <glyph glyph-name="asciitilde" unicode="~" 
d="M587 449c37 -101 -20 -168 -98 -195c-79 -30 -166 -15 -202 86c-15 41 -46 57 -98 38c-49 -18 -64 -54 -50 -92l-76 -28c-37 101 20 167 98 195c79 30 166 15 202 -86c15 -41 46 -57 98 -38c49 18 64 54 50 92z" />
    <glyph glyph-name="Adieresis" unicode="&#xc4;" 
d="M178 732v105h107v-105h-107zM366 732v105h107v-105h-107zM434 190l-108 310l-109 -310h217zM499 0l-17 50l-20 59h-273l-20 -59l-17 -50h-82l20 58l197 577v0l10 29h57l10 -29v0l197 -577l20 -58h-82z" />
    <glyph glyph-name="Odieresis" unicode="&#xd6;" 
d="M178 732v105h106v-105h-106zM366 732v105h107v-105h-107zM325 0c-90 0 -241 43 -241 332s151 332 241 332c89 0 240 -43 240 -332s-151 -332 -240 -332zM325 81c48 0 84 16 110 49c33 41 49 109 49 202s-16 161 -49 203c-26 32 -62 48 -110 48v0c-49 0 -85 -16 -111 -48
c-33 -42 -49 -110 -49 -203s16 -161 49 -202c26 -33 62 -49 111 -49z" />
    <glyph glyph-name="Udieresis" unicode="&#xdc;" 
d="M178 732v105h107v-105h-107zM366 732v105h107v-105h-107zM485 0v54c-44 -36 -102 -54 -160 -54h-5c-60 1 -116 22 -159 58c-46 39 -72 93 -76 159v5v442h81v-432c0 -104 80 -151 159 -151c80 0 160 47 160 151v432h81v-664h-81z" />
    <glyph glyph-name="agrave" unicode="&#xe0;" horiz-adv-x="500" 
 />
    <glyph glyph-name="iacute" unicode="&#xed;" horiz-adv-x="605" 
 />
    <glyph glyph-name="odieresis" unicode="&#xf6;" 
d="M178 559v105h106v-105h-106zM366 559v105h107v-105h-107zM324 0c-120 0 -240 79 -240 231v65v2c2 149 121 228 240 228c121 0 241 -80 241 -230v0v-65c0 -152 -120 -231 -241 -231zM165 231c0 -103 80 -150 159 -150c92 0 160 61 160 150v63c0 89 -68 151 -160 151
c-79 0 -159 -47 -159 -151v-63z" />
    <glyph glyph-name="udieresis" unicode="&#xfc;" 
d="M285 559h-107v105h107v-105zM473 559h-107v105h107v-105zM485 0v54c-44 -36 -102 -54 -160 -54c-120 0 -240 79 -240 231v295h81v-295c0 -103 80 -150 159 -150c92 0 160 61 160 150v295h81v-526h-81z" />
    <glyph glyph-name="cent" unicode="&#xa2;" 
d="M165 283v-1c0 -86 55 -133 119 -147v394c-64 -14 -119 -61 -119 -147v-99zM284 -55v108c-47 7 -90 26 -124 55c-50 42 -76 102 -76 174v1v0v99c0 135 95 213 200 229v89h81v-88c126 -13 200 -89 200 -200h-81c0 52 -29 106 -119 118v-397c81 11 119 55 119 119h81
c0 -111 -74 -187 -200 -200v-107h-81z" />
    <glyph glyph-name="sterling" unicode="&#xa3;" 
d="M82 0v81h40l60 16c15 4 46 21 34 71l-31 117h-85v81h63l-8 30c-41 147 22 246 137 275c117 34 218 -22 259 -168l-80 -21c-23 87 -70 135 -158 113c-76 -20 -108 -78 -81 -177l14 -52h182v-81h-160l24 -89c0 -2 1 -4 1 -6c11 -37 11 -76 -6 -109h276v-81h-481z" />
    <glyph glyph-name="acute" unicode="&#xb4;" 
 />
    <glyph glyph-name="plusminus" unicode="&#xb1;" 
d="M96 103v81h189v163h-189v81h189v206h81v-206h188v-81h-188v-163h188v-81h-458z" />
    <glyph glyph-name="yen" unicode="&#xa5;" 
d="M283 0v174h-187v72h187v90h-187v72h138l-157 256h90l156 -255l156 255h90l-157 -256h141v-72h-189v-90h189v-72h-189v-174h-81z" />
    <glyph glyph-name="exclamdown" unicode="&#xa1;" horiz-adv-x="500" 
 />
    <glyph glyph-name="emdash" unicode="&#x2014;" 
d="M84 280v81h481v-81h-481z" />
    <glyph glyph-name="quoteleft" unicode="&#x2018;" 
d="M256 647v138h137v-138h-137z" />
    <glyph glyph-name="quoteright" unicode="&#x2019;" 
d="M256 647v138h137v-138h-137z" />
    <glyph glyph-name="divide" unicode="&#xf7;" 
d="M249 529c0 42 36 75 76 75c42 0 76 -33 76 -75c0 -40 -34 -76 -76 -76c-40 0 -76 36 -76 76zM96 299v81h458v-81h-458zM249 147c0 42 36 75 76 75c42 0 76 -33 76 -75c0 -41 -34 -76 -76 -76c-40 0 -76 35 -76 76z" />
    <glyph glyph-name="ydieresis" unicode="&#xff;" 
d="M473 534h-107v105h107v-105zM178 534v105h106v-105h-106zM196 -250h-40v81h40c82 0 88 25 88 141v33l-192 322c-8 9 -10 21 -8 33v141h81v-140l160 -267l159 267v140h81v-150c0 -8 -2 -15 -7 -21l-1 -3l-192 -322v-61v-4c-2 -116 -21 -190 -169 -190z" />
    <glyph glyph-name="uniFB02" unicode="&#xfb02;" 
d="M138 0v445h-65v81l65 2c1 150 103 228 222 228c120 0 212 -78 212 -230v-526h-81v526c0 89 -39 149 -131 149c-79 0 -141 -47 -141 -149h178v-81h-178v-445h-81z" />
    <glyph glyph-name="Apostrophe" horiz-adv-x="605" 
d="M211 577l40 223h143l-40 -223h-143z" />
    <glyph glyph-name="uni203D" unicode="&#x203d;" 
d="M450 314c0 -71 -37 -141 -133 -141s-133 70 -133 141c0 79 48 118 104 129v151c-25 -13 -42 -40 -42 -77h-81c0 71 37 167 160 167s160 -96 160 -167c0 -67 -45 -128 -116 -146v-57h81zM369 458l2 1c18 10 33 27 33 58c0 33 -14 59 -35 73v-132zM288 262v96
c-20 -12 -23 -32 -23 -44c0 -29 11 -44 23 -52zM256 69c0 38 31 69 68 69c39 0 69 -31 69 -69c0 -37 -30 -69 -69 -69c-37 0 -68 32 -68 69z" />
    <glyph glyph-name="uni2042" unicode="&#x2042;" 
d="M348 453v-82h-46v81l-57 -57l-33 32l58 58h-82v47h81l-57 57l33 33l57 -58v81h46v-81l58 58l32 -33l-57 -57h81v-47h-81l57 -58l-32 -32zM526 108v-81h-47v80l-56 -57l-34 33l57 57h-80v47h81l-58 58l34 32l56 -56v80h47v-82l58 58l32 -32l-57 -58h81v-47h-81l57 -57
l-32 -33zM170 107v-80h-47v80l-57 -57l-33 33l57 57h-80v47h81l-58 58l33 32l57 -57v81h47v-81l57 57l33 -32l-58 -58h81v-47h-80l57 -57l-33 -33z" />
    <glyph glyph-name="nine-2" horiz-adv-x="500" 
 />
    <glyph glyph-name="uniFB01-2" 
d="M147 0v445h-65v81l65 2c1 150 94 228 213 228c120 0 203 -78 203 -230v-526h-81v526c0 89 -30 149 -122 149c-79 0 -132 -47 -132 -149h178v-81h-178v-445h-81z" />
    <glyph glyph-name="a-4" horiz-adv-x="605" 
d="M462 0v54c-44 -36 -102 -54 -160 -54c-120 0 -240 79 -240 231v63c0 152 120 232 240 232c58 0 116 -18 160 -54v54h81v-526h-81zM143 231c0 -103 80 -150 159 -150c92 0 160 61 160 150v63c0 89 -68 151 -160 151c-79 0 -159 -47 -159 -151v-63z" />
    <glyph glyph-name="at-3" horiz-adv-x="605" 
d="M300 44c-152 0 -231 121 -231 240c0 24 3 49 10 72c-7 23 -10 47 -10 71c0 121 79 242 231 242s231 -121 231 -242c0 -24 -3 -48 -10 -71c7 -23 10 -48 10 -72c0 -119 -79 -240 -231 -240zM443 479v1c-19 64 -72 108 -143 108s-125 -44 -143 -109c37 29 84 47 143 47
s106 -18 143 -47zM300 268c72 0 116 38 136 87c-23 54 -72 90 -136 90s-113 -35 -136 -90c21 -49 65 -87 136 -87zM300 435c43 0 79 -34 79 -79c0 -43 -36 -78 -79 -78c-41 0 -78 36 -78 78c0 45 37 79 78 79zM300 125c82 0 128 50 144 110c-37 -30 -85 -48 -144 -48
s-107 18 -144 47c16 -59 63 -109 144 -109z" />
    <glyph glyph-name="zero-2" 
d="M248 514l-4 3c-16 11 -21 32 -22 51c-24 -16 -40 -45 -48 -84c8 4 16 6 25 7c22 5 35 -4 49 -13c13 -9 36 -42 18 -93c-10 -20 -21 -39 -35 -51c-11 -20 -42 -60 -34 -69c10 -2 30 14 43 21c5 4 10 7 15 10l127 229v1c-7 7 -10 20 -16 23c-11 0 -35 -14 -46 -21
c-23 -12 -44 -24 -62 -17c-5 -1 -7 1 -10 3zM375 81h5c35 1 60 17 76 46c-5 -2 -11 -3 -18 -3c-14 0 -34 3 -47 30c-11 18 -7 38 8 48c16 6 33 6 43 -7c9 6 23 14 39 17c3 20 4 41 4 65v110v7c0 33 -3 62 -8 87c-8 -6 -16 -10 -26 -11l-96 -174c7 -8 14 -18 15 -33
c2 -12 6 -17 4 -28l-1 -4c-7 -15 -22 -30 -42 -35c-12 -2 -20 1 -30 3l-62 -112c11 -4 23 -6 36 -6h100zM375 0h-100c-126 2 -190 119 -191 263v33c-17 1 -35 10 -48 19c-21 20 -23 54 0 76c12 17 31 23 48 18c1 157 77 255 191 255h100h5c56 -1 102 -27 135 -71h6
c7 0 13 -3 21 -4c5 9 10 17 21 23c15 9 37 0 43 -14c7 -15 3 -28 -6 -37c-1 -8 -4 -21 -5 -27c1 -13 -2 -23 -2 -30c-6 -23 -20 -33 -32 -35c4 -21 5 -43 5 -67v-139c0 -29 -3 -57 -8 -83c42 -44 15 -76 4 -90c0 -4 5 -6 11 -10c14 -14 18 -33 4 -48c-8 -9 -18 -14 -27 -14
c-8 0 -14 5 -20 8c-13 11 -23 21 -29 31c-31 -35 -73 -56 -126 -57z" />
  </font>
</defs>
</svg>
