<?xml version="1.0" standalone="no"?>
<!DOCTYPE svg PUBLIC "-//W3C//DTD SVG 1.1//EN" "http://www.w3.org/Graphics/SVG/1.1/DTD/svg11.dtd" >
<svg xmlns="http://www.w3.org/2000/svg" xmlns:xlink="http://www.w3.org/1999/xlink" version="1.1">
<metadata>
Created by FontForge 20170924 at Sun May 20 03:15:08 2012
 By www-data
Copyright (c) 2012 by Sang Mun. All rights reserved.
</metadata>
<defs>
<font id="ZXX-Sans" horiz-adv-x="650" >
  <font-face 
    font-family="ZXX"
    font-weight="400"
    font-stretch="normal"
    units-per-em="1000"
    panose-1="0 0 0 0 0 0 0 0 0 0"
    ascent="770"
    descent="-230"
    x-height="526"
    cap-height="664"
    bbox="10 -230 870 930"
    underline-thickness="50"
    underline-position="-100"
    unicode-range="U+0020-FB02"
  />
<missing-glyph horiz-adv-x="500" 
d="M50 -230v950h400v-950h-400zM100 -180h300v850h-300v-850z" />
    <glyph glyph-name=".notdef" horiz-adv-x="500" 
d="M50 -230v950h400v-950h-400zM100 -180h300v850h-300v-850z" />
    <glyph glyph-name="onehalf" unicode="&#xbd;" 
d="M191 0h-99l190 343h-176c-11 0 -20 9 -20 21c0 10 9 19 20 19h107v252h-107c-11 0 -20 9 -20 20s9 20 20 20h128c11 0 20 -9 20 -20v-272h50l155 281h99l-196 -354c21 14 48 22 74 22c60 0 120 -39 120 -110c2 -7 0 -14 -5 -20l-165 -161h130v53c0 10 9 19 20 19
s20 -9 20 -19v-73c0 -12 -9 -21 -20 -21h-200l-5 1c-2 0 -4 1 -5 2c-2 1 -4 2 -5 3c-8 8 -7 21 0 29l195 190c-2 20 -11 36 -24 48c-14 12 -35 19 -56 19c-40 0 -80 -24 -80 -76c0 -11 -9 -20 -20 -20s-20 9 -20 20v11z" />
    <glyph glyph-name="onequarter" unicode="&#xbc;" 
d="M92 0l190 343h-176c-10 0 -19 9 -19 21c0 10 9 19 19 19h107v252h-107c-10 0 -19 9 -19 20s9 20 19 20h128c11 0 20 -9 20 -20v-272h50l155 281h99l-367 -664h-99zM545 0c-12 0 -21 9 -21 21v52h-180l-5 1v0c1 -1 3 -1 -1 0c-3 1 -6 2 -8 4c-7 7 -8 17 -4 25c2 2 3 4 5 5
l198 218c8 8 21 9 29 1c5 -5 8 -12 6 -19v-287c0 -12 -9 -21 -19 -21zM524 113v148l-135 -148h135z" />
    <glyph glyph-name="threequarters" unicode="&#xbe;" 
d="M92 0l206 373c-19 -18 -48 -30 -86 -30h-1h-4v0c-30 0 -59 8 -81 23c-26 17 -39 44 -39 75c0 11 9 20 19 20c12 0 21 -9 21 -20c0 -40 41 -58 80 -58c38 0 79 18 79 57c-2 24 -25 49 -74 49h-33c-11 0 -20 9 -20 20s9 20 20 20h33c51 0 74 28 74 52c-1 16 -8 28 -22 38
c-15 10 -35 16 -58 16c-38 0 -79 -18 -79 -57c0 -12 -9 -21 -21 -21c-10 0 -19 9 -19 21c0 64 60 97 119 97h5h1c75 0 115 -47 115 -93v-2v-2v-2c-2 -26 -16 -50 -41 -67c25 -16 39 -41 41 -66v-2v-2v-2c0 -5 0 -9 -1 -14l133 241h99l-367 -664h-99zM545 0
c-12 0 -21 9 -21 21v52h-180l-5 1v0c1 -1 3 -1 -1 0c-3 1 -6 2 -8 4c-7 7 -8 17 -4 25c2 2 3 4 5 5l198 218c8 8 21 9 29 1c5 -5 8 -12 6 -19v-287c0 -12 -9 -21 -19 -21zM524 113v148l-135 -148h135z" />
    <glyph glyph-name="minus" unicode="&#x2212;" 
d="M554 405v-81h-458v81h458z" />
    <glyph glyph-name="multiply" unicode="&#xd7;" 
d="M471 143l-146 146l-146 -146l-57 58l146 146l-146 145l57 58l146 -146l146 146l57 -58l-145 -145l145 -146z" />
    <glyph glyph-name="space" unicode=" " 
 />
    <glyph glyph-name="exclam" unicode="!" 
d="M284 200v475h81v-475h-81zM256 0v138h137v-138h-137z" />
    <glyph glyph-name="quotedbl" unicode="&#x22;" 
d="M492 577h-129l36 201h129zM123 577l36 201h128l-36 -201h-128z" />
    <glyph glyph-name="numbersign" unicode="#" 
d="M414 242l21 179h-189l-21 -179h189zM215 161l-20 -161h-81l20 161h-63l10 81h63l21 179h-81l10 81h81l20 162h81l-20 -162h189l20 162h81l-20 -162h63l-10 -81h-63l-21 -179h81l-10 -81h-81l-20 -161h-81l20 161h-189z" />
    <glyph glyph-name="dollar" unicode="$" 
d="M284 366v206c-62 -11 -119 -47 -119 -107c2 -44 40 -90 119 -99zM365 76l1 1c62 10 118 46 118 105c-2 44 -40 90 -119 99v-205zM284 -85v79c-45 5 -87 21 -120 43c-52 36 -80 89 -80 150v40h81v-40v-5c3 -61 58 -95 119 -106v208c-123 11 -190 88 -199 167
c-1 3 -1 6 -1 9v5v4c0 86 68 174 200 186v75h81v-77c106 -13 200 -80 200 -193v-40h-81v40v5c-2 33 -16 59 -45 78c-20 14 -46 24 -74 28v-208c123 -11 191 -88 199 -168c1 -2 1 -5 1 -8v-4v-5c0 -86 -68 -174 -200 -186v-77h-81z" />
    <glyph glyph-name="percent" unicode="%" 
d="M362 523c0 -78 -64 -143 -142 -143s-142 65 -142 143s64 141 142 141s142 -63 142 -141zM220 449c40 0 74 33 74 74c0 40 -34 73 -74 73c-39 0 -73 -33 -73 -73c0 -41 34 -74 73 -74zM168 90h-90l405 484h90zM431 0c-78 0 -143 65 -143 142c0 79 65 142 143 142
s142 -63 142 -142c0 -77 -64 -142 -142 -142zM431 69c40 0 73 34 73 73c0 42 -33 74 -73 74c-38 0 -74 -32 -74 -74c0 -39 36 -73 74 -73z" />
    <glyph glyph-name="ampersand" unicode="&#x26;" 
d="M508 -18l-24 33l-19 28c-43 -30 -96 -45 -149 -45c-62 0 -120 21 -164 58c-50 42 -76 102 -76 174c0 89 46 159 117 193c-17 28 -26 65 -26 109c0 71 36 141 133 141h6c92 -3 127 -72 127 -141c0 -82 -32 -140 -89 -160l126 -189c4 14 6 30 6 47v131h81v-131v-6
c-1 -48 -14 -88 -35 -121l28 -41l23 -33l-32 -23l-1 -1h-1zM248 532v-3c-1 -28 -8 -85 52 -85c62 5 52 63 52 88c0 53 -35 60 -52 60v0c-17 0 -52 -7 -52 -60zM316 79c37 0 75 10 104 32l-164 247c-45 -11 -99 -45 -99 -128c0 -104 80 -151 159 -151z" />
    <glyph glyph-name="parenleft" unicode="(" 
d="M465 -90h-41c-126 2 -239 119 -240 263v301c-1 161 125 262 240 262h41v-81h-41c-79 0 -159 -74 -159 -196v-272c0 -122 80 -196 159 -196h41v-81z" />
    <glyph glyph-name="parenright" unicode=")" 
d="M184 -90v81h41c79 0 159 74 159 196v272c0 122 -80 196 -159 196h-41v81h41c115 0 241 -101 240 -262v-301c-1 -144 -114 -261 -240 -263h-41z" />
    <glyph glyph-name="asterisk" unicode="*" 
d="M366 362v-140h-81v140l-99 -99l-57 57l99 99h-141v81h141l-99 99l57 57l99 -99v140h81v-140l99 99l56 -57l-99 -99h141v-81h-141l99 -99l-56 -57z" />
    <glyph glyph-name="plus" unicode="+" 
d="M285 95v206h-189v81h189v206h81v-206h188v-81h-188v-206h-81z" />
    <glyph glyph-name="comma" unicode="," 
d="M185 -170h-45v90h45h6c64 1 84 18 90 80h-29v153h153v-153h-34c-7 -105 -40 -170 -186 -170z" />
    <glyph glyph-name="hyphen" unicode="-" 
d="M204 280v81h243v-81h-243z" />
    <glyph glyph-name="period" unicode="." 
d="M248 0v153h153v-153h-153z" />
    <glyph glyph-name="slash" unicode="/" 
d="M191 0h-99l367 664h99z" />
    <glyph glyph-name="zero" unicode="0" 
d="M375 81c80 0 110 74 110 196v110v0c0 122 -30 196 -110 196h-100v0c-80 0 -110 -74 -110 -196v-110v0c0 -122 30 -196 110 -196h100zM375 0h-100v0c-126 2 -190 119 -191 263v139c-1 161 75 262 191 262h100v0c116 0 192 -101 191 -262v-139c-1 -144 -65 -261 -191 -263z
" />
    <glyph glyph-name="one" unicode="1" 
d="M85 0v81h254v502l-205 -57v81l205 57h81v-583h146v-81h-481z" />
    <glyph glyph-name="two" unicode="2" 
d="M84 0v35c-1 4 -1 7 0 10v13l40 39v-1l359 353c-3 40 -19 72 -46 96c-29 25 -70 38 -112 38c-80 0 -160 -47 -160 -151v-40h-81v40v6c3 149 122 226 241 226c118 0 235 -76 240 -224c2 -13 -1 -27 -11 -37l-331 -322h261v146h81v-227h-481z" />
    <glyph glyph-name="three" unicode="3" 
d="M335 0h-2h-7v0c-61 0 -118 16 -161 46c-52 35 -80 88 -80 149v41h81v-41v0c0 -78 83 -114 160 -114c76 0 159 36 159 109c-3 50 -50 102 -150 102h-104v81h104c100 0 147 52 150 101c-2 32 -16 58 -45 78s-71 31 -115 31c-76 0 -159 -36 -159 -114v-41h-81v41v6
c3 124 122 189 240 189h8h2c152 0 231 -93 231 -186v-4v-5c0 -3 0 -6 -1 -9c-5 -49 -32 -96 -81 -128c49 -32 76 -79 81 -128c1 -3 1 -6 1 -9v-4v-5c0 -92 -79 -186 -231 -186z" />
    <glyph glyph-name="four" unicode="4" 
d="M486 227v293l-268 -293h268zM486 0v146h-360l-30 67l413 451h58v-664h-81z" />
    <glyph glyph-name="five" unicode="5" 
d="M334 0h-2h-7v0c-63 0 -121 21 -165 58c-50 42 -76 102 -76 174v41h81v-41v-6c3 -100 82 -145 160 -145c43 0 86 14 117 43c28 31 42 74 42 117c0 79 -47 160 -150 160h-250v263h481v-81h-400v-101h178h5c143 -8 217 -125 217 -241v-7v-2c0 -76 -30 -134 -74 -173
c-38 -36 -91 -59 -157 -59z" />
    <glyph glyph-name="six" unicode="6" 
d="M333 0h-13c-61 1 -117 22 -160 58c-47 39 -73 94 -76 160v23c-1 4 -1 7 -1 9c0 8 0 16 1 23v173l1 3c8 142 124 215 240 215c120 0 240 -79 240 -232v-40h-47c29 -37 46 -84 46 -142v-10c1 -2 1 -5 1 -8c0 -79 -32 -139 -81 -178c-38 -33 -88 -54 -151 -54zM484 428v4
c0 48 -16 86 -47 113c-29 25 -70 38 -112 38c-80 0 -160 -47 -160 -151v-4c44 36 101 54 168 54h5c62 0 109 -21 146 -54zM325 81c39 0 78 12 108 35c34 32 50 78 50 125c0 43 -13 86 -42 117c-2 1 -4 3 -5 5c-29 24 -70 38 -112 38c-78 0 -157 -45 -160 -144v-17
c1 -2 1 -5 1 -8c0 -104 80 -151 160 -151z" />
    <glyph glyph-name="seven" unicode="7" 
d="M96 -1l389 457v127h-360h-1v0h-40v81h40v0h1h440v-31c1 -3 1 -6 1 -9v-177c1 -5 0 -10 -1 -15v-1c-1 -1 -1 -1 -1 -2s-1 -2 -1 -3v-1c-1 -1 -1 -2 -2 -3l-6 -9l-352 -414h-107z" />
    <glyph glyph-name="eight" unicode="8" 
d="M334 0h-2h-7h-5h-3h-2h-7c-147 3 -224 95 -224 186v4v5c0 3 0 6 1 9c5 49 32 96 81 128c-49 32 -76 79 -81 128c-1 3 -1 6 -1 9v4v5c0 93 79 186 231 186h2h7h8h2c152 0 231 -93 231 -186v-4v-5c0 -3 0 -6 -1 -9c-5 -49 -32 -96 -81 -128c49 -32 76 -79 81 -128
c1 -3 1 -6 1 -9v-4v-5c0 -92 -79 -186 -231 -186zM334 373c100 0 147 52 150 101c-2 32 -16 58 -45 78s-71 31 -115 31c-76 0 -159 -36 -159 -109c3 -49 50 -101 150 -101h19zM315 292h-7c-95 -3 -140 -53 -143 -102c4 -75 85 -109 160 -109c76 0 159 36 159 109
c-3 50 -50 102 -150 102h-19z" />
    <glyph glyph-name="nine" unicode="9" 
d="M326 263c79 0 159 47 159 151v18c0 48 -16 86 -47 113c-29 24 -70 38 -112 38c-43 0 -85 -13 -116 -41c-30 -31 -44 -75 -44 -119c0 -43 13 -85 41 -116c31 -30 75 -44 119 -44zM307 0h-40v81h40v0c82 0 178 24 178 141v14c-44 -36 -102 -54 -159 -54h-5h-3h-2h-6
c-61 1 -109 22 -146 54l-3 3c-50 43 -76 103 -76 175v1v8v7v2c0 70 25 124 64 163c39 42 95 69 167 69h2h8c116 0 232 -75 240 -217v-6v-219c0 -66 -23 -123 -68 -162c-46 -39 -110 -60 -191 -60z" />
    <glyph glyph-name="colon" unicode=":" 
d="M241 465v168h168v-168h-168zM241 41v168h168v-168h-168z" />
    <glyph glyph-name="semicolon" unicode=";" 
d="M241 465v168h168v-168h-168zM182 -122h-45v90h45h6c62 1 82 17 89 73h-36v168h168v-168h-41c-9 -101 -43 -163 -186 -163z" />
    <glyph glyph-name="equal" unicode="=" 
d="M554 396h-458v81h458v-81zM96 234v81h458v-81h-458z" />
    <glyph glyph-name="question" unicode="?" 
d="M317 254c17 0 52 7 52 60h81c0 -71 -37 -141 -133 -141s-133 70 -133 141c0 96 70 133 141 133c17 0 79 8 79 70c0 53 -35 86 -79 86s-79 -33 -79 -86h-81c0 71 37 167 160 167s160 -96 160 -167c0 -80 -64 -151 -160 -151v0c-53 0 -60 -35 -60 -52c0 -53 35 -60 52 -60z
M249 69c0 38 31 69 68 69c39 0 69 -31 69 -69c0 -37 -30 -69 -69 -69c-37 0 -68 32 -68 69z" />
    <glyph glyph-name="at" unicode="@" 
d="M357 -45c-188 0 -294 179 -294 380c0 165 97 325 274 325h3c150 -2 246 -142 246 -262c0 -62 -21 -133 -62 -188v-97h-81v29c-26 -13 -55 -20 -88 -20c-93 0 -170 76 -170 169s77 169 170 169c64 0 120 -37 149 -90c1 10 2 19 2 28c0 92 -79 181 -168 181
c-116 0 -195 -107 -195 -244c0 -160 75 -299 214 -299h41v-81h-41zM443 291c0 49 -41 88 -88 88c-46 0 -88 -39 -88 -88c0 -47 42 -88 88 -88c47 0 88 40 88 88z" />
    <glyph glyph-name="A" unicode="A" 
d="M434 190l-108 310l-109 -310h217zM499 0l-17 50l-20 59h-273l-20 -59l-17 -50h-82l20 58l197 577v0l10 29h57l10 -29v0l197 -577l20 -58h-82z" />
    <glyph glyph-name="B" unicode="B" 
d="M334 373h7c98 3 143 56 143 105c0 50 -47 105 -150 105h-169v-210h169zM334 292h-169v-211h169c103 0 150 55 150 105c0 51 -47 106 -150 106zM84 0v664h259h4c143 -5 218 -96 218 -186c0 -55 -28 -110 -82 -146c54 -36 82 -91 82 -146c0 -89 -75 -181 -218 -186h-4h-259
z" />
    <glyph glyph-name="C" unicode="C" 
d="M565 232c0 -153 -120 -232 -241 -232h-5c-60 1 -116 22 -159 58c-47 39 -72 94 -76 160v5v219v6c8 142 124 216 240 216c121 0 241 -79 241 -232h-81v0c0 48 -16 86 -47 113c-29 25 -70 38 -113 38c-79 0 -159 -47 -159 -151v-200c0 -104 80 -151 159 -151
c80 0 160 47 160 151h81z" />
    <glyph glyph-name="D" unicode="D" 
d="M334 81c44 0 81 24 108 71c27 46 42 112 42 180c0 125 -51 251 -150 251h-170v-502h170zM84 0v664h259c2 0 4 0 7 -1c66 -5 123 -43 162 -110c34 -59 53 -137 53 -221s-19 -162 -53 -220c-39 -67 -96 -106 -162 -111c-2 -1 -5 -1 -7 -1h-259z" />
    <glyph glyph-name="E" unicode="E" 
d="M84 0v664h481v-81h-400v-210h254v-81h-254v-211h400v-81h-481z" />
    <glyph glyph-name="F" unicode="F" 
d="M84 0v664h481v-81h-400v-173h327v-81h-327v-329h-81z" />
    <glyph glyph-name="G" unicode="G" 
d="M565 337v-114v-6c-8 -143 -124 -217 -241 -217h-5c-60 1 -116 22 -159 58c-47 39 -72 94 -76 160v5v219v6c8 142 124 216 240 216c121 0 241 -79 241 -232h-81c0 48 -16 86 -47 113c-29 25 -70 38 -113 38c-79 0 -159 -47 -159 -151v-200c0 -104 80 -151 159 -151
c80 0 160 47 160 151v24h-182v81h263z" />
    <glyph glyph-name="H" unicode="H" 
d="M84 0v664h81v-254h319v254h81v-664h-81v329h-319v-329h-81z" />
    <glyph glyph-name="I" unicode="I" 
d="M84 0v81h200v502h-200v81h481v-81h-200v-502h200v-81h-481z" />
    <glyph glyph-name="J" unicode="J" 
d="M325 0c-62 0 -120 21 -164 58c-50 42 -76 102 -76 174v41h81v-41v0c0 -104 80 -151 159 -151c80 0 160 47 160 151v351h-254v81h335v-432c0 -153 -120 -232 -241 -232z" />
    <glyph glyph-name="K" unicode="K" 
d="M84 0v664h81v-291h37l239 274l15 17h16h7h86l-72 -82v0l-218 -250l231 -264l3 -4l56 -64h-109l-29 34v0l-226 258h-36v-292h-81z" />
    <glyph glyph-name="L" unicode="L" 
d="M84 0v664h81v-583h400v-81h-481z" />
    <glyph glyph-name="M" unicode="M" 
d="M165 0h-81v664h81l159 -527l160 527h81v-664h-81v394l-119 -394h-81l-119 394v-394z" />
    <glyph glyph-name="N" unicode="N" 
d="M165 0h-81v664h81l319 -512v512h81v-664h-81l-319 512v-512z" />
    <glyph glyph-name="O" unicode="O" 
d="M325 0c-90 0 -241 43 -241 332s151 332 241 332c89 0 240 -43 240 -332s-151 -332 -240 -332zM325 81c48 0 84 16 110 49c33 41 49 109 49 202s-16 161 -49 203c-26 32 -62 48 -110 48v0c-49 0 -85 -16 -111 -48c-33 -42 -49 -110 -49 -203s16 -161 49 -202
c26 -33 62 -49 111 -49z" />
    <glyph glyph-name="P" unicode="P" 
d="M334 263c103 0 150 81 150 160c0 80 -47 160 -150 160h-169v-320h169zM84 0v664h259h5c143 -8 217 -125 217 -241s-74 -233 -217 -241h-5h-178v-182h-81z" />
    <glyph glyph-name="Q" unicode="Q" 
d="M517 -16l-24 33l-63 88l-136 -98c-6 -4 -13 -6 -20 -7v0h-2h-5h-93c-50 0 -89 40 -89 89v486c0 50 39 89 89 89h303c50 0 89 -39 89 -89v-352c0 -13 -6 -26 -17 -33l-53 -38l63 -88l23 -33l-32 -23l-1 -1h-1zM166 89l1 -4c1 -2 4 -4 7 -4h84l125 90l-72 101l-24 33l28 20
c2 1 3 3 5 4l7 4l27 19l23 -33v0l72 -101l36 26v331v0c0 5 -3 8 -8 8h-303v0c-5 0 -8 -3 -8 -8v-486z" />
    <glyph glyph-name="R" unicode="R" 
d="M334 263c103 0 150 81 150 160c0 80 -47 160 -150 160h-169v-320h169zM165 0h-81v664h259h5c143 -8 217 -125 217 -241c0 -89 -44 -179 -129 -219l118 -204h-94l-105 183c-2 0 -4 -1 -7 -1h-5h-178v-182z" />
    <glyph glyph-name="S" unicode="S" 
d="M334 0h-2h-8v0c-60 0 -117 16 -160 46c-52 35 -80 88 -80 149v41h81v-41v0c0 -78 83 -114 159 -114c77 0 160 36 160 109c-3 50 -50 102 -150 102h-23v0c-140 2 -217 82 -226 168c-1 3 -1 6 -1 9v4v5c0 93 79 186 231 186h2h7c121 0 241 -67 241 -195v-41h-81v41v0
c0 34 -15 62 -45 83c-29 20 -71 31 -115 31c-76 0 -159 -36 -159 -109c3 -49 50 -101 150 -101h19h7c138 -3 214 -84 223 -169c1 -3 1 -6 1 -9v-4v-5c0 -92 -79 -186 -231 -186z" />
    <glyph glyph-name="T" unicode="T" 
d="M284 0v583h-119v-155h-81v236h481v-236h-81v155h-119v-583h-81z" />
    <glyph glyph-name="U" unicode="U" 
d="M485 0v54c-44 -36 -102 -54 -160 -54h-5c-60 1 -116 22 -159 58c-46 39 -72 93 -76 159v5v442h81v-432c0 -104 80 -151 159 -151c80 0 160 47 160 151v432h81v-664h-81z" />
    <glyph glyph-name="V" unicode="V" 
d="M325 0h-1h-3c1 0 3 0 -2 0c2 0 3 0 -1 0c-10 2 -18 7 -25 15l-1 2c-3 5 -6 10 -7 15l-193 428c-8 9 -10 21 -8 33v171h81v-175l160 -353l160 355v133h-1v40h81v-31c1 -3 1 -6 1 -9v-140c0 -9 -4 -19 -10 -26l-192 -426c-1 -5 -4 -10 -7 -15l-1 -2c-7 -8 -15 -13 -25 -15
c-2 0 -4 0 -1 0c-2 0 -4 0 -2 0h-3z" />
    <glyph glyph-name="W" unicode="W" 
d="M417 0h-5v0c-6 1 -11 3 -16 5c-14 8 -21 23 -20 38l-50 187l-51 -187c1 -15 -6 -30 -20 -38c-6 -3 -14 -5 -16 -5h-5h-5v0c-5 1 -11 3 -16 5c-13 9 -20 24 -19 38l-104 421c-6 9 -7 19 -5 28v132h-1v40h81v-31c1 -3 1 -6 1 -9v-139v-6l70 -283l49 185v37h81v-39l49 -184
l70 284v6v139h-1v40h81v-31c1 -3 1 -6 1 -9v-132c2 -9 1 -19 -5 -28l-104 -420c1 -15 -6 -30 -19 -39c-7 -3 -14 -5 -16 -5h-5z" />
    <glyph glyph-name="X" unicode="X" 
d="M168 0h-94l205 332l-205 332h94l157 -256l158 256h93l-204 -332l204 -332h-93l-158 256z" />
    <glyph glyph-name="Y" unicode="Y" 
d="M284 0v276l-178 128c-14 6 -22 20 -22 37v223h81v-203l160 -117l159 117v203h81v-223c0 -17 -8 -31 -22 -36l-178 -129v-276h-81z" />
    <glyph glyph-name="Z" unicode="Z" 
d="M84 0v36c-1 9 1 19 7 27l357 520h-283v-146h-81v227h437h8h36v-36c1 -9 -1 -19 -7 -27l-357 -520h283v146h81v-227h-481z" />
    <glyph glyph-name="bracketleft" unicode="[" 
d="M157 -90v826h335v-81h-254v-664h254v-81h-335z" />
    <glyph glyph-name="backslash" unicode="\" 
d="M191 664l367 -664h-99l-367 664h99z" />
    <glyph glyph-name="bracketright" unicode="]" 
d="M158 -90v81h254v664h-254v81h335v-826h-335z" />
    <glyph glyph-name="underscore" unicode="_" 
d="M84 0v81h481v-81h-481z" />
    <glyph glyph-name="a" unicode="a" 
d="M485 0v38c-38 -25 -91 -38 -159 -38h-5h-5c-152 0 -231 67 -231 186c0 121 79 188 231 188h5h5c66 0 118 -13 156 -37c-9 66 -44 108 -121 108h-204v81h204c121 0 205 -79 205 -231v0v-1v-294h-81zM321 81h5c103 0 150 26 150 105c0 92 -61 107 -150 107h-5h-5
c-89 0 -150 -15 -150 -107c0 -79 47 -105 150 -105h5z" />
    <glyph glyph-name="b" unicode="b" 
d="M324 81c80 0 160 47 160 151v62c0 89 -68 151 -160 151c-79 0 -159 -47 -159 -151v-62c0 -104 80 -151 159 -151zM165 0h-81v720h81v-248c44 36 102 54 159 54c121 0 241 -80 241 -230v0v-73v-6c-8 -143 -124 -217 -241 -217h-5c-58 1 -112 20 -154 54v-54z" />
    <glyph glyph-name="c" unicode="c" 
d="M343 0c-81 0 -145 21 -191 60c-45 39 -68 96 -68 162v5v4v65v2c2 149 121 228 240 228c121 0 241 -80 241 -232h-81c0 89 -68 151 -160 151c-79 0 -159 -47 -159 -151v-63v-4v-5c0 -117 96 -141 178 -141h222v-81h-222z" />
    <glyph glyph-name="d" unicode="d" 
d="M485 0v54c-43 -35 -99 -54 -159 -54h-5c-115 2 -228 76 -236 218v5v73v2c2 149 121 228 240 228c58 0 116 -18 160 -54v248h81v-720h-81zM326 81c79 0 159 47 159 151v62c0 89 -68 151 -160 151c-79 0 -159 -47 -159 -151v-62c0 -104 80 -151 160 -151z" />
    <glyph glyph-name="e" unicode="e" 
d="M343 0c-81 0 -145 21 -191 60c-45 39 -68 96 -68 162v4v4v0v1v65v2c2 149 121 228 240 228c121 0 241 -80 241 -232v-105h-397c17 -89 101 -108 175 -108h222v-81h-222zM484 294v5c-3 87 -70 146 -160 146c-79 0 -159 -47 -159 -151v-24h319v24z" />
    <glyph glyph-name="f" unicode="f" 
d="M85 0v81h137v364h-137v81h137c2 118 20 194 169 194h175v-81h-175c-75 0 -86 -21 -88 -113h178v-81h-178v-364h263v-81h-481z" />
    <glyph glyph-name="g" unicode="g" 
d="M166 231c0 -103 80 -150 159 -150c92 0 160 61 160 150v63c0 89 -68 151 -160 151c-79 0 -159 -47 -159 -151v-63zM307 -230h-40v81h40v0c82 0 178 24 178 141v62c-44 -36 -102 -54 -160 -54c-120 0 -240 79 -240 231v63c0 152 120 232 240 232c58 0 116 -18 160 -54v10
v4v0v40h81v-40v0v-4v-490c0 -66 -23 -123 -68 -162c-46 -39 -110 -60 -191 -60z" />
    <glyph glyph-name="h" unicode="h" 
d="M84 0v720h81v-248c44 36 102 54 159 54c121 0 241 -80 241 -232v-294h-81v294c0 89 -68 151 -160 151c-79 0 -159 -47 -159 -151v-294h-81z" />
    <glyph glyph-name="i" unicode="i" 
d="M260 590v130h131v-130h-131zM85 0v81h200v364h-160v81h241v-445h200v-81h-481z" />
    <glyph glyph-name="j" unicode="j" 
d="M344 590v130h131v-130h-131zM106 -230v81h85c82 0 178 25 178 141v453h-200v81h281v-534c0 -134 -98 -222 -259 -222h-85z" />
    <glyph glyph-name="k" unicode="k" 
d="M165 0h-81v720h81v-472l278 278h117l-245 -243l255 -283h-108l-203 227l-94 -93v-134z" />
    <glyph glyph-name="l" unicode="l" 
d="M84 0v81h200v558h-200v81h281v-639h200v-81h-481z" />
    <glyph glyph-name="m" unicode="m" 
d="M165 303v-303h-81v303c0 134 28 223 139 223h2c46 0 78 -15 99 -42c22 27 53 42 99 42h3c121 0 139 -89 139 -223v-303h-81v303c0 101 -5 141 -59 141c-55 0 -60 -40 -60 -141v-303h-81v303c0 100 -5 140 -60 140c-54 0 -59 -40 -59 -140z" />
    <glyph glyph-name="n" unicode="n" 
d="M84 0v294c0 152 120 232 241 232c120 0 240 -80 240 -232v-294h-81v294c0 104 -80 151 -159 151c-92 0 -160 -62 -160 -151v-294h-81z" />
    <glyph glyph-name="o" unicode="o" 
d="M324 0c-120 0 -240 79 -240 231v65v2c2 149 121 228 240 228c121 0 241 -80 241 -230v0v-65c0 -152 -120 -231 -241 -231zM165 231c0 -103 80 -150 159 -150c92 0 160 61 160 150v63c0 89 -68 151 -160 151c-79 0 -159 -47 -159 -151v-63z" />
    <glyph glyph-name="p" unicode="p" 
d="M484 294c0 104 -80 151 -159 151c-92 0 -160 -62 -160 -151v-63c0 -89 68 -150 160 -150c79 0 159 47 159 150v63zM84 -230v756h81v-54c44 36 102 54 160 54c120 0 240 -80 240 -232v-63c0 -152 -120 -231 -240 -231c-58 0 -116 18 -160 54v-284h-81z" />
    <glyph glyph-name="q" unicode="q" 
d="M166 231c0 -103 80 -150 159 -150c92 0 160 61 160 150v63c0 89 -68 151 -160 151c-79 0 -159 -47 -159 -151v-63zM485 -230v284c-44 -36 -102 -54 -160 -54c-120 0 -240 79 -240 231v63c0 152 120 232 240 232c58 0 116 -18 160 -54v54h81v-756h-81z" />
    <glyph glyph-name="r" unicode="r" 
d="M95 0v526h81v-54c45 36 102 54 160 54c120 0 214 -79 214 -231h-81c0 89 -42 150 -133 150c-80 0 -160 -47 -160 -151v-294h-81z" />
    <glyph glyph-name="s" unicode="s" 
d="M324 0c-48 0 -231 16 -231 168h81c0 -85 134 -87 150 -87c20 0 151 -11 151 87c0 17 -16 53 -69 53h-118c-71 0 -168 36 -168 133v0v1v19v1v0c0 107 120 151 205 151c84 0 204 -44 204 -151h-81c0 41 -71 70 -123 70c-56 0 -124 -26 -124 -70v0v-1v-19v-1v0
c0 -17 34 -52 87 -52h118c71 0 150 -37 150 -134v0c0 -161 -183 -168 -232 -168z" />
    <glyph glyph-name="t" unicode="t" 
d="M565 221v-2c0 -132 -9 -219 -169 -219h-3h-3c-161 0 -169 88 -169 222v223h-137v81h137v194h81v-194h178v-81h-178v-223c0 -116 6 -141 88 -141h3h3c82 0 88 25 88 141v41h81v-42z" />
    <glyph glyph-name="u" unicode="u" 
d="M485 0v54c-44 -36 -102 -54 -160 -54c-120 0 -240 79 -240 231v295h81v-295c0 -103 80 -150 159 -150c92 0 160 61 160 150v295h81v-526h-81z" />
    <glyph glyph-name="v" unicode="v" 
d="M325 0h-1h-3c1 0 3 0 -2 0c2 0 3 0 -1 0c-10 2 -18 7 -25 15l-201 337c-8 9 -10 21 -8 33v141h81v-140l160 -267l160 269v138h81v-150c0 -10 -4 -19 -10 -26l-200 -335c-7 -8 -15 -13 -25 -15c-2 0 -4 0 -1 0c-2 0 -4 0 -2 0h-3z" />
    <glyph glyph-name="w" unicode="w" 
d="M417 0h-1v0h-5c-4 1 -7 2 -11 3l-4 2c-5 3 -9 6 -12 10c-1 2 -2 3 -3 5l-56 93l-52 -87c-4 -9 -10 -16 -18 -21c-6 -3 -14 -5 -16 -5h-5h-5v0c-5 1 -11 3 -16 5c-7 5 -13 12 -16 20l-107 177c-6 9 -7 19 -5 28v296h81v-294l68 -113l51 85v214h81v-216l50 -84l69 114v294
h81v-296c2 -9 1 -19 -5 -28l-109 -181c-4 -6 -9 -12 -15 -16c-2 -1 -4 -1 -5 -2c-5 -2 -10 -3 -15 -3z" />
    <glyph glyph-name="x" unicode="x" 
d="M194 0h-100l182 257l-191 269h100l141 -199l140 199h100l-190 -269l181 -257h-100l-131 186z" />
    <glyph glyph-name="y" unicode="y" 
d="M196 -230h-40v81h40h6c76 1 82 28 82 141v38l-192 322c-8 9 -10 21 -8 33v141h81v-140l160 -267l159 267v140h81v-150c0 -8 -2 -15 -7 -21l-1 -3l-192 -322v-61v-2c-2 -120 -18 -197 -169 -197z" />
    <glyph glyph-name="z" unicode="z" 
d="M85 0v57l40 44v0l310 344h-350v81h481v-57l-40 -44v0l-310 -344h350v-81h-481z" />
    <glyph glyph-name="braceright" unicode="}" horiz-adv-x="605" 
 />
    <glyph glyph-name="asciitilde" unicode="~" 
d="M587 449c37 -101 -20 -168 -98 -195c-79 -30 -166 -15 -202 86c-15 41 -46 57 -98 38c-49 -18 -64 -54 -50 -92l-76 -28c-37 101 20 167 98 195c79 30 166 15 202 -86c15 -41 46 -57 98 -38c49 18 64 54 50 92z" />
    <glyph glyph-name="Adieresis" unicode="&#xc4;" 
d="M162 813v117h118v-117h-118zM371 813v117h118v-117h-118zM446 211l-120 346l-120 -346h240zM518 0l-18 55l-23 66h-303l-23 -66l-18 -55h-91l18 51c0 3 1 5 2 6l2 8l219 641v0l11 32h63l11 -32v0l219 -641l22 -65h-91z" />
    <glyph glyph-name="Odieresis" unicode="&#xd6;" 
d="M178 732v105h106v-105h-106zM366 732v105h107v-105h-107zM325 0c-90 0 -241 43 -241 332s151 332 241 332c89 0 240 -43 240 -332s-151 -332 -240 -332zM325 81c48 0 84 16 110 49c33 41 49 109 49 202s-16 161 -49 203c-26 32 -62 48 -110 48v0c-49 0 -85 -16 -111 -48
c-33 -42 -49 -110 -49 -203s16 -161 49 -202c26 -33 62 -49 111 -49z" />
    <glyph glyph-name="Udieresis" unicode="&#xdc;" 
d="M178 732v105h107v-105h-107zM366 732v105h107v-105h-107zM485 0v54c-44 -36 -102 -54 -160 -54h-5c-60 1 -116 22 -159 58c-46 39 -72 93 -76 159v5v442h81v-432c0 -104 80 -151 159 -151c80 0 160 47 160 151v432h81v-664h-81z" />
    <glyph glyph-name="agrave" unicode="&#xe0;" horiz-adv-x="500" 
 />
    <glyph glyph-name="iacute" unicode="&#xed;" horiz-adv-x="605" 
d="M80 0c-25 0 -45 20 -45 45s20 45 45 45h177v404h-177c-25 0 -45 20 -45 45s20 45 45 45h222c25 0 45 -20 45 -45v-449h178c25 0 45 -20 45 -45s-20 -45 -45 -45h-445z" />
    <glyph glyph-name="odieresis" unicode="&#xf6;" 
d="M178 559v105h106v-105h-106zM366 559v105h107v-105h-107zM324 0c-120 0 -240 79 -240 231v65v2c2 149 121 228 240 228c121 0 241 -80 241 -230v0v-65c0 -152 -120 -231 -241 -231zM165 231c0 -103 80 -150 159 -150c92 0 160 61 160 150v63c0 89 -68 151 -160 151
c-79 0 -159 -47 -159 -151v-63z" />
    <glyph glyph-name="udieresis" unicode="&#xfc;" 
d="M285 559h-107v105h107v-105zM473 559h-107v105h107v-105zM485 0v54c-44 -36 -102 -54 -160 -54c-120 0 -240 79 -240 231v295h81v-295c0 -103 80 -150 159 -150c92 0 160 61 160 150v295h81v-526h-81z" />
    <glyph glyph-name="cent" unicode="&#xa2;" 
d="M165 283v-1c0 -86 55 -133 119 -147v394c-64 -14 -119 -61 -119 -147v-99zM284 -55v108c-47 7 -90 26 -124 55c-50 42 -76 102 -76 174v1v0v99c0 135 95 213 200 229v89h81v-88c126 -13 200 -89 200 -200h-81c0 52 -29 106 -119 118v-397c81 11 119 55 119 119h81
c0 -111 -74 -187 -200 -200v-107h-81z" />
    <glyph glyph-name="sterling" unicode="&#xa3;" 
d="M82 0v81h40l60 16c15 4 46 21 34 71l-31 117h-85v81h63l-8 30c-41 147 22 246 137 275c117 34 218 -22 259 -168l-80 -21c-23 87 -70 135 -158 113c-76 -20 -108 -78 -81 -177l14 -52h182v-81h-160l24 -89c0 -2 1 -4 1 -6c11 -37 11 -76 -6 -109h276v-81h-481z" />
    <glyph glyph-name="acute" unicode="&#xb4;" 
 />
    <glyph glyph-name="plusminus" unicode="&#xb1;" 
d="M96 103v81h189v163h-189v81h189v206h81v-206h188v-81h-188v-163h188v-81h-458z" />
    <glyph glyph-name="yen" unicode="&#xa5;" 
d="M283 0v174h-187v72h187v90h-187v72h138l-157 256h90l156 -255l156 255h90l-157 -256h141v-72h-189v-90h189v-72h-189v-174h-81z" />
    <glyph glyph-name="exclamdown" unicode="&#xa1;" horiz-adv-x="500" 
 />
    <glyph glyph-name="emdash" unicode="&#x2014;" 
d="M84 280v81h481v-81h-481z" />
    <glyph glyph-name="quoteleft" unicode="&#x2018;" 
d="M256 647v138h137v-138h-137z" />
    <glyph glyph-name="quoteright" unicode="&#x2019;" 
d="M256 647v138h137v-138h-137z" />
    <glyph glyph-name="divide" unicode="&#xf7;" 
d="M249 529c0 42 36 75 76 75c42 0 76 -33 76 -75c0 -40 -34 -76 -76 -76c-40 0 -76 36 -76 76zM96 299v81h458v-81h-458zM249 147c0 42 36 75 76 75c42 0 76 -33 76 -75c0 -41 -34 -76 -76 -76c-40 0 -76 35 -76 76z" />
    <glyph glyph-name="ydieresis" unicode="&#xff;" 
d="M473 559h-107v105h107v-105zM178 559v105h106v-105h-106zM196 -230h-40v81h40c82 0 88 25 88 141v38l-192 322c-8 9 -10 21 -8 33v141h81v-140l160 -267l159 267v140h81v-150c0 -8 -2 -15 -7 -21l-1 -3l-192 -322v-61v-2c-2 -120 -18 -197 -169 -197z" />
    <glyph glyph-name="time" horiz-adv-x="605" 
d="M102 0h-5c-5 1 -10 3 -14 5l-4 2c-15 11 -21 31 -14 48c1 5 4 9 7 12l182 265l-183 266c-2 2 -3 4 -4 7c-10 17 -5 40 12 52c8 6 18 8 27 7h393c9 1 19 -1 27 -7c18 -13 23 -38 12 -52c-1 -3 -2 -5 -4 -7l-183 -266l182 -265c3 -3 6 -7 7 -12c7 -17 1 -37 -14 -48l-4 -2
c-6 -3 -12 -5 -19 -5h-401zM426 583h-247l124 -180zM426 81l-123 180l-124 -180h247z" />
    <glyph glyph-name="uniFB01" unicode="&#xfb01;" 
d="M491 0v526h81v-526h-81zM138 0v445h-65v81h65c2 118 20 194 169 194h265v-81h-265c-75 0 -86 -21 -88 -113h178v-81h-178v-445h-81z" />
    <glyph glyph-name="uniFB00" unicode="&#xfb00;" 
d="M461 526v6c-1 86 -35 143 -125 143c-79 0 -123 -47 -123 -149h248zM215 81h247v364h-247v-364zM60 0v81h74v364h-74v81l72 2c1 150 86 228 204 228c71 0 129 -27 165 -79c36 52 94 79 164 79c120 0 205 -78 205 -230h-81c0 89 -32 149 -124 149c-79 0 -123 -47 -123 -149
h180v-81h-179v-364h188c3 0 6 0 9 -1v1h40v-81h-40v1c-3 -1 -6 -1 -9 -1h-671z" />
    <glyph glyph-name="uniFB02" unicode="&#xfb02;" 
d="M138 0v445h-65v81l65 2c1 150 103 228 222 228c120 0 212 -78 212 -230v-526h-81v526c0 89 -39 149 -131 149c-79 0 -141 -47 -141 -149h178v-81h-178v-445h-81z" />
    <glyph glyph-name="Apostrophe" horiz-adv-x="605" 
d="M211 577l40 223h143l-40 -223h-143z" />
    <glyph glyph-name="uni203D" unicode="&#x203d;" 
d="M450 314c0 -71 -37 -141 -133 -141s-133 70 -133 141c0 79 48 118 104 129v151c-25 -13 -42 -40 -42 -77h-81c0 71 37 167 160 167s160 -96 160 -167c0 -73 -53 -139 -136 -149v-104c11 8 20 23 20 50h81zM349 450l4 1c23 7 51 25 51 66c0 43 -23 73 -55 82v-149z
M288 262v96c-20 -12 -23 -32 -23 -44c0 -29 11 -44 23 -52zM256 69c0 38 31 69 68 69c39 0 69 -31 69 -69c0 -37 -30 -69 -69 -69c-37 0 -68 32 -68 69z" />
    <glyph glyph-name="uni2042" unicode="&#x2042;" 
d="M348 453v-82h-46v81l-57 -57l-33 32l58 58h-82v47h81l-57 57l33 33l57 -58v81h46v-81l58 58l32 -33l-57 -57h81v-47h-81l57 -58l-32 -32zM526 108v-81h-47v80l-56 -57l-34 33l57 57h-80v47h81l-58 58l34 32l56 -56v80h47v-82l58 58l32 -32l-57 -58h81v-47h-81l57 -57
l-32 -33zM170 107v-80h-47v80l-57 -57l-33 33l57 57h-80v47h81l-58 58l33 32l57 -57v81h47v-81l57 57l33 -32l-58 -58h81v-47h-80l57 -57l-33 -33z" />
    <glyph glyph-name="nine-2" horiz-adv-x="500" 
 />
    <glyph glyph-name="g-3" horiz-adv-x="605" 
d="M382 356c0 50 -40 89 -88 89c-46 0 -87 -39 -87 -89c0 -46 41 -87 87 -87c48 0 88 40 88 87zM342 -149h7c98 1 143 28 143 105c0 92 -61 107 -150 107h-63v0c-90 0 -151 -15 -151 -107c0 -79 47 -105 151 -105h63zM342 -230h-65v0c-152 1 -230 68 -230 186
c0 76 31 130 91 160c-11 20 -18 48 -19 86v0v4v8c0 4 1 7 1 11c4 23 12 41 24 55c-12 23 -19 49 -19 76c0 94 76 170 169 170c116 0 141 -12 141 70v40h81v-40v-7c-2 -90 -32 -124 -83 -136c19 -28 30 -61 30 -97c0 -92 -76 -169 -169 -169c-34 0 -66 10 -92 28
c-1 -4 -2 -8 -2 -11c2 -49 15 -59 60 -60h17v0h65c152 0 231 -67 231 -188c0 -119 -79 -186 -231 -186z" />
    <glyph glyph-name="question-2" horiz-adv-x="605" 
d="M209 140c0 -22 -18 -40 -41 -40c-21 0 -40 18 -40 40c0 162 88 152 222 152c82 0 70 25 70 141c0 103 -26 150 -105 150c-92 0 -106 -61 -106 -150c0 -23 -18 -41 -41 -41v0c-22 0 -40 18 -40 41c0 152 66 231 187 231c120 0 186 -79 186 -231c0 -134 10 -222 -151 -222
c-116 0 -141 11 -141 -71zM235 69c0 38 31 69 68 69c39 0 70 -31 70 -69c0 -37 -31 -69 -70 -69c-37 0 -68 32 -68 69z" />
    <glyph glyph-name="f-2" 
d="M55 0v81h137v364h-137v81l135 2c1 150 86 228 205 228c120 0 205 -78 205 -230h-81c0 89 -33 149 -124 149c-80 0 -124 -47 -124 -149h140v-81h-138v-364h264v-81h-482z" />
    <glyph glyph-name="question-3" horiz-adv-x="605" 
d="M303 183c-92 0 -169 76 -169 169c0 94 77 169 169 169c65 0 122 -37 151 -91c-3 89 -63 153 -151 153c-22 0 -40 18 -40 41c0 22 18 40 40 40c153 0 232 -120 232 -241c0 -120 -79 -240 -232 -240zM392 352c0 49 -41 88 -89 88c-45 0 -87 -39 -87 -88
c0 -47 42 -87 87 -87c48 0 89 39 89 87zM237 69c0 38 31 69 68 69c39 0 70 -31 70 -69c0 -37 -31 -69 -70 -69c-37 0 -68 32 -68 69z" />
    <glyph glyph-name="y-2" 
d="M555 347l-194 -324c0 -1 -1 -2 -2 -4l-149 -249h-94l162 271l-185 311c-8 9 -10 21 -8 33v141h81v-140l159 -267l160 267v140h81v-150c0 -7 -2 -13 -5 -19c-2 -4 -4 -7 -6 -10z" />
    <glyph glyph-name="uniFB01-2" 
d="M147 0v445h-65v81l65 2c1 150 94 228 213 228c120 0 203 -78 203 -230v-526h-81v526c0 89 -30 149 -122 149c-79 0 -132 -47 -132 -149h178v-81h-178v-445h-81z" />
    <glyph glyph-name="r-2" horiz-adv-x="605" 
d="M62 0v526h81v-54c44 36 102 54 159 54c121 0 241 -80 241 -232c0 -134 -8 -222 -169 -222h-3h-3c-161 0 -169 88 -169 222v41h81v-41v-9c0 -108 8 -132 88 -132h3h3c82 0 88 25 88 141c0 89 -68 151 -160 151c-79 0 -159 -47 -159 -151v-294h-81z" />
    <glyph glyph-name="a-4" horiz-adv-x="605" 
d="M462 0v54c-44 -36 -102 -54 -160 -54c-120 0 -240 79 -240 231v63c0 152 120 232 240 232c58 0 116 -18 160 -54v54h81v-526h-81zM143 231c0 -103 80 -150 159 -150c92 0 160 61 160 150v63c0 89 -68 151 -160 151c-79 0 -159 -47 -159 -151v-63z" />
    <glyph glyph-name="at-3" horiz-adv-x="605" 
d="M300 44c-152 0 -231 121 -231 240c0 24 3 49 10 72c-7 23 -10 47 -10 71c0 121 79 242 231 242s231 -121 231 -242c0 -24 -3 -48 -10 -71c7 -23 10 -48 10 -72c0 -119 -79 -240 -231 -240zM443 479v1c-19 64 -72 108 -143 108s-125 -44 -143 -109c37 29 84 47 143 47
s106 -18 143 -47zM300 268c72 0 116 38 136 87c-23 54 -72 90 -136 90s-113 -35 -136 -90c21 -49 65 -87 136 -87zM300 435c43 0 79 -34 79 -79c0 -43 -36 -78 -79 -78c-41 0 -78 36 -78 78c0 45 37 79 78 79zM300 125c82 0 128 50 144 110c-37 -30 -85 -48 -144 -48
s-107 18 -144 47c16 -59 63 -109 144 -109z" />
    <glyph glyph-name="zero-2" 
d="M375 81c80 0 110 74 110 196v110v7c0 44 -5 81 -14 111l-232 -418c11 -4 23 -6 36 -6h100zM375 583h-100v0c-80 0 -110 -74 -110 -196v-110v-7c0 -44 5 -81 14 -111l232 418c-11 4 -23 6 -36 6zM375 0h-100c-126 2 -190 119 -191 263v139c-1 161 75 262 191 262h100
c116 0 192 -101 191 -262v-139c-1 -144 -65 -261 -191 -263z" />
  </font>
</defs>
</svg>
