<?xml version="1.0" standalone="no"?>
<!DOCTYPE svg PUBLIC "-//W3C//DTD SVG 1.1//EN" "http://www.w3.org/Graphics/SVG/1.1/DTD/svg11.dtd" >
<svg xmlns="http://www.w3.org/2000/svg" xmlns:xlink="http://www.w3.org/1999/xlink" version="1.1">
<metadata>
Created by FontForge 20170924 at Sun May 20 03:17:55 2012
 By www-data
Copyright (c) 2012 by Sang Mun. All rights reserved.
</metadata>
<defs>
<font id="ZXX-Xed" horiz-adv-x="650" >
  <font-face 
    font-family="ZXX"
    font-weight="400"
    font-stretch="normal"
    units-per-em="1000"
    panose-1="0 0 0 0 0 0 0 0 0 0"
    ascent="770"
    descent="-230"
    x-height="526"
    cap-height="664"
    bbox="0 -230 650 930"
    underline-thickness="50"
    underline-position="-100"
    unicode-range="U+0020-FB02"
  />
<missing-glyph horiz-adv-x="500" 
d="M50 -230v950h400v-950h-400zM100 -180h300v850h-300v-850z" />
    <glyph glyph-name=".notdef" horiz-adv-x="500" 
d="M50 -230v950h400v-950h-400zM100 -180h300v850h-300v-850z" />
    <glyph glyph-name="onehalf" unicode="&#xbd;" 
d="M282 343h-42l29 -22zM463 173l53 52c-2 20 -11 36 -24 48c-14 12 -35 19 -56 19c-30 0 -60 -14 -73 -43zM191 0h-99l67 121l-159 -121v30l188 143l70 126l-57 44h-95c-11 0 -20 9 -20 21c0 10 9 19 20 19h42l-148 113v30l187 -143h26v252h-107c-11 0 -20 9 -20 20
s9 20 20 20h128c11 0 20 -9 20 -20v-272h50l155 281h99l-196 -354c6 3 12 7 18 10l270 206v-30l-215 -164h1c60 0 120 -39 120 -110c2 -7 0 -14 -5 -20l-55 -54l47 -36c4 -2 7 -4 9 -7l98 -75v-30l-94 72v-51c0 -12 -9 -21 -20 -21h-200l-5 1c-2 0 -4 1 -5 2c-2 1 -4 2 -5 3
c-8 8 -7 21 0 29l124 121l-89 69v-9c0 -11 -9 -20 -20 -20s-20 9 -20 20v11zM516 94l1 5l1 2l-40 30l-92 -90h130v53z" />
    <glyph glyph-name="onequarter" unicode="&#xbc;" 
d="M282 343h-42l29 -22zM524 126v135l-72 -80zM191 0h-99l67 121l-159 -121v30l188 143l70 126l-57 44h-95c-10 0 -19 9 -19 21c0 10 9 19 19 19h42l-148 113v30l187 -143h26v252h-107c-10 0 -19 9 -19 20s9 20 19 20h128c11 0 20 -9 20 -20v-272h50l155 281h99l-199 -360
l291 222v-30l-305 -233l75 -57l109 120c8 8 21 9 29 1c5 -5 8 -12 6 -19v-212l86 -66v-30l-86 66v-45c0 -12 -9 -21 -19 -21v0c-12 0 -21 9 -21 21v52h-180l-5 1v0c1 -1 3 -1 -1 0c-3 1 -6 2 -8 4c-7 7 -8 17 -4 25c2 2 3 4 5 5l73 80l-77 58zM502 113l-67 51l-46 -51h113z
" />
    <glyph glyph-name="threequarters" unicode="&#xbe;" 
d="M269 321l29 52c-15 -14 -35 -24 -61 -28zM524 126v135l-72 -80zM191 0h-99l67 121l-159 -121v30l188 143l70 126l-58 44c-27 1 -54 9 -74 23c-23 15 -35 37 -38 63l-88 67v30l93 -71c3 4 8 6 13 6c12 0 21 -9 21 -20c0 -5 1 -9 2 -13l56 -43c7 -1 15 -2 22 -2
c38 0 79 18 79 57c-2 24 -25 49 -74 49h-33c-11 0 -20 9 -20 20s9 20 20 20h33c51 0 74 28 74 52c-1 16 -8 28 -22 38c-15 10 -35 16 -58 16c-38 0 -79 -18 -79 -57c0 -12 -9 -21 -21 -21c-10 0 -19 9 -19 21c0 64 60 97 119 97h5h1c75 0 115 -47 115 -93v-2v-2v-2
c-2 -26 -16 -50 -41 -67c25 -16 39 -41 41 -66v-2v-2v-2c0 -5 0 -9 -1 -14l133 241h99l-199 -360l291 222v-30l-305 -233l75 -57l109 120c8 8 21 9 29 1c5 -5 8 -12 6 -19v-212l86 -66v-30l-86 66v-45c0 -12 -9 -21 -19 -21v0c-12 0 -21 9 -21 21v52h-180l-5 1v0
c1 -1 3 -1 -1 0c-3 1 -6 2 -8 4c-7 7 -8 17 -4 25c2 2 3 4 5 5l73 80l-77 58zM502 113l-67 51l-46 -51h113z" />
    <glyph glyph-name="minus" unicode="&#x2212;" 
d="M650 0l-325 248l-325 -248v30l305 233l-80 61h-129v81h23l-119 91v30l159 -121h332l159 121v-30l-119 -91h23v-81h-129l-80 -61l305 -233v-30zM385 324h-120l60 -46z" />
    <glyph glyph-name="multiply" unicode="&#xd7;" 
d="M650 0l-325 248l-325 -248v30l166 126l-44 45l115 115l-237 180v30l254 -193l14 14l-146 145l57 58l146 -146l146 146l57 -58l-145 -145l13 -14l254 193v-30l-237 -180l115 -115l-44 -45l166 -126v-30zM325 278l6 5l-6 6l-6 -6zM279 243l26 20l-3 3zM371 243l-23 23
l-3 -3z" />
    <glyph glyph-name="space" unicode=" " 
d="M650 0l-325 248l-325 -248v30l305 233l-305 233v30l325 -248l325 248v-30l-305 -233l305 -233v-30z" />
    <glyph glyph-name="exclam" unicode="!" 
d="M650 0l-285 217v-17h-81v17l-284 -217v30l284 217v32l-284 217v30l284 -217v366h81v-366l285 217v-30l-285 -217v-32l285 -217v-30zM256 0v138h137v-138h-137z" />
    <glyph glyph-name="quotedbl" unicode="&#x22;" 
d="M492 577h-129l36 201h129zM123 577l36 201h128l-36 -201h-128zM650 0l-325 248l-325 -248v30l305 233l-305 233v30l325 -248l325 248v-30l-305 -233l305 -233v-30z" />
    <glyph glyph-name="numbersign" unicode="#" 
d="M163 402l2 19h-27zM325 278l102 78l8 65h-189l-9 -76zM414 242l9 81l-78 -60l27 -21h42zM278 242l27 21l-71 55l-9 -76h53zM333 242l-8 6l-8 -6h16zM215 161l-20 -161h-81l12 96l-126 -96v30l130 99l4 32h-63l10 81h63l16 132l-62 47h-14l1 10l-85 65v30l89 -68l5 44h81
l20 162h81l-20 -162h189l20 162h81l-20 -162h63l-3 -25l64 49v-30l-68 -52l-3 -23h-27l-39 -30l-18 -149h81l-10 -81h-81l-1 -4l166 -127v-30l-169 129l-16 -129h-81l20 161h-189z" />
    <glyph glyph-name="dollar" unicode="$" 
d="M284 366v206c-62 -11 -119 -47 -119 -107c2 -44 40 -90 119 -99zM484 460v5c-2 33 -16 59 -45 78c-20 14 -46 24 -74 28v-208c21 -2 40 -6 57 -11l89 68h-27v40zM480 160l1 2c2 8 3 16 3 20c-2 43 -39 88 -116 99l-3 -2v-32zM365 76l1 1c44 7 84 27 104 60l-105 80v-141z
M284 76v141l-105 -80c21 -34 61 -53 105 -61zM284 -85v79c-45 5 -87 21 -120 43c-20 14 -37 31 -50 50l-114 -87v30l102 78c-12 24 -18 51 -18 79v40h81v-40v-5c1 -8 2 -16 4 -23l115 88v32l-8 6c-106 12 -169 74 -187 143l-89 68v30l84 -64v3v4c0 86 68 174 200 186v75h81
v-77c106 -13 200 -80 200 -192l85 65v-30l-85 -65v-11h-15l-101 -78c70 -30 109 -87 115 -147c1 -2 1 -5 1 -8v-4v-5c0 -24 -5 -48 -16 -71l101 -77v-30l-113 86c-31 -49 -89 -86 -172 -94v-77h-81z" />
    <glyph glyph-name="percent" unicode="%" 
d="M294 523c0 40 -34 73 -74 73c-39 0 -73 -33 -73 -73c0 -41 34 -74 73 -74c40 0 74 33 74 74zM650 30v-30l-95 73c-25 -43 -71 -73 -124 -73c-78 0 -143 65 -143 142c0 40 17 76 43 101l-6 5l-69 -52l-88 -106h-50l-118 -90v30l79 60h-1l177 211l-255 195v30l97 -74
c-12 21 -19 45 -19 71c0 78 64 141 142 141s142 -63 142 -141s-64 -143 -142 -143c-12 0 -23 1 -34 4l84 -64l213 254h90l-247 -295l324 247v-30l-305 -233l5 -4c23 16 51 25 81 25c78 0 142 -63 142 -142c0 -16 -3 -32 -8 -47zM504 142c0 42 -33 74 -73 74
c-7 0 -14 -1 -21 -3l94 -72v1zM357 142c0 -39 36 -73 74 -73c30 0 57 20 68 46l-112 86c-18 -14 -30 -35 -30 -59z" />
    <glyph glyph-name="ampersand" unicode="&#x26;" 
d="M248 532v-3c-1 -28 -8 -85 52 -85c62 5 52 63 52 88c0 53 -35 60 -52 60v0c-17 0 -52 -7 -52 -60zM293 303l-37 55c-8 -2 -17 -5 -25 -8zM172 161l133 102l-97 74c-28 -20 -51 -53 -51 -107c0 -27 5 -50 15 -69zM316 79c37 0 75 10 104 32l-87 131l-8 6l-141 -108
c30 -41 81 -61 132 -61zM573 29l-32 -23l-1 -1h-1l-31 -23l-24 33l-19 28c-43 -30 -96 -45 -149 -45c-62 0 -120 21 -164 58c-13 11 -24 22 -33 35l-119 -91v30l106 81c-20 34 -30 74 -30 119c0 65 25 120 65 158l-141 108v30l160 -122c11 7 22 13 33 19
c-17 28 -26 65 -26 109c0 71 36 141 133 141h6c92 -3 127 -72 127 -141c0 -82 -32 -140 -89 -160l35 -53l271 207v-30l-258 -197l78 -116c4 14 6 30 6 47v131h81v-131v-6c-1 -40 -10 -75 -25 -104l118 -90v-30l-119 91l19 -29z" />
    <glyph glyph-name="parenleft" unicode="(" 
d="M265 232l40 31l-40 31v-62zM465 -9v-81h-41c-117 2 -222 102 -238 232l-186 -142v30l184 140v3v183l-184 140v30l184 -140v88c-1 161 125 262 240 262h41v-81h-41c-79 0 -159 -74 -159 -196v-135l60 -46l325 248v-30l-305 -233l305 -233v-30l-325 248l-60 -46v-15
c0 -122 80 -196 159 -196h41z" />
    <glyph glyph-name="parenright" unicode=")" 
d="M384 233v60l-39 -30zM650 0l-187 143c-15 -130 -121 -231 -238 -233h-41v81h41c79 0 159 74 159 196v16l-59 45l-325 -248v30l305 233l-305 233v30l325 -248l59 45v136c0 122 -80 196 -159 196h-41v81h41c115 0 241 -101 240 -262v-89l185 141v-30l-185 -141v-182v-2
l185 -141v-30z" />
    <glyph glyph-name="asterisk" unicode="*" 
d="M190 381l38 38h-88zM460 381l50 38h-88zM285 309v53l-30 -30zM366 309l30 23l-30 30v-53zM650 30v-30l-291 222h-68l-291 -222v30l285 217v32l-47 36l-52 -52l-57 57l44 44l-72 55h-14v11l-87 66v30l87 -66v40h141l-99 99l57 57l99 -99v140h81v-140l99 99l56 -57l-99 -99
h141v-40l87 66v-30l-87 -66v-11h-14l-72 -55l44 -44l-56 -57l-52 52l-47 -36v-32z" />
    <glyph glyph-name="plus" unicode="+" 
d="M650 0l-284 217v-122h-81v122l-285 -217v30l285 217v32l-29 22h-160v81h53l-149 114v30l189 -144h96v206h81v-206h95l189 144v-30l-149 -114h53v-81h-160l-28 -22v-32l284 -217v-30z" />
    <glyph glyph-name="comma" unicode="," 
d="M650 0l-325 248l-325 -248v30l305 233l-305 233v30l325 -248l325 248v-30l-305 -233l305 -233v-30zM185 -170h-45v90h45h6c64 1 84 18 90 80h-29v153h153v-153h-34c-7 -105 -40 -170 -186 -170z" />
    <glyph glyph-name="hyphen" unicode="-" 
d="M325 278l3 2h-6zM650 30v-30l-325 248l-325 -248v30l305 233l-22 17h-79v60l-204 156v30l216 -165h218l216 165v-30l-203 -155v-61h-80l-22 -17z" />
    <glyph glyph-name="period" unicode="." 
d="M650 0l-325 248l-325 -248v30l305 233l-305 233v30l325 -248l325 248v-30l-305 -233l305 -233v-30zM248 0v153h153v-153h-153z" />
    <glyph glyph-name="slash" unicode="/" 
d="M191 0h-99l67 121l-159 -121v30l188 143l70 126l-258 197v30l269 -205l190 343h99l-199 -360l291 222v-30l-305 -233l305 -233v-30l-323 246z" />
    <glyph glyph-name="zero" unicode="0" 
d="M165 277v-7c0 -41 4 -76 13 -105l127 98l-140 107v-93zM472 165l1 2c8 30 12 67 12 110v93l-140 -107zM375 81h5c40 2 68 23 84 61l-139 106l-139 -106c17 -39 46 -61 89 -61h100zM375 583h-100h-5c-73 -3 -103 -71 -105 -183l160 -122l160 122c-2 114 -33 183 -110 183z
M375 0h-100h-5c-67 3 -116 39 -147 94l-123 -94v30l112 86c-18 42 -28 92 -28 147v139c0 10 0 20 1 29l-85 65v30l87 -66c16 127 87 204 188 204h100h5c99 -2 168 -79 183 -205l87 67v-30l-85 -64c1 -10 1 -20 1 -30v-139c0 -55 -10 -105 -28 -147l112 -86v-30l-123 94
c-32 -57 -82 -93 -152 -94z" />
    <glyph glyph-name="one" unicode="1" 
d="M339 81v156l-14 11l-219 -167h233zM420 81h124l-124 95v-95zM85 0v65l-85 -65v30l305 233l-305 233v30l325 -248l14 11v294l-205 -57v81l205 57h81v-314l230 176v-30l-230 -176v-114l230 -176v-30l-84 64v-64h-481z" />
    <glyph glyph-name="two" unicode="2" 
d="M143 432v-15l161 -123l157 155c-3 40 -19 72 -46 96c-29 25 -70 38 -112 38c-80 0 -160 -47 -160 -151zM462 81v62l-110 85l-151 -147h261zM62 0v35c-1 4 -1 7 0 10v2l-62 -47v30l155 118l132 129l-151 115h-74v40v6v10l-62 48v30l66 -50c20 124 128 188 237 188
c117 0 234 -75 240 -220l107 82v-30l-113 -86c-1 -3 -3 -5 -5 -7l-163 -159l93 -71v54h81v-115l107 -82v-30l-107 82v-82h-481z" />
    <glyph glyph-name="three" unicode="3" 
d="M231 373h104c100 0 147 52 150 101c-2 32 -16 58 -45 78s-71 31 -115 31c-76 0 -159 -36 -159 -114v-41h-38l103 -78v23zM335 292h-28l18 -14l18 14h-8zM479 161c4 10 6 22 6 29c-2 42 -36 86 -107 98l-33 -25zM326 81c55 0 113 19 141 58l-142 109l-142 -108
c28 -40 87 -59 143 -59zM650 0l-116 88c-36 -50 -103 -88 -199 -88h-2h-7h-5c-59 1 -114 17 -156 46c-19 13 -34 28 -47 44l-118 -90v30l106 81c-14 25 -21 53 -21 84v41h81v-41v-5c1 -11 3 -20 6 -29l133 102l-38 29h-36v28l-142 108h-4v3l-85 65v30l85 -65v8v6
c3 124 122 189 240 189h8h2c152 0 231 -93 231 -186v-4v-5c0 -3 0 -5 -1 -8l85 65v-30l-93 -71c-12 -36 -36 -68 -73 -93c49 -32 76 -79 81 -128c1 -3 1 -6 1 -9v-4v-5c0 -26 -6 -53 -19 -77l103 -79v-30z" />
    <glyph glyph-name="four" unicode="4" 
d="M325 278l161 123v119l-197 -215zM486 227v144l-141 -108l47 -36h94zM258 227l47 36l-32 24l-55 -60h40zM353 227l-28 21l-28 -21h56zM567 0h-81v125l-27 21h-268l-191 -146v30l152 116h-26l-30 67l113 123l-209 160v30l225 -172l284 310h58v-201l83 63v-30l-83 -63v-340
l83 -63v-30l-83 63v-63z" />
    <glyph glyph-name="five" unicode="5" 
d="M436 363l-3 3c-24 22 -57 35 -99 35h-170l161 -123zM470 168l1 2c9 22 13 47 13 71c0 37 -10 75 -32 104l-107 -82zM650 0l-126 96c-10 -14 -21 -26 -33 -37c-38 -36 -91 -59 -157 -59h-2h-7h-5c-61 1 -117 22 -160 58c-13 11 -25 24 -35 37l-125 -95v30l112 86
c-18 33 -28 72 -28 116v41h81v-41v-6c1 -23 5 -43 13 -60l127 97l-181 138h-40v31l-84 64v30l84 -64v202h481v-81h-400v-101h178h5c66 -4 117 -30 153 -70l149 114v-30l-134 -102c33 -43 49 -98 49 -153v-7v-2c0 -45 -10 -84 -28 -116l113 -86v-30zM325 81
c43 0 86 14 117 43c6 7 12 14 16 22l-133 102l-135 -103c30 -44 82 -64 135 -64z" />
    <glyph glyph-name="six" unicode="6" 
d="M484 428v4c0 48 -16 86 -47 113c-29 25 -70 38 -112 38c-80 0 -160 -47 -160 -151v-4c44 36 101 54 168 54h5c62 0 109 -21 146 -54zM436 363c-29 24 -70 38 -112 38c-40 0 -81 -12 -111 -37l112 -86l111 85v0zM164 240c1 -2 1 -5 1 -8c0 -25 5 -47 13 -66l127 97
l-109 84c-19 -23 -31 -53 -32 -90v-17zM469 168c9 23 14 48 14 73c0 37 -10 74 -31 104l-107 -82zM325 81c39 0 78 12 108 35c10 9 18 19 25 31l-133 101l-135 -103c30 -44 82 -64 135 -64zM484 54c-38 -33 -88 -54 -151 -54h-13c-61 1 -117 22 -160 58
c-13 11 -25 24 -35 37l-125 -95v30l112 85c-17 30 -26 65 -28 103v23c-1 4 -1 7 -1 9c0 8 0 16 1 23v159l-84 64v30l86 -66c13 135 126 204 239 204c112 0 225 -69 239 -204l86 66v-30l-85 -65v-39h-47c29 -37 46 -84 46 -142v-10c1 -2 1 -5 1 -8c0 -45 -10 -83 -28 -116
l113 -86v-30l-126 96c-11 -16 -25 -30 -40 -42z" />
    <glyph glyph-name="seven" unicode="7" 
d="M203 -1h-107l180 212l-276 -211v30l305 233l-305 233v30l325 -248l24 19l136 159v127h-360h-1v0h-40v81h40v0h1h440v-31c1 -3 1 -6 1 -9v-162l84 64v-30l-86 -65v-2s-1 -2 -1 -3v-1c-1 -1 -1 -2 -2 -3l-6 -9l-160 -188l255 -195v-30l-271 206z" />
    <glyph glyph-name="eight" unicode="8" 
d="M334 373c100 0 147 52 150 101c-2 32 -16 58 -45 78s-71 31 -115 31c-76 0 -159 -36 -159 -109c3 -49 50 -101 150 -101h19zM650 0l-116 89c-37 -51 -104 -89 -200 -89h-2h-7h-5h-3h-2h-7c-92 2 -157 39 -192 88l-116 -88v30l103 79c-13 24 -19 51 -19 77v4v5
c0 3 0 6 1 9c5 49 32 96 81 128c-37 25 -61 57 -73 93l-93 71v30l85 -65c-1 3 -1 5 -1 8v4v5c0 93 79 186 231 186h2h7h8h2c152 0 231 -93 231 -186v-4v-5c0 -3 0 -6 -1 -9l86 66v-30l-94 -72c-12 -35 -36 -68 -73 -92c49 -32 76 -79 81 -128c1 -3 1 -6 1 -9v-4v-5
c0 -26 -6 -52 -19 -77l104 -79v-30zM315 292h-7h-1l18 -14l18 14h-9h-19zM171 161l134 102l-33 25c-71 -12 -105 -56 -107 -98c1 -11 3 -20 6 -29zM478 161l2 4c2 10 4 19 4 25c-2 42 -36 86 -106 98l-33 -25zM325 81c55 0 114 19 142 59l-142 108l-142 -109
c28 -39 87 -58 142 -58z" />
    <glyph glyph-name="nine" unicode="9" 
d="M325 278l159 121c1 5 1 10 1 15v18c0 48 -16 86 -47 113c-29 24 -70 38 -112 38c-43 0 -85 -13 -116 -41c-30 -31 -44 -75 -44 -119c0 -8 1 -17 2 -25zM346 264h4c57 7 110 40 128 101zM304 264l-128 98c7 -20 17 -39 31 -55c26 -25 60 -39 97 -43zM475 164
c6 16 10 36 10 58v14c-18 -14 -38 -26 -59 -35zM307 0h-40v81h40h5c57 1 120 13 152 61l-66 50c-23 -7 -48 -10 -72 -10h-5h-3h-2h-6c-22 1 -42 3 -60 9l-250 -191v30l223 170c-22 9 -42 21 -59 36l-3 3c-50 43 -76 103 -76 175v1v8v7v1l-85 65v30l86 -66
c6 56 30 101 63 135c39 42 95 69 167 69h2h8c112 0 224 -70 239 -203l85 65v-30l-84 -64v-210c0 -40 -9 -77 -25 -109l109 -83v-30l-122 93c-9 -12 -19 -23 -30 -33c-46 -39 -110 -60 -191 -60z" />
    <glyph glyph-name="colon" unicode=":" 
d="M241 465v168h168v-168h-168zM650 0l-241 184v-143h-168v143l-241 -184v30l305 233l-305 233v30l325 -248l325 248v-30l-305 -233l305 -233v-30zM376 209l-51 39l-51 -39h102z" />
    <glyph glyph-name="semicolon" unicode=";" 
d="M241 465v168h168v-168h-168zM376 209l-51 39l-51 -39h102zM182 -122h-45v90h45h6c62 1 82 17 89 73h-36v143l-241 -184v30l305 233l-305 233v30l325 -248l325 248v-30l-305 -233l305 -233v-30l-241 184v-143h-41c-9 -101 -43 -163 -186 -163z" />
    <glyph glyph-name="equal" unicode="=" 
d="M480 396h-310l107 -81h96zM650 0l-307 234h-36l-307 -234v30l267 204h-171v81h141l-106 81h-35v27l-96 73v30l96 -73v24h458v-24l96 73v-30l-96 -73v-27h-35l-106 -81h141v-81h-171l267 -204v-30z" />
    <glyph glyph-name="question" unicode="?" 
d="M650 0l-255 194c-20 -13 -45 -21 -78 -21h-6c-25 1 -46 7 -63 16l-248 -189v30l227 173c-30 27 -43 69 -43 111c0 14 2 27 4 38l-188 144v30l196 -150c24 50 76 71 129 71c17 0 79 8 79 70c0 53 -35 86 -79 86s-79 -33 -79 -86h-81c0 71 37 167 160 167s160 -96 160 -167
c0 -80 -64 -151 -160 -151h-8c-38 -3 -49 -26 -51 -43l59 -45l44 34v2h3l278 212v-30l-239 -182h39c0 -39 -11 -77 -36 -104l236 -180v-30zM298 257l7 6l-37 29c5 -21 17 -31 30 -35zM346 262l3 2c4 3 6 5 9 9l-13 -10zM249 69c0 38 31 69 68 69c39 0 69 -31 69 -69
c0 -37 -30 -69 -69 -69c-37 0 -68 32 -68 69z" />
    <glyph glyph-name="at" unicode="@" 
d="M205 370l2 3c29 52 85 87 148 87c51 0 98 -24 129 -61l21 17c-9 85 -84 163 -167 163c-94 0 -163 -70 -186 -169zM504 370v1c1 5 1 10 2 15l-8 -6c2 -3 4 -7 6 -10zM176 165l40 30c-20 27 -31 60 -31 96c0 20 3 39 10 56l-48 37c-3 -16 -4 -32 -4 -49
c0 -62 11 -121 33 -170zM325 278l95 72c-17 18 -40 29 -65 29c-37 0 -71 -25 -83 -60zM403 218l2 2c23 16 38 42 38 71c0 14 -4 28 -10 40l-88 -68zM281 245l24 18l-38 29v-1c0 -17 5 -33 14 -46zM355 203h5c7 1 13 2 19 4l-54 41l-28 -22c16 -14 36 -23 58 -23zM398 -45
h-41h-5c-102 2 -180 57 -229 139l-123 -94v30l112 85c-32 63 -49 140 -49 220c0 35 4 70 13 103l-76 58v30l83 -63c37 111 124 197 254 197h3c121 -2 207 -93 235 -191l75 57v-30l-68 -52c2 -16 4 -31 4 -46c0 -62 -21 -133 -62 -188v-84l126 -96v-30l-148 113h-59v29
c-26 -13 -55 -20 -88 -20c-49 0 -93 21 -124 54l-44 -33c36 -65 93 -107 170 -107h41v-81z" />
    <glyph glyph-name="A" unicode="A" 
d="M325 278l62 47l-61 175l-62 -176zM431 197l-36 104l-50 -38zM220 198l85 65l-49 38zM401 190l-76 58l-76 -58h152zM499 0l-17 50l-20 59h-273l-20 -59l-17 -50h-82l20 58l5 14l-95 -72v30l109 83l81 238l-190 145v30l198 -151l89 260v0l10 29h57l10 -29v0l89 -260
l197 151v-30l-189 -144l82 -240l107 -82v-30l-94 71l5 -13l20 -58h-82z" />
    <glyph glyph-name="B" unicode="B" 
d="M334 373h7c98 3 143 56 143 105c0 50 -47 105 -150 105h-169v-183l36 -27h133zM305 263l-38 29h-102v-136zM334 292h-27l18 -14l18 14h-9zM480 160c3 9 4 17 4 26c0 43 -34 89 -106 102l-33 -25zM334 81c70 0 114 25 135 57l-144 110l-160 -122v-45h169zM84 0v64l-84 -64
v30l84 64v338l-84 64v30l84 -64v202h259h4c143 -5 218 -96 218 -186c0 -6 0 -12 -1 -18l86 66v-30l-94 -72c-12 -35 -36 -68 -73 -92c54 -36 82 -91 82 -146c0 -26 -6 -52 -19 -77l104 -79v-30l-116 89c-35 -49 -98 -86 -187 -89h-4h-259z" />
    <glyph glyph-name="C" unicode="C" 
d="M484 432v6c-1 45 -17 81 -47 107c-29 25 -70 38 -113 38c-79 0 -159 -47 -159 -151v-32l160 -122l202 154h-43zM650 0l-126 96c-45 -64 -122 -96 -200 -96h-5c-60 1 -116 22 -159 58c-13 11 -25 24 -35 37l-125 -95v30l112 86c-16 29 -26 64 -28 102v5v209l-84 64v30
l85 -65c15 134 127 203 239 203c113 0 226 -69 240 -204l86 66v-30l-305 -233l126 -97c8 19 13 41 13 66h81v-6c-1 -42 -11 -79 -28 -110l113 -86v-30zM178 166l127 97l-140 107v-138c0 -25 5 -47 13 -66zM324 81c53 0 106 20 135 64l-134 103l-135 -103
c30 -44 82 -64 134 -64z" />
    <glyph glyph-name="D" unicode="D" 
d="M479 396c-14 101 -63 187 -145 187h-170v-182l161 -123zM164 155l141 108l-141 108v-216zM455 179l1 1c18 43 28 97 28 152c0 12 0 24 -1 36l-138 -105zM334 81c44 0 81 24 108 71l3 5l-120 91l-161 -123v-44h170zM84 0v64l-84 -64v30l84 64v338l-84 64v30l84 -64v202
h259c2 0 4 0 7 -1c66 -5 123 -43 162 -110c17 -30 30 -64 39 -102l99 75v-30l-93 -71c5 -30 8 -61 8 -93c0 -76 -16 -148 -44 -204l129 -98v-30l-141 107c-39 -64 -95 -101 -159 -106c-2 -1 -5 -1 -7 -1h-259z" />
    <glyph glyph-name="E" unicode="E" 
d="M343 292h-36l18 -14zM305 263l-38 29h-102v-136zM165 81h379l-219 167l-160 -122v-45zM84 0v64l-84 -64v30l84 64v338l-84 64v30l84 -64v202h481v-81h-400v-183l36 -27h218v-23l231 176v-30l-231 -176v-28h-36l-38 -29l305 -233v-30l-85 65v-65h-481z" />
    <glyph glyph-name="F" unicode="F" 
d="M392 329h-134l67 -51zM305 263l-86 66h-54v-173zM165 0h-81v64l-84 -64v30l84 64v338l-84 64v30l84 -64v202h481v-81h-400v-173h327v-5l158 121v-30l-158 -121v-46h-61l-86 -66l305 -233v-30l-325 248l-160 -122v-126z" />
    <glyph glyph-name="G" unicode="G" 
d="M650 0l-126 96c-45 -64 -122 -96 -200 -96h-5c-60 1 -116 22 -159 58c-13 11 -25 24 -35 37l-125 -95v30l112 86c-16 29 -26 64 -28 102v5v209l-84 64v30l85 -65c15 134 127 203 239 203c113 0 226 -69 240 -204l86 66v-30l-208 -159h123v-114v-6
c-2 -38 -12 -72 -28 -101l113 -86v-30zM178 166l124 94v6l-137 104v-138c0 -25 5 -47 13 -66zM302 337h100l125 95h-43v6c-1 45 -17 81 -47 107c-29 25 -70 38 -113 38c-79 0 -159 -47 -159 -151v-32l137 -104v41zM471 166l2 4c7 18 11 39 11 62v24h-130zM324 81
c53 0 106 20 135 64l-134 103l-135 -103c30 -44 82 -64 134 -64z" />
    <glyph glyph-name="H" unicode="H" 
d="M484 329h-53l-86 -66l139 -106v172zM392 329h-134l67 -51zM305 263l-86 66h-54v-173zM84 0v64l-84 -64v30l84 64v338l-84 64v30l84 -64v202h81v-254h319v254h81v-203l85 65v-30l-85 -65v-336l85 -65v-30l-85 65v-65h-81v127l-159 121l-160 -122v-126h-81z" />
    <glyph glyph-name="I" unicode="I" 
d="M284 81v136l-178 -136h178zM365 81h179l-179 136v-136zM84 0v64l-84 -64v30l284 217v32l-284 217v30l284 -217v274h-200v81h481v-81h-200v-274l285 217v-30l-285 -217v-32l285 -217v-30l-85 65v-65h-481z" />
    <glyph glyph-name="J" unicode="J" 
d="M472 166l2 4c7 18 11 39 11 62v138l-140 -107zM650 0l-125 96c-46 -64 -123 -96 -200 -96h-5c-60 1 -116 22 -159 58c-14 11 -25 24 -35 38l-126 -96v30l113 86c-19 34 -28 73 -28 116v41h81v-41v-6c1 -23 5 -43 13 -60l126 97l-305 233v30l325 -248l160 122v183h-254v81
h335v-202l84 64v-30l-84 -64v-200c0 -45 -11 -84 -28 -116l112 -86v-30zM325 81c53 0 105 20 135 64l-135 103l-134 -103c29 -44 82 -64 134 -64z" />
    <glyph glyph-name="K" unicode="K" 
d="M258 227l-57 65h-36v-136zM165 0h-81v64l-84 -64v30l84 64v338l-84 64v30l84 -64v202h81v-264l36 -27h1l239 274l15 17h16h7h86l-72 -82v0l-218 -250l41 -47l9 -7l325 248v-30l-305 -233l305 -233v-30l-255 194l111 -126l3 -4l56 -64h-109l-29 34v0l-153 175l-109 -83
v-126z" />
    <glyph glyph-name="L" unicode="L" 
d="M165 156l140 107l-140 107v-214zM165 81h379l-219 167l-160 -122v-45zM84 0v64l-84 -64v30l84 64v338l-84 64v30l84 -64v202h81v-264l160 -122l325 248v-30l-305 -233l305 -233v-30l-85 65v-65h-481z" />
    <glyph glyph-name="M" unicode="M" 
d="M165 156l58 45l-49 162l-9 7v-214zM484 157v212l-10 -7l-48 -161zM290 251l15 12l-25 19zM359 252l9 28l-23 -17zM324 137l28 91l-27 20l-28 -21zM165 0h-81v64l-84 -64v30l84 64v338l-84 64v30l84 -64v202h81l103 -343l57 -43l54 42l105 344h81v-203l85 65v-30l-85 -65
v-336l85 -65v-30l-85 65v-65h-81v127l-66 50l-53 -177h-81l-53 176l-66 -50v-126z" />
    <glyph glyph-name="N" unicode="N" 
d="M298 299l-133 213v-112zM165 156l140 107l-140 107v-214zM484 157v212l-92 -70l87 -138zM165 0h-81v64l-84 -64v30l84 64v338l-84 64v30l84 -64v202h81l215 -344l104 79v265h81v-203l85 65v-30l-85 -65v-336l85 -65v-30l-85 65v-65h-81l-151 242l-8 6l-160 -122v-126z
" />
    <glyph glyph-name="O" unicode="O" 
d="M325 583h-6c-46 -1 -80 -17 -105 -48s-40 -77 -46 -137l157 -120l156 119c-6 60 -21 107 -46 138c-26 32 -62 48 -110 48zM650 0l-135 103c-52 -86 -134 -103 -190 -103h-3c-57 1 -136 19 -187 103l-135 -103v30l123 94c-24 49 -39 116 -39 208c0 35 2 67 6 95l-90 69v30
l95 -72c36 180 155 210 230 210s193 -30 229 -211l96 73v-30l-91 -70c4 -28 6 -59 6 -94c0 -92 -15 -159 -39 -207l124 -95v-30zM189 174l116 89l-139 106c-1 -12 -1 -24 -1 -37c0 -65 8 -118 24 -158zM460 175l1 1c15 39 23 92 23 156c0 13 0 25 -1 37l-138 -106zM325 81
c48 0 84 16 110 49c5 7 10 14 15 23l-125 95l-126 -96c5 -8 10 -15 15 -22c26 -33 62 -49 111 -49z" />
    <glyph glyph-name="P" unicode="P" 
d="M482 398l1 1c1 8 1 16 1 24c0 80 -47 160 -150 160h-169v-183l160 -122zM305 263l-140 107v-107h140zM345 263h1c69 5 110 47 128 99zM165 0h-81v64l-84 -64v30l84 64v338l-84 64v30l84 -64v202h259h5c128 -7 201 -102 215 -205l87 67v-30l-85 -65v-8
c0 -92 -47 -185 -138 -223l223 -170v-30l-250 191c-16 -5 -33 -8 -52 -9h-5h-104l-74 -56v-126zM199 182h-34v-26z" />
    <glyph glyph-name="Q" unicode="Q" 
d="M449 216l36 26v128l-95 -72zM166 157l139 106l-139 106v-212zM174 581l-4 -1c-3 -1 -4 -4 -4 -7v-174l124 -94l25 18c2 1 3 3 5 4l7 4l27 19l23 -33l108 83v173v0c0 5 -3 8 -8 8h-303zM166 87l1 -4c1 -2 4 -4 7 -4h84l125 90l-54 76l-4 3l-159 -121v-40zM582 29l-32 -23
l-1 -1h-1l-31 -23l-24 33l-63 88l-136 -98c-6 -4 -13 -6 -20 -7v0h-2h-5h-93c-43 0 -78 29 -87 69l-87 -67v30l85 65v336l-85 65v30l85 -65v112c0 50 39 89 89 89h303c50 0 89 -39 89 -89v-111l84 64v-30l-84 -64v-211c0 -13 -6 -26 -17 -33l-53 -38l4 -6l150 -114v-30
l-103 78l12 -16z" />
    <glyph glyph-name="R" unicode="R" 
d="M482 398l1 1c1 8 1 16 1 24c0 80 -47 160 -150 160h-169v-183l160 -122zM305 263l-140 107v-107h140zM345 263h1c69 5 110 47 128 99zM165 0h-81v64l-84 -64v30l84 64v338l-84 64v30l84 -64v202h259h5c128 -7 201 -102 215 -205l87 67v-30l-85 -65v-8
c0 -89 -44 -179 -129 -219l10 -19l204 -155v-30l-172 132l76 -132h-94l-105 183c-2 0 -4 -1 -7 -1h-5h-104l-74 -56v-126zM199 182h-34v-26z" />
    <glyph glyph-name="S" unicode="S" 
d="M334 373h7c33 -1 63 -6 89 -15l92 70h-38v41v5c-2 32 -16 58 -45 78s-71 31 -115 31c-76 0 -159 -36 -159 -109c3 -49 50 -101 150 -101h19zM311 292c1 0 3 0 -4 0l18 -14l18 14h-9h-23zM478 161l2 4c2 10 4 19 4 25c-2 42 -36 86 -106 98l-33 -25zM324 81
c56 0 115 19 143 59l-142 108l-142 -109c28 -39 86 -58 141 -58zM650 0l-116 89c-37 -51 -104 -89 -200 -89h-2h-8h-5c-58 1 -113 17 -155 46c-19 12 -34 27 -46 44l-118 -90v30l105 80c-14 25 -21 54 -21 85v41h81v-41v-5c1 -11 3 -21 6 -29l134 102l-43 33
c-92 15 -149 68 -169 129l-93 71v30l85 -65c-1 3 -1 5 -1 8v4v5c0 93 79 186 231 186h2h7c121 0 241 -67 241 -195v-8l85 65v-30l-85 -65v-3h-4l-105 -80c65 -31 102 -87 108 -144c1 -3 1 -6 1 -9v-4v-5c0 -26 -6 -52 -19 -77l104 -79v-30z" />
    <glyph glyph-name="T" unicode="T" 
d="M165 428h-37l156 -119v274h-119v-155zM484 428v155h-119v-274l157 119h-38zM365 0h-81v217l-284 -217v30l284 217v32l-195 149h-5v4l-84 64v30l84 -64v202h481v-203l85 65v-30l-85 -65v-3h-4l-196 -149v-32l285 -217v-30l-285 217v-217z" />
    <glyph glyph-name="U" unicode="U" 
d="M472 166l2 4c7 18 11 39 11 62v138l-140 -107zM179 166l126 97l-139 106v-137c0 -25 5 -47 13 -66zM325 81c53 0 105 20 135 64l-135 103l-134 -103c29 -44 82 -64 134 -64zM566 0h-81v54c-44 -36 -102 -54 -160 -54h-5c-60 1 -116 22 -159 58c-14 11 -25 24 -35 38
l-126 -96v30l113 86c-16 30 -26 63 -28 101v5v209l-85 65v30l85 -65v203h81v-265l159 -121l160 122v264h81v-202l84 64v-30l-84 -64v-338l84 -64v-30l-84 64v-64z" />
    <glyph glyph-name="V" unicode="V" 
d="M650 0l-224 171l-62 -139c-1 -5 -4 -10 -7 -15l-1 -2c-7 -8 -15 -13 -25 -15c-2 0 -4 0 -1 0c-2 0 -4 0 -2 0h-3v0h-1h-3c1 0 3 0 -2 0c2 0 3 0 -1 0c-10 2 -18 7 -25 15l-1 2c-3 5 -6 10 -7 15l-62 138l-223 -170v30l213 162l-97 216l-116 88v30l95 -72l-3 6
c-8 9 -10 21 -8 33v171h81v-175l61 -136l99 -75l97 74l63 139v133h-1v40h81v-31c1 -3 1 -6 1 -9v-140c0 -9 -4 -19 -10 -26l-2 -6l96 74v-30l-117 -89l-97 -214l214 -163v-30zM277 241l28 22l-58 45zM372 242l30 64l-57 -43zM325 136l37 84l-37 28l-38 -29z" />
    <glyph glyph-name="W" unicode="W" 
d="M650 0l-172 131l-21 -87c1 -15 -6 -30 -19 -39c-7 -3 -14 -5 -16 -5h-5h-5v0c-6 1 -11 3 -16 5c-14 8 -21 23 -20 38l-50 187l-51 -187c1 -15 -6 -30 -20 -38c-6 -3 -14 -5 -16 -5h-5h-5v0c-5 1 -11 3 -16 5c-13 9 -20 24 -19 38l-22 89l-172 -132v30l166 127l-65 262
l-101 77v30l92 -70l-2 8c-6 9 -7 19 -5 28v132h-1v40h81v-31c1 -3 1 -6 1 -9v-139v-6l24 -98l79 -60l16 60v37h81v-39l15 -58l80 61l24 97v6v139h-1v40h81v-31c1 -3 1 -6 1 -9v-132c2 -9 1 -19 -5 -28l-2 -7l91 69v-30l-100 -76l-65 -264l165 -126v-30zM418 207l34 138
l-64 -49l22 -83zM233 208l7 5l22 83l-63 48z" />
    <glyph glyph-name="X" unicode="X" 
d="M168 0h-94l66 107l-140 -107v30l174 133l84 136l-258 197v30l271 -207l8 13l-205 332h94l157 -256l158 256h93l-204 -332l8 -12l270 206v-30l-258 -197l84 -136l174 -133v-30l-139 106l65 -106h-93l-148 240l-10 8l-9 -7z" />
    <glyph glyph-name="Y" unicode="Y" 
d="M365 0h-81v217l-284 -217v30l284 217v29l-178 128c-11 5 -18 15 -21 27l-85 65v30l84 -64v202h81v-203l160 -117l159 117v203h81v-203l85 65v-30l-86 -66c-3 -12 -10 -21 -21 -25l-178 -129v-29l285 -217v-30l-285 217v-217z" />
    <glyph glyph-name="Z" unicode="Z" 
d="M165 437h-48l151 -116l180 262h-283v-146zM484 81v46l-159 121l-19 -15l-105 -152h283zM84 0v36c-1 9 1 19 7 27l9 14l-100 -77v30l143 109l112 163l-255 194v30l84 -64v202h437h8h36v-36c1 -9 -1 -19 -7 -27l-209 -305l301 230v-30l-305 -233l139 -106v70h81v-132
l85 -65v-30l-85 65v-65h-481z" />
    <glyph glyph-name="bracketleft" unicode="[" 
d="M238 212l67 51l-67 51v-102zM157 -90v210l-157 -120v30l157 120v226l-157 120v30l157 -120v330h335v-81h-254v-311l87 -66l325 248v-30l-305 -233l305 -233v-30l-325 248l-87 -66v-191h254v-81h-335z" />
    <glyph glyph-name="backslash" unicode="\" 
d="M558 0h-99l-136 246l-323 -246v30l305 233l-305 233v30l291 -222l-199 360h99l190 -343l269 205v-30l-258 -197l70 -126l188 -143v-30l-159 121z" />
    <glyph glyph-name="bracketright" unicode="]" 
d="M412 212v102l-67 -51zM158 -90v81h254v191l-87 66l-325 -248v30l305 233l-305 233v30l325 -248l87 66v311h-254v81h335v-330l157 120v-30l-157 -120v-226l157 -120v-30l-157 120v-210h-335z" />
    <glyph glyph-name="underscore" unicode="_" 
d="M544 81l-219 167l-219 -167h438zM84 0v64l-84 -64v30l305 233l-305 233v30l325 -248l325 248v-30l-305 -233l305 -233v-30l-85 65v-65h-481z" />
    <glyph glyph-name="a" unicode="a" 
d="M482 337v3c-2 8 -3 16 -5 24l-18 -14c8 -4 16 -8 23 -13zM325 278l19 15h-18h-5h-5h-11zM168 158l137 105l-36 28c-63 -6 -103 -30 -103 -105c0 -10 1 -19 2 -28zM475 164v1c1 6 1 13 1 21c0 72 -37 97 -96 104l-35 -27zM321 81h5c79 0 125 15 142 58l-143 109l-149 -114
c19 -39 64 -53 140 -53h5zM566 0h-81v38c-38 -25 -91 -38 -159 -38h-5h-5c-101 0 -170 30 -205 85l-111 -85v30l100 76c-10 23 -15 50 -15 80c0 81 35 137 104 166l-189 144v30l215 -164c29 8 63 12 101 12h5h5c41 0 76 -5 106 -14l36 27c-19 36 -52 58 -107 58h-204v81h204
h5c73 -1 132 -32 166 -90l118 90v-30l-107 -81c15 -33 23 -73 23 -120v0v-1v-200l84 -64v-30l-84 64v-64z" />
    <glyph glyph-name="b" unicode="b" 
d="M325 278l133 102c-28 40 -76 65 -134 65c-52 0 -104 -20 -134 -64zM178 166l127 97l-127 97c-8 -19 -13 -41 -13 -66v-62c0 -25 5 -47 13 -66zM471 166l2 4c7 18 11 39 11 62v62c0 24 -5 46 -14 65l-125 -96zM324 81c53 0 106 20 135 64l-134 103l-135 -103
c30 -44 82 -64 134 -64zM165 0h-81v64l-84 -64v30l84 64v338l-84 64v30l84 -64v258h81v-248c44 36 102 54 159 54c77 0 154 -33 200 -96l126 96v-30l-113 -86c18 -33 28 -71 28 -114v0v-73v-6c-2 -38 -12 -72 -28 -101l113 -86v-30l-126 96c-45 -64 -122 -96 -200 -96h-5
c-58 1 -112 20 -154 54v-54z" />
    <glyph glyph-name="c" unicode="c" 
d="M325 278l133 102c-28 40 -76 65 -134 65c-52 0 -104 -20 -134 -64zM165 231v-4v-5c0 -23 4 -42 10 -58l130 99l-127 97c-8 -19 -13 -41 -13 -66v-63zM343 81h201l-219 167l-139 -106c33 -49 99 -61 157 -61zM343 0c-81 0 -145 21 -191 60c-11 10 -21 21 -30 33l-122 -93
v30l109 83c-16 32 -25 69 -25 109v5v4v65v2c1 43 11 81 29 112l-113 86v30l125 -96c46 63 122 96 199 96s154 -33 200 -96l126 96v-30l-113 -86c18 -33 28 -71 28 -116h-81c0 24 -5 46 -14 65l-125 -96l305 -233v-30l-85 65v-65h-222z" />
    <glyph glyph-name="d" unicode="d" 
d="M325 278l134 102c-28 41 -76 65 -134 65c-52 0 -105 -20 -134 -64zM179 166l126 97l-126 97c-8 -19 -13 -41 -13 -66v-62c0 -25 5 -47 13 -66zM472 166l2 4c7 18 11 39 11 62v62c0 24 -5 46 -14 65l-126 -96zM326 81c52 0 104 20 134 64l-135 103l-134 -103
c29 -44 82 -64 135 -64zM566 0h-81v54c-43 -35 -99 -54 -159 -54h-5c-76 1 -151 34 -195 96l-126 -96v30l113 86c-16 29 -26 63 -28 102v5v73v2c1 43 11 80 28 112l-113 86v30l126 -96c45 63 122 96 199 96c58 0 116 -18 160 -54v248h81v-258l84 64v-30l-84 -64v-338l84 -64
v-30l-84 64v-64z" />
    <glyph glyph-name="e" unicode="e" 
d="M325 278l133 102c-28 40 -76 65 -134 65c-52 0 -104 -20 -134 -64zM296 270l-118 90c-8 -19 -13 -41 -13 -66v-24h131zM484 294v5c-1 22 -6 42 -14 60l-116 -89h130v24zM208 189h-40c2 -9 4 -18 7 -25zM343 81h201l-142 108h-154l-62 -47c33 -49 99 -61 157 -61zM343 0
c-81 0 -145 21 -191 60c-11 10 -21 21 -30 33l-122 -93v30l109 83c-16 32 -25 69 -25 109v4v4v0v1v65v2c1 43 11 81 29 112l-113 86v30l125 -96c46 63 122 96 199 96s154 -33 200 -96l126 96v-30l-113 -86c18 -33 28 -71 28 -116v-105h-123l208 -159v-30l-85 65v-65h-222z
" />
    <glyph glyph-name="f" unicode="f" 
d="M222 445h-116l116 -88v88zM303 261l2 2l-2 2v-4zM222 81v88l-116 -88h116zM303 81h241l-219 167l-22 -17v-150zM85 0v65l-85 -65v30l222 169v128l-222 169v30l85 -65v65h137c2 118 20 194 169 194h175v-81h-175c-75 0 -86 -21 -88 -113h178v-81h-178v-150l22 -17l325 248
v-30l-305 -233l305 -233v-30l-84 64v-64h-481z" />
    <glyph glyph-name="g" unicode="g" 
d="M325 278l134 102c-28 41 -76 65 -134 65c-52 0 -105 -20 -134 -64zM166 231v-6c1 -22 5 -42 13 -59l126 97l-126 97c-8 -19 -13 -41 -13 -66v-63zM471 166v1c9 19 14 40 14 64v63c0 24 -5 46 -14 65l-126 -96zM325 81c58 0 106 24 134 64l-134 103l-135 -103
c30 -43 83 -64 135 -64zM307 -230h-40v81h40v0c82 0 178 24 178 141v62c-44 -36 -102 -54 -160 -54c-77 0 -154 33 -199 96l-126 -96v30l113 86c-18 32 -28 70 -28 115v63c0 45 10 83 28 116l-113 86v30l126 -96c45 63 122 96 199 96c58 0 116 -18 160 -54v10v4v0v40h81v-40
v0v-4v-20l84 64v-30l-84 -64v-338l84 -64v-30l-84 64v-72c0 -66 -23 -123 -68 -162c-46 -39 -110 -60 -191 -60z" />
    <glyph glyph-name="h" unicode="h" 
d="M325 278l133 102c-28 40 -76 65 -134 65c-52 0 -104 -20 -134 -64zM165 156l140 107l-127 97c-8 -19 -13 -41 -13 -66v-138zM484 294v5c-1 22 -6 42 -14 60l-125 -96l139 -106v137zM84 0v64l-84 -64v30l84 64v338l-84 64v30l84 -64v258h81v-248c44 36 102 54 159 54
c77 0 154 -33 200 -96l126 96v-30l-113 -86c18 -33 28 -71 28 -116v-199l85 -65v-30l-85 65v-65h-81v127l-159 121l-160 -122v-126h-81z" />
    <glyph glyph-name="i" unicode="i" 
d="M260 590v130h131v-130h-131zM285 81v136l-179 -136h179zM366 81h178l-178 136v-136zM85 0v65l-85 -65v30l285 217v32l-285 217v30l285 -217v136h-160v81h241v-217l284 217v-30l-284 -217v-32l284 -217v-30l-84 64v-64h-481z" />
    <glyph glyph-name="j" unicode="j" 
d="M344 590v130h131v-130h-131zM369 244v38l-24 -19zM106 -230v81h85c82 0 178 25 178 141v222l-44 34l-325 -248v30l305 233l-305 233v30l325 -248l44 34v133h-200v81h281v-153l200 153v-30l-200 -153v-160l200 -153v-30l-200 153v-161c0 -134 -98 -222 -259 -222h-85z" />
    <glyph glyph-name="k" unicode="k" 
d="M165 248l69 69l-69 53v-122zM165 0h-81v64l-84 -64v30l84 64v338l-84 64v30l84 -64v258h81v-320l86 -66l192 192h117l-243 -242l8 -6l325 248v-30l-305 -233l305 -233v-30l-254 194l174 -194h-108l-187 209l-110 -83v-126z" />
    <glyph glyph-name="l" unicode="l" 
d="M544 81l-179 136v-136h179zM284 81v136l-178 -136h178zM84 0v64l-84 -64v30l284 217v32l-284 217v30l284 -217v330h-200v81h281v-411l285 217v-30l-285 -217v-32l285 -217v-30l-85 65v-65h-481z" />
    <glyph glyph-name="m" unicode="m" 
d="M365 309l114 86c-7 31 -22 44 -54 49c-55 -7 -60 -40 -60 -135zM284 309v3c0 93 -7 125 -60 131c-32 -4 -47 -17 -53 -47zM165 156l119 91v32l-117 90c-2 -18 -2 -40 -2 -66v-4v-5v-138zM484 294v5v4c0 26 0 47 -2 65l-117 -89v-32l119 -90v137zM84 0v64l-84 -64v30
l84 64v200v5v4c0 47 1 88 9 122l-93 71v30l101 -77c11 29 31 51 65 64c7 8 18 13 29 13c10 0 20 0 29 -1c9 1 19 1 29 1c11 0 21 -5 29 -13c17 -6 31 -15 42 -27c11 12 26 21 44 28c7 7 17 12 28 12c10 0 20 0 29 -1c8 1 18 1 28 1c11 0 21 -5 28 -12c35 -13 56 -35 68 -65
l101 77v-30l-94 -72c8 -33 9 -75 9 -121v-4v-5v-199l85 -65v-30l-85 65v-65h-81v127l-119 90v-217h-81v217l-119 -91v-126h-81z" />
    <glyph glyph-name="n" unicode="n" 
d="M325 278l134 103c-29 44 -82 64 -134 64c-58 0 -106 -24 -134 -65zM484 294v6c-1 23 -5 43 -13 60l-126 -97l139 -106v137zM165 156l140 107l-126 96c-9 -19 -14 -41 -14 -65v-138zM84 0v64l-84 -64v30l84 64v200c0 45 11 84 29 116l-113 86v30l125 -96
c46 63 123 96 200 96s154 -33 199 -96l126 96v-30l-113 -86c18 -33 28 -71 28 -116v-199l85 -65v-30l-85 65v-65h-81v127l-159 121l-160 -122v-126h-81z" />
    <glyph glyph-name="o" unicode="o" 
d="M650 0l-126 96c-45 -63 -122 -96 -200 -96c-77 0 -154 32 -199 95l-125 -95v30l112 86c-18 32 -28 70 -28 115v65v2c1 43 11 81 29 112l-113 86v30l125 -96c46 63 122 96 199 96s154 -33 200 -96l126 96v-30l-113 -86c18 -33 28 -71 28 -114v0v-65
c0 -45 -10 -83 -28 -115l113 -86v-30zM325 278l133 102c-28 40 -76 65 -134 65c-52 0 -104 -20 -134 -64zM165 231v-6c1 -23 5 -42 13 -59l127 97l-127 97c-8 -19 -13 -41 -13 -66v-63zM471 167l1 4c8 18 12 38 12 60v63c0 24 -5 46 -14 65l-125 -96zM324 81
c58 0 107 24 135 65l-134 102l-135 -103c29 -44 82 -64 134 -64z" />
    <glyph glyph-name="p" unicode="p" 
d="M325 278l134 103c-29 44 -82 64 -134 64c-58 0 -106 -24 -134 -65zM484 294v6c-1 23 -5 43 -13 60l-126 -97l126 -97c8 19 13 40 13 65v63zM179 166l126 97l-126 96c-9 -19 -14 -41 -14 -65v-63c0 -24 5 -46 14 -65zM325 81c52 0 105 21 135 64l-135 103l-134 -103
c28 -40 76 -64 134 -64zM84 -230v294l-84 -64v30l84 64v338l-84 64v30l84 -64v64h81v-54c44 36 102 54 160 54c77 0 154 -33 199 -96l126 96v-30l-113 -86c18 -33 28 -71 28 -116v-63c0 -45 -10 -83 -28 -115l113 -86v-30l-126 96c-45 -63 -122 -96 -199 -96
c-58 0 -116 18 -160 54v-284h-81z" />
    <glyph glyph-name="q" unicode="q" 
d="M325 278l134 102c-28 41 -76 65 -134 65c-52 0 -105 -20 -134 -64zM166 231v-6c1 -22 5 -42 13 -59l126 97l-126 97c-8 -19 -13 -41 -13 -66v-63zM471 166v1c9 19 14 40 14 64v63c0 24 -5 46 -14 65l-126 -96zM325 81c58 0 106 24 134 64l-134 103l-135 -103
c30 -43 83 -64 135 -64zM485 -230v284c-44 -36 -102 -54 -160 -54c-77 0 -154 33 -199 96l-126 -96v30l113 86c-18 32 -28 70 -28 115v63c0 45 10 83 28 116l-113 86v30l126 -96c45 63 122 96 199 96c58 0 116 -18 160 -54v54h81v-64l84 64v-30l-84 -64v-338l84 -64v-30
l-84 64v-294h-81z" />
    <glyph glyph-name="r" unicode="r" 
d="M325 278l129 98c-20 43 -59 69 -118 69c-55 0 -110 -22 -139 -70zM176 164l129 99l-119 91c-6 -18 -10 -37 -10 -60v-130zM176 0h-81v72l-95 -72v30l95 72v322l-95 72v30l95 -72v72h81v-54c45 36 102 54 160 54c79 0 146 -34 183 -100l131 100v-30l-120 -92
c13 -30 20 -67 20 -109h-81c0 21 -2 40 -7 58l-117 -90l305 -233v-30l-325 248l-149 -114v-134z" />
    <glyph glyph-name="s" unicode="s" 
d="M201 374v-1l93 -71h62l96 73h-4v4c-5 39 -73 66 -123 66c-56 0 -124 -26 -124 -70v0v-1zM241 312l-33 25c7 -9 18 -18 33 -25zM324 81c18 0 121 -9 146 56l-110 84h-70l-109 -83c27 -56 129 -57 143 -57zM406 221h-6l75 -57v4v0c0 17 -16 53 -69 53zM650 0l-114 87
c-49 -83 -173 -87 -212 -87c-38 0 -159 10 -209 88l-115 -88v30l104 79c-7 17 -11 37 -11 59h81v-5l80 61c-65 10 -134 48 -134 130v0v1v19v1v0c0 10 1 19 3 27l-123 94v30l131 -100c31 70 124 100 194 100c69 0 163 -30 194 -100l131 100v-30l-124 -94c2 -9 3 -18 3 -27
h-38l-95 -73h10c71 0 150 -37 150 -134v-7c-1 -20 -4 -37 -10 -52l104 -79v-30z" />
    <glyph glyph-name="t" unicode="t" 
d="M650 0l-101 77c-20 -49 -62 -77 -153 -77h-3h-3c-139 0 -164 65 -168 169l-222 -169v30l221 169v23v105l-221 169v30l84 -64v64h137v194h81v-194h178v-81h-178v-149l23 -18l325 248v-30l-305 -233l137 -105c2 17 2 38 2 64v41h81v-42v-2c0 -45 -1 -85 -9 -117l94 -72v-30
zM221 445h-115l115 -88v88zM302 260l3 3l-3 3v-6zM302 222v-9c0 -108 8 -132 88 -132h3h3c53 0 74 11 83 50l-154 117l-23 -18v-8z" />
    <glyph glyph-name="u" unicode="u" 
d="M471 166v1c9 19 14 40 14 64v139l-140 -107zM166 231v-6c1 -22 5 -42 13 -59l126 97l-139 106v-138zM325 81c58 0 106 24 134 64l-134 103l-135 -103c30 -43 83 -64 135 -64zM566 0h-81v54c-44 -36 -102 -54 -160 -54c-77 0 -154 33 -199 96l-126 -96v30l113 86
c-18 32 -28 70 -28 115v200l-85 65v30l85 -65v65h81v-127l159 -121l160 122v126h81v-64l84 64v-30l-84 -64v-338l84 -64v-30l-84 64v-64z" />
    <glyph glyph-name="v" unicode="v" 
d="M650 0l-208 159l-86 -144c-7 -8 -15 -13 -25 -15c-2 0 -4 0 -1 0c-2 0 -4 0 -2 0h-3v0h-1h-3c1 0 3 0 -2 0c2 0 3 0 -1 0c-10 2 -18 7 -25 15l-85 143l-208 -158v30l195 149l-103 173c-8 9 -10 21 -8 33v47l-84 64v30l84 -64v64h81v-126l160 -122l160 122v126h81v-64
l84 64v-30l-84 -64v-56c0 -10 -4 -19 -10 -26l-102 -171l196 -149v-30zM259 228l46 35l-123 94zM390 228l76 127l-121 -92zM325 119l53 89l-53 40l-53 -41z" />
    <glyph glyph-name="w" unicode="w" 
d="M650 0l-144 110l-54 -89c-4 -6 -9 -12 -15 -16c-2 -1 -4 -1 -5 -2c-5 -2 -10 -3 -15 -3h-1v0h-5c-4 1 -7 2 -11 3l-4 2c-5 3 -9 6 -12 10c-1 2 -2 3 -3 5l-56 93l-52 -87c-4 -9 -10 -16 -18 -21c-6 -3 -14 -5 -16 -5h-5h-5v0c-5 1 -11 3 -16 5c-7 5 -13 12 -16 20l-52 86
l-145 -111v30l133 101l-43 71c-6 9 -7 19 -5 28v201l-85 65v30l85 -65v65h81v-127l119 -90v109h81v-109l119 91v126h81v-64l84 64v-30l-84 -64v-202c2 -9 1 -19 -5 -28l-43 -71l132 -101v-30zM453 180l32 52v138l-119 -91v-32zM197 180l88 67v32l-119 90v-137zM234 119
l51 85v13l-75 -57zM416 118l25 41l-75 58v-15z" />
    <glyph glyph-name="x" unicode="x" 
d="M194 0h-100l110 156l-204 -156v30l250 191l26 36l-45 63l-231 176v30l185 -141l-100 141h100l141 -199l140 199h100l-98 -139l182 139v-30l-229 -174l-45 -65l26 -38l248 -189v-30l-202 154l109 -154h-100l-131 186z" />
    <glyph glyph-name="y" unicode="y" 
d="M259 228l46 35l-123 94zM390 228l76 127l-121 -92zM325 119l53 89l-53 40l-53 -41zM196 -230h-40v81h40h6c76 1 82 28 82 141v38l-76 128l-208 -158v30l195 149l-103 173c-8 9 -10 21 -8 33v47l-84 64v30l84 -64v64h81v-126l160 -122l159 121v127h81v-65l85 65v-30
l-85 -65v-55c0 -8 -2 -15 -7 -21l-1 -3l-103 -173l196 -149v-30l-208 159l-77 -129v-61v-2c-2 -120 -18 -197 -169 -197z" />
    <glyph glyph-name="z" unicode="z" 
d="M435 445h-329l195 -149zM216 81h328l-194 148zM85 0v57l23 26l-108 -83v30l197 150l88 98l-285 218v30l85 -65v65h481v-57l-21 -23l105 80v-30l-193 -147l-91 -102l284 -217v-30l-84 64v-64h-481z" />
    <glyph glyph-name="braceright" unicode="}" horiz-adv-x="605" 
 />
    <glyph glyph-name="asciitilde" unicode="~" 
d="M421 321h5c10 1 22 3 35 8c37 13 54 37 55 65zM323 280l-2 2c-14 14 -25 34 -34 58c-15 41 -46 57 -95 39zM650 30v-30l-325 248l-325 -248v30l305 233l-137 105c-32 -20 -41 -50 -29 -82l-76 -28c-26 72 -5 126 37 161l-100 77v30l121 -92c12 7 26 14 40 19
c79 30 166 15 202 -86c6 -18 16 -31 29 -38l119 91v1l3 1l136 104v-30l-63 -48c37 -100 -20 -167 -98 -194c-46 -17 -95 -20 -134 1z" />
    <glyph glyph-name="Adieresis" unicode="&#xc4;" 
d="M162 813v117h118v-117h-118zM371 813v117h118v-117h-118zM325 278l77 59l-76 220l-77 -221zM446 211l-36 102l-65 -50l68 -52h33zM237 211l68 52l-64 49l-35 -101h31zM373 211l-48 37l-48 -37h96zM518 0l-18 55l-23 66h-303l-23 -66l-18 -55h-91l15 43l-57 -43v30l71 54
l97 284l-168 128v30l176 -134l107 314v0l11 32h63l11 -32v0l107 -314l175 134v-30l-167 -127l97 -286l70 -53v-30l-56 42l15 -42h-91z" />
    <glyph glyph-name="Odieresis" unicode="&#xd6;" 
d="M178 732v105h106v-105h-106zM366 732v105h107v-105h-107zM325 583h-6c-46 -1 -80 -17 -105 -48s-40 -77 -46 -137l157 -120l156 119c-6 60 -21 107 -46 138c-26 32 -62 48 -110 48zM650 0l-135 103c-52 -86 -134 -103 -190 -103h-3c-57 1 -136 19 -187 103l-135 -103v30
l123 94c-24 49 -39 116 -39 208c0 35 2 67 6 95l-90 69v30l95 -72c36 180 155 210 230 210s193 -30 229 -211l96 73v-30l-91 -70c4 -28 6 -59 6 -94c0 -92 -15 -159 -39 -207l124 -95v-30zM189 174l116 89l-139 106c-1 -12 -1 -24 -1 -37c0 -65 8 -118 24 -158zM460 175l1 1
c15 39 23 92 23 156c0 13 0 25 -1 37l-138 -106zM325 81c48 0 84 16 110 49c5 7 10 14 15 23l-125 95l-126 -96c5 -8 10 -15 15 -22c26 -33 62 -49 111 -49z" />
    <glyph glyph-name="Udieresis" unicode="&#xdc;" 
d="M178 732v105h107v-105h-107zM366 732v105h107v-105h-107zM472 166l2 4c7 18 11 39 11 62v138l-140 -107zM179 166l126 97l-139 106v-137c0 -25 5 -47 13 -66zM325 81c53 0 105 20 135 64l-135 103l-134 -103c29 -44 82 -64 134 -64zM566 0h-81v54
c-44 -36 -102 -54 -160 -54h-5c-60 1 -116 22 -159 58c-14 11 -25 24 -35 38l-126 -96v30l113 86c-16 30 -26 63 -28 101v5v209l-85 65v30l85 -65v203h81v-265l159 -121l160 122v264h81v-202l84 64v-30l-84 -64v-338l84 -64v-30l-84 64v-64z" />
    <glyph glyph-name="agrave" unicode="&#xe0;" horiz-adv-x="500" 
 />
    <glyph glyph-name="iacute" unicode="&#xed;" horiz-adv-x="605" 
 />
    <glyph glyph-name="odieresis" unicode="&#xf6;" 
d="M178 559v105h106v-105h-106zM366 559v105h107v-105h-107zM650 0l-126 96c-45 -63 -122 -96 -200 -96c-77 0 -154 32 -199 95l-125 -95v30l112 86c-18 32 -28 70 -28 115v65v2c1 43 11 81 29 112l-113 86v30l125 -96c46 63 122 96 199 96s154 -33 200 -96l126 96v-30
l-113 -86c18 -33 28 -71 28 -114v0v-65c0 -45 -10 -83 -28 -115l113 -86v-30zM325 278l133 102c-28 40 -76 65 -134 65c-52 0 -104 -20 -134 -64zM165 231v-6c1 -23 5 -42 13 -59l127 97l-127 97c-8 -19 -13 -41 -13 -66v-63zM471 167l1 4c8 18 12 38 12 60v63
c0 24 -5 46 -14 65l-125 -96zM324 81c58 0 107 24 135 65l-134 102l-135 -103c29 -44 82 -64 134 -64z" />
    <glyph glyph-name="udieresis" unicode="&#xfc;" 
d="M285 559h-107v105h107v-105zM473 559h-107v105h107v-105zM471 166v1c9 19 14 40 14 64v139l-140 -107zM166 231v-6c1 -22 5 -42 13 -59l126 97l-139 106v-138zM325 81c58 0 106 24 134 64l-134 103l-135 -103c30 -43 83 -64 135 -64zM566 0h-81v54
c-44 -36 -102 -54 -160 -54c-77 0 -154 33 -199 96l-126 -96v30l113 86c-18 32 -28 70 -28 115v200l-85 65v30l85 -65v65h81v-127l159 -121l160 122v126h81v-64l84 64v-30l-84 -64v-338l84 -64v-30l-84 64v-64z" />
    <glyph glyph-name="cent" unicode="&#xa2;" 
d="M484 412v4c-2 51 -32 102 -119 114v-221l136 103h-17zM284 309v220c-59 -13 -111 -54 -118 -130zM165 283v-1c0 -43 13 -76 35 -100l84 65v32l-119 91v-87zM365 133l5 1c29 5 53 13 70 26l-75 57v-84zM284 135v82l-67 -51c19 -16 43 -26 67 -31zM284 -55v108
c-47 7 -90 26 -124 55c-3 2 -6 5 -9 8l-151 -116v30l135 103c-34 39 -51 90 -51 149v1v0v99c0 16 1 32 4 47l-88 67v30l94 -72c27 91 105 144 190 157v89h81v-88c108 -12 178 -69 195 -154l90 68v-30l-86 -65c1 -6 1 -13 1 -19h-25l-175 -133v-32l93 -71c18 20 26 46 26 76
h81c0 -50 -15 -92 -42 -125l127 -97v-30l-144 110c-34 -32 -81 -52 -141 -58v-107h-81z" />
    <glyph glyph-name="sterling" unicode="&#xa3;" 
d="M334 285h-18l9 -7zM305 263l-28 22h-9l11 -42zM293 190l1 -5c10 -35 9 -73 -7 -104h257l-219 167l-39 -30l6 -22c0 -2 1 -4 1 -6zM182 97l3 1c15 5 42 23 32 67l-111 -84h16zM82 0v63l-82 -63v30l210 160l-25 95h-85v81h63l-2 7l-161 123v30l151 -115
c-33 139 30 232 141 260c117 34 218 -22 259 -168l-80 -21c-23 87 -70 135 -158 113c-76 -20 -108 -78 -81 -177l14 -52h182v-9l222 169v-30l-222 -169v-42h-55l-28 -22l305 -233v-30l-87 66v-66h-481z" />
    <glyph glyph-name="acute" unicode="&#xb4;" 
 />
    <glyph glyph-name="plusminus" unicode="&#xb1;" 
d="M415 347h-49v-38zM285 347h-50l50 -38v38zM285 184v33l-44 -33h44zM409 184l-43 33v-33h43zM650 0l-135 103h-380l-135 -103v30l96 73v81h106l83 63v32l-90 68h-99v76l-96 73v30l128 -98h157v206h81v-206h156l128 98v-30l-96 -73v-76h-99l-89 -68v-32l82 -63h106v-81
l96 -73v-30z" />
    <glyph glyph-name="yen" unicode="&#xa5;" 
d="M401 336h-37v-28zM283 336h-34l34 -26v26zM283 0v174h-55l-228 -174v30l189 144h-93v72h187v34l-73 56h-114v72h19l-115 88v30l155 -118h79l-157 256h90l156 -255l156 255h90l-157 -256h83l155 118v-30l-115 -88h18v-72h-113l-76 -58v-30l3 -2h186v-72h-92l189 -144v-30
l-228 174h-58v-174h-81z" />
    <glyph glyph-name="exclamdown" unicode="&#xa1;" horiz-adv-x="500" 
 />
    <glyph glyph-name="emdash" unicode="&#x2014;" 
d="M650 0l-325 248l-325 -248v30l305 233l-22 17h-199v81h93l-177 135v30l216 -165h218l216 165v-30l-177 -135h92v-81h-198l-22 -17l305 -233v-30zM328 280h-6l3 -2z" />
    <glyph glyph-name="quoteleft" unicode="&#x2018;" 
d="M256 647v138h137v-138h-137zM650 0l-325 248l-325 -248v30l305 233l-305 233v30l325 -248l325 248v-30l-305 -233l305 -233v-30z" />
    <glyph glyph-name="quoteright" unicode="&#x2019;" 
d="M256 647v138h137v-138h-137zM650 0l-325 248l-325 -248v30l305 233l-305 233v30l325 -248l325 248v-30l-305 -233l305 -233v-30z" />
    <glyph glyph-name="divide" unicode="&#xf7;" 
d="M249 529c0 42 36 75 76 75c42 0 76 -33 76 -75c0 -40 -34 -76 -76 -76c-40 0 -76 36 -76 76zM650 0l-325 248l-325 -248v30l305 233l-47 36h-162v81h56l-152 116v30l191 -146h268l191 146v-30l-152 -116h56v-81h-162l-47 -36l305 -233v-30zM353 299h-56l28 -21zM249 147
c0 42 36 75 76 75c42 0 76 -33 76 -75c0 -41 -34 -76 -76 -76c-40 0 -76 35 -76 76z" />
    <glyph glyph-name="ydieresis" unicode="&#xff;" 
d="M473 559h-107v105h107v-105zM178 559v105h106v-105h-106zM259 228l46 35l-123 94zM390 228l76 127l-121 -92zM325 119l53 89l-53 40l-53 -41zM196 -230h-40v81h40c82 0 88 25 88 141v38l-76 128l-208 -158v30l195 149l-103 173c-8 9 -10 21 -8 33v47l-84 64v30l84 -64v64
h81v-126l160 -122l159 121v127h81v-65l85 65v-30l-85 -65v-55c0 -8 -2 -15 -7 -21l-1 -3l-103 -173l196 -149v-30l-208 159l-77 -129v-61v-2c-2 -120 -18 -197 -169 -197z" />
    <glyph glyph-name="uniFB01" unicode="&#xfb01;" 
d="M138 445h-32l32 -24v24zM491 151v224l-146 -112zM219 197l86 66l-86 66v-132zM138 0v105l-138 -105v30l138 105v256l-138 105v30l73 -56v56h65c2 118 20 194 169 194h265v-81h-265c-75 0 -86 -21 -88 -113h178v-81h-178v-86l106 -81l166 127v121h81v-60l78 60v-30
l-78 -60v-346l78 -60v-30l-78 60v-60h-81v121l-166 127l-106 -81v-167h-81z" />
    <glyph glyph-name="uniFB02" unicode="&#xfb02;" 
d="M397 445h-178v-86l106 -81l166 127v121v6c-2 86 -41 143 -131 143c-79 0 -141 -47 -141 -149h178v-81zM138 445h-32l32 -24v24zM491 151v224l-146 -112zM219 197l86 66l-86 66v-132zM138 0v105l-138 -105v30l138 105v256l-138 105v30l73 -56v56l65 2
c1 150 103 228 222 228c120 0 212 -78 212 -230v-60l78 60v-30l-78 -60v-346l78 -60v-30l-78 60v-60h-81v121l-166 127l-106 -81v-167h-81z" />
    <glyph glyph-name="Apostrophe" horiz-adv-x="605" 
d="M211 577l40 223h143l-40 -223h-143zM650 0l-325 248l-325 -248v30l305 233l-305 233v30l325 -248l325 248v-30l-305 -233l305 -233v-30z" />
    <glyph glyph-name="uni203D" unicode="&#x203d;" 
d="M369 458l2 1c18 10 33 27 33 58c0 33 -14 59 -35 73v-132zM650 0l-255 194c-20 -13 -45 -21 -78 -21h-6c-25 1 -46 7 -63 16l-248 -189v30l227 173c-30 27 -43 69 -43 111c0 14 2 27 4 38l-188 144v30l196 -150c18 39 53 60 92 67v151c-25 -13 -42 -40 -42 -77h-81
c0 71 37 167 160 167s160 -96 160 -167c0 -67 -45 -128 -116 -146v-57h3l278 212v-30l-239 -182h39c0 -39 -11 -77 -36 -104l236 -180v-30zM288 306v52c-15 -9 -21 -23 -22 -35zM288 262v14l-20 16c3 -15 11 -25 20 -30zM256 69c0 38 31 69 68 69c39 0 69 -31 69 -69
c0 -37 -30 -69 -69 -69c-37 0 -68 32 -68 69z" />
    <glyph glyph-name="uni2042" unicode="&#x2042;" 
d="M348 453v-82h-46v81l-57 -57l-33 32l58 58h-82v47h81l-57 57l33 33l57 -58v81h46v-81l58 58l32 -33l-57 -57h81v-47h-81l57 -58l-32 -32zM650 30v-30l-66 50v0l-2 2l-56 43v-68h-47v80l-56 -57l-34 33l57 57h-80v47h39l-80 61l-80 -61h38v-47h-80l57 -57l-33 -33l-57 57
v-80h-47v67l-56 -42l-1 -2v0l-66 -50v30l49 37l-16 16l57 57h-80v47h81l-58 58l33 32l57 -57v81h47v-81l57 57l33 -32l-58 -58h4l99 76l-305 233v30l325 -248l325 248v-30l-305 -233l99 -76h3l-58 58l34 32l56 -56v80h47v-82l58 58l32 -32l-57 -58h81v-47h-81l57 -57
l-15 -16z" />
    <glyph glyph-name="nine-2" horiz-adv-x="500" 
 />
    <glyph glyph-name="g-3" 
d="M309 445c-46 0 -87 -39 -87 -88l103 -79l68 52c2 8 4 17 4 26c0 50 -40 89 -88 89zM296 270l-65 50c12 -26 37 -45 65 -50zM216 195l15 11c-5 3 -10 6 -14 9c-1 -4 -2 -8 -2 -11c0 -4 0 -7 1 -9zM357 144h7c55 -1 100 -10 135 -28l-116 88c-23 -11 -48 -17 -74 -17
c-18 0 -36 3 -53 9l-35 -28c7 -18 23 -23 54 -24h17v0h65zM151 115l2 1v1zM357 -149h7c98 1 143 28 143 105c0 92 -61 107 -150 107h-63v0c-90 0 -151 -15 -151 -107c0 -79 47 -105 151 -105h63zM357 -230h-65v0c-152 1 -230 68 -230 186c0 51 14 92 42 123l-104 -79v30
l143 109c-5 17 -8 38 -9 63v0v4v8c0 4 1 7 1 11c4 23 12 41 24 55c-12 23 -19 49 -19 76c0 11 1 21 3 31l-143 109v30l149 -114c23 66 86 114 160 114c116 0 141 -12 141 70v40h81v-40v-7c-2 -90 -32 -124 -83 -136c12 -18 21 -39 26 -61l176 134v-30l-172 -131v-9
c0 -57 -29 -108 -73 -139l245 -187v-30l-103 79c27 -31 41 -72 41 -123c0 -119 -79 -186 -231 -186z" />
    <glyph glyph-name="f-2" 
d="M192 445h-86l86 -66v66zM273 238l32 25l-32 25v-50zM55 0v42l-55 -42v30l55 42v9h12l125 96v172l-125 96h-12v9l-55 42v30l55 -42v42l135 2c1 150 86 228 205 228c120 0 205 -78 205 -230h-81c0 89 -33 149 -124 149c-80 0 -124 -47 -124 -149h140v-81h-138v-127l52 -40
l325 248v-30l-305 -233l305 -233v-30l-325 248l-52 -40v-127h264v-81h-482zM192 81v66l-86 -66h86z" />
    <glyph glyph-name="y-2" 
d="M390 228l77 129l-122 -94zM260 228l45 35l-121 92zM325 119l53 88l-53 41l-53 -40zM650 0l-208 158l-81 -135c0 -1 -1 -2 -2 -4l-149 -249h-94l162 271l-70 118l-208 -159v30l196 149l-103 173c-8 9 -10 21 -8 33v46l-85 65v30l85 -65v65h81v-127l159 -121l160 122v126
h81v-64l84 64v-30l-84 -64v-56c0 -7 -2 -13 -5 -19c-2 -4 -4 -7 -6 -10l-100 -168l195 -149v-30z" />
    <glyph glyph-name="uniFB01-2" 
d="M406 445h-178v-93l97 -74l157 120v128v6c-1 86 -32 143 -122 143c-79 0 -132 -47 -132 -149h178v-81zM147 445h-41l41 -31v31zM482 158v210l-137 -105zM228 204l77 59l-77 59v-118zM147 0v112l-147 -112v30l147 112v242l-147 112v30l82 -63v63l65 2c1 150 94 228 213 228
c120 0 203 -78 203 -230v-66l87 66v-30l-87 -66v-334l87 -66v-30l-87 66v-66h-81v128l-157 120l-97 -74v-174h-81z" />
    <glyph glyph-name="a-4" 
d="M325 278l133 102c-28 40 -76 65 -134 65c-52 0 -104 -20 -134 -64zM165 231v-6c1 -23 5 -42 13 -59l127 97l-127 97c-8 -19 -13 -41 -13 -66v-63zM471 167l1 4c8 18 12 38 12 60v63c0 24 -5 46 -14 65l-125 -96zM324 81c58 0 107 24 135 65l-134 102l-135 -103
c29 -44 82 -64 134 -64zM565 0h-81v54c-44 -36 -102 -54 -160 -54c-77 0 -154 32 -199 95l-125 -95v30l112 86c-18 32 -28 70 -28 115v63c0 45 11 84 29 116l-113 86v30l125 -96c46 63 122 96 199 96c58 0 116 -18 160 -54v54h81v-65l85 65v-30l-85 -65v-336l85 -65v-30
l-85 65v-65z" />
    <glyph glyph-name="at-3" 
d="M468 479v1c-19 64 -72 108 -143 108s-125 -44 -143 -109c37 29 84 47 143 47s106 -18 143 -47zM650 0l-154 118c-39 -45 -96 -74 -171 -74s-132 29 -171 74l-154 -118v30l139 106c-30 43 -45 96 -45 148c0 24 3 49 10 72c-7 23 -10 47 -10 68l-94 72v30l95 -73
c11 112 89 216 230 216s219 -104 230 -216l95 73v-30l-94 -73c0 -22 -4 -45 -10 -67c7 -23 10 -48 10 -72c0 -52 -15 -105 -45 -148l139 -106v-30zM250 335v1c-2 6 -3 13 -3 20c0 45 37 79 78 79c43 0 79 -34 79 -79c0 -7 -1 -13 -3 -20l50 39c-25 43 -70 70 -126 70
s-101 -27 -126 -70zM354 270h1c52 9 86 41 104 80zM296 270l-105 80c19 -40 53 -71 105 -80zM447 185l2 3c9 14 15 30 20 47c-15 -12 -31 -22 -49 -30zM204 185l26 20c-18 8 -34 18 -49 29c5 -17 12 -34 23 -49zM325 125c47 0 82 16 107 42l-39 29c-21 -6 -43 -9 -68 -9
s-47 3 -68 9l-38 -29c24 -26 59 -42 106 -42z" />
    <glyph glyph-name="zero-2" 
d="M359 304l126 96c-1 41 -5 77 -14 105zM165 277v-7c0 -41 4 -76 13 -105l9 8l70 127l-92 70v-93zM472 165l1 2c8 30 12 67 12 110v93l-140 -107zM375 81h5c40 2 68 23 84 61l-137 104l-88 -159c11 -4 23 -6 36 -6h100zM375 583h-100h-5c-73 -3 -103 -71 -105 -183l104 -79
l142 256c-11 4 -23 6 -36 6zM375 0h-100h-5c-67 3 -116 39 -147 94l-123 -94v30l112 86c-18 42 -28 92 -28 147v139c0 10 0 20 1 29l-85 65v30l87 -66c16 127 87 204 188 204h100h5c99 -2 168 -79 183 -205l87 67v-30l-85 -64c1 -10 1 -20 1 -30v-139
c0 -55 -10 -105 -28 -147l112 -86v-30l-123 94c-32 -57 -82 -93 -152 -94z" />
  </font>
</defs>
</svg>
